<svg width="436" height="134" viewBox="0 0 436 134" fill="none" xmlns="http://www.w3.org/2000/svg">
<path d="M127.2 74.5999C126.9 72.2999 124.7 70.5999 122.2 70.5999C117.7 70.5999 116 74.3999 116 78.4999C116 82.2999 117.7 86.1999 122.2 86.1999C125.3 86.1999 127 84.0999 127.4 81.0999H132.3C131.8 86.7999 127.8 90.4999 122.2 90.4999C115.1 90.4999 110.9 85.1999 110.9 78.5999C110.9 71.7999 115.1 66.4999 122.2 66.4999C127.2 66.4999 131.5 69.3999 132.1 74.6999H127.2V74.5999Z" fill="#B01333"/>
<path d="M141.9 66.8999H147.1L155.7 89.7999H150.5L148.8 84.6999H140.2L138.4 89.7999H133.3L141.9 66.8999ZM141.4 80.8999H147.3L144.4 72.4999H144.3L141.4 80.8999Z" fill="#B01333"/>
<path d="M161.2 80.8999L152.8 66.8999H158.4L163.8 75.8999L169.1 66.8999H174.7L166.2 80.9999V89.7999H161.2V80.8999Z" fill="#B01333"/>
<path d="M176.6 66.8999H193.8V71.0999H181.7V75.9999H192.8V79.8999H181.7V85.4999H194V89.7999H176.6V66.8999Z" fill="#B01333"/>
<path d="M202.5 71.0999H195.6V66.8999H214.4V71.0999H207.5V89.7999H202.5V71.0999Z" fill="#B01333"/>
<path d="M220.9 66.8999H226.1L234.7 89.7999H229.5L227.8 84.6999H219.2L217.4 89.7999H212.3L220.9 66.8999ZM220.4 80.8999H226.3L223.4 72.4999H223.3L220.4 80.8999Z" fill="#B01333"/>
<path d="M236.6 66.8999H241.6L251.1 82.1999H251.2V66.8999H255.9V89.7999H250.9L241.4 74.3999H241.3V89.7999H236.6V66.8999Z" fill="#B01333"/>
<path d="M270.6 66.2999C277.7 66.2999 281.9 71.5999 281.9 78.3999C281.9 84.9999 277.7 90.2999 270.6 90.2999C263.5 90.2999 259.3 84.9999 259.3 78.3999C259.4 71.5999 263.5 66.2999 270.6 66.2999ZM270.6 86.0999C275.1 86.0999 276.8 82.2999 276.8 78.3999C276.8 74.3999 275.1 70.4999 270.6 70.4999C266.1 70.4999 264.4 74.2999 264.4 78.3999C264.4 82.1999 266.1 86.0999 270.6 86.0999Z" fill="#B01333"/>
<path d="M294.2 66.8999H299.2V75.6999H308.5V66.8999H313.5V89.7999H308.5V79.8999H299.2V89.7999H294.2V66.8999Z" fill="#B01333"/>
<path d="M318 66.8999H335.1V71.0999H323V75.9999H334.1V79.8999H323V85.4999H335.3V89.7999H318V66.8999Z" fill="#B01333"/>
<path d="M338.7 66.8999H351C355.1 66.8999 357.7 69.7999 357.7 73.1999C357.7 75.8999 356.6 77.8999 354.1 78.8999V78.9999C356.6 79.5999 357.3 81.9999 357.4 84.3999C357.5 85.7999 357.5 88.4999 358.4 89.7999H353.4C352.8 88.3999 352.9 86.0999 352.6 84.2999C352.2 81.8999 351.3 80.7999 348.8 80.7999H343.8V89.6999H338.8V66.8999H338.7ZM343.8 77.1999H349.3C351.5 77.1999 352.8 76.1999 352.8 73.8999C352.8 71.6999 351.6 70.6999 349.3 70.6999H343.8V77.1999Z" fill="#B01333"/>
<path d="M361.9 66.8999H379V71.0999H366.9V75.9999H378V79.8999H366.9V85.4999H379.3V89.7999H361.9V66.8999Z" fill="#B01333"/>
<path d="M382.7 66.8999H392.6C398.5 66.8999 403 70.5999 403 78.1999C403 84.7999 399.6 89.7999 392.6 89.7999H382.7V66.8999ZM387.7 85.4999H392.2C395.1 85.4999 397.9 83.6999 397.9 78.5999C397.9 73.9999 396.3 70.9999 391.3 70.9999H387.7V85.4999Z" fill="#B01333"/>
<path d="M411.4 66.8999H406.4V89.7999H411.4V66.8999Z" fill="#B01333"/>
<path d="M422.1 66.8999H427.3L435.9 89.7999H430.7L429 84.6999H420.4L418.6 89.7999H413.5L422.1 66.8999ZM421.6 80.8999H427.5L424.6 72.4999H424.5L421.6 80.8999Z" fill="#B01333"/>
<path d="M47.6 133.5C43.2 133.5 20.4 120.3 9.49998 102.7C-0.500018 86.1 -1.81603e-05 69.7 -1.81603e-05 61C-1.81603e-05 61 -1.81603e-05 22.4 -1.81603e-05 5.19997C24.5 -0.300027 47.6 -2.72384e-05 47.6 -2.72384e-05C47.6 -2.72384e-05 70.7 -0.300027 95.2 5.29997C95.2 22.5 95.2 61.1 95.2 61.1C95.2 69.8 95.7 86.2 85.7 102.7C74.8 120.3 52 133.5 47.6 133.5Z" fill="url(#paint0_linear_160_71)"/>
<path d="M46.7 115L44.3 53L38.2 51.7V48.9L30.8 47.5V46.1H64.3V47.5L56.9 48.9V51.7L50.9 53L48.5 115H46.7Z" fill="#2B1A18"/>
<path d="M6.99998 43C6.59998 43.1 6.39998 43.2 6.19998 43.4C6.09998 43.6 5.99998 43.8 5.99998 44.2C5.99998 44.4 5.99998 44.5 6.09998 44.7C6.19998 44.8 6.29998 45 6.39998 45C6.49998 45.1 6.69998 45.1 6.89998 45.1C7.09998 45.1 7.19998 45.1 7.39998 45C7.49998 44.9 7.69998 44.8 7.79998 44.7C7.89998 44.5 7.99998 44.3 8.09998 44C8.19998 43.8 8.29998 43.6 8.49998 43.4C8.59998 43.2 8.79998 43.1 8.89998 42.9C9.09998 42.8 9.19998 42.7 9.39998 42.6C9.59998 42.5 9.79998 42.5 9.99998 42.5C10.4 42.5 10.7 42.6 10.9 42.8C11.2 43 11.3 43.2 11.5 43.6C11.6 43.9 11.7 44.3 11.7 44.8C11.7 45.1 11.7 45.3 11.7 45.6C11.7 45.8 11.6 46.1 11.5 46.4H10.2V45.8C10.4 45.7 10.6 45.7 10.8 45.6C10.9 45.5 11 45.4 11.1 45.3C11.2 45.2 11.2 45 11.2 44.8C11.2 44.6 11.2 44.5 11.1 44.3C11 44.1 11 44 10.8 43.9C10.7 43.8 10.5 43.8 10.4 43.8C10.2 43.8 10.1 43.8 9.89998 43.9C9.79998 44 9.69998 44.1 9.49998 44.2C9.39998 44.4 9.19998 44.6 9.09998 44.9C8.89998 45.3 8.69998 45.6 8.49998 45.8C8.39998 46 8.19998 46.2 7.99998 46.3C7.79998 46.4 7.49998 46.4 7.19998 46.4C6.79998 46.4 6.49998 46.3 6.19998 46.1C5.99998 46 5.79998 45.7 5.69998 45.4C5.59998 45.1 5.49998 44.7 5.49998 44.3C5.49998 44 5.49998 43.7 5.59998 43.4C5.59998 43.1 5.69998 42.8 5.69998 42.5H7.09998V43H6.99998Z" fill="#C90A1E"/>
<path d="M6.59998 52.2C6.39998 52.2 6.29998 52.2 6.19998 52.2C6.09998 52.2 6.09998 52.2 5.99998 52.3C5.89998 52.3 5.89998 52.4 5.89998 52.4C5.89998 52.5 5.79998 52.6 5.79998 52.7H5.49998V50.3H5.79998C5.79998 50.4 5.89998 50.5 5.89998 50.6C5.89998 50.7 5.99998 50.7 5.99998 50.7C6.09998 50.7 6.09998 50.7 6.19998 50.8C6.29998 50.8 6.39998 50.8 6.59998 50.8H10.5C10.6 50.8 10.8 50.8 10.9 50.8C11 50.8 11.1 50.8 11.1 50.7C11.2 50.7 11.2 50.6 11.2 50.6C11.2 50.5 11.3 50.5 11.3 50.3H11.6V53C11.6 53.7 11.5 54.3 11.2 54.7C10.9 55.1 10.5 55.3 9.99998 55.3C9.59998 55.3 9.29998 55.2 8.99998 55C8.69998 54.8 8.49998 54.6 8.29998 54.2C8.19998 53.9 8.09998 53.4 8.09998 52.9C8.09998 52.6 8.09998 52.4 8.09998 52.2H6.59998ZM8.59998 52.2V52.6C8.59998 52.9 8.69998 53.1 8.69998 53.3C8.79998 53.5 8.89998 53.6 9.09998 53.7C9.29998 53.8 9.49998 53.8 9.79998 53.8C10.1 53.8 10.4 53.8 10.5 53.7C10.7 53.6 10.8 53.5 10.9 53.3C11 53.1 11 52.9 11 52.7C11 52.5 11 52.3 11 52.2H8.59998Z" fill="#C90A1E"/>
<path d="M6.59998 61.1C6.49998 61.1 6.39998 61.1 6.29998 61.1C6.19998 61.1 6.09998 61.1 6.09998 61.1C5.99998 61.1 5.99998 61.1 5.99998 61.2L5.89998 61.3C5.89998 61.4 5.89998 61.4 5.79998 61.5H5.49998V59.2H5.79998C5.79998 59.3 5.89998 59.4 5.89998 59.5C5.89998 59.6 5.99998 59.6 5.99998 59.6C6.09998 59.6 6.09998 59.7 6.19998 59.7C6.29998 59.7 6.39998 59.7 6.59998 59.7H10.5C10.6 59.7 10.8 59.7 10.9 59.7C11 59.7 11.1 59.7 11.1 59.6C11.2 59.6 11.2 59.5 11.2 59.5C11.2 59.4 11.3 59.3 11.3 59.2H11.6V61.5H11.3C11.3 61.4 11.2 61.3 11.2 61.2C11.2 61.1 11.1 61.1 11.1 61.1C11 61.1 11 61 10.9 61C10.8 61 10.7 61 10.5 61L6.59998 61.1Z" fill="#C90A1E"/>
<path d="M5.59998 67.8L5.49998 65.5H5.79998C5.79998 65.6 5.89998 65.7 5.89998 65.8C5.89998 65.9 5.99998 65.9 6.09998 65.9C6.19998 65.9 6.19998 65.9 6.29998 66C6.39998 66 6.49998 66 6.69998 66L10.6 65.8C10.7 65.8 10.9 65.8 11 65.8C11.1 65.8 11.2 65.8 11.2 65.7C11.3 65.7 11.3 65.6 11.3 65.6C11.3 65.5 11.4 65.4 11.4 65.3H11.7L11.8 67.9C11.8 68.2 11.8 68.6 11.8 68.8C11.8 69 11.7 69.3 11.6 69.5C11.5 69.7 11.4 69.8 11.3 69.9C11.2 70 11 70.1 10.9 70.2C10.7 70.3 10.5 70.3 10.3 70.3C9.99998 70.3 9.79998 70.3 9.49998 70.2C9.29998 70.1 9.09998 70 8.99998 69.8C8.89998 69.6 8.69998 69.4 8.59998 69.1C8.49998 69.3 8.39998 69.5 8.19998 69.7C7.99998 69.8 7.79998 70 7.59998 70.1L6.99998 70.4C6.69998 70.5 6.49998 70.7 6.39998 70.8C6.29998 70.9 6.19998 71.1 6.19998 71.3H5.89998L5.79998 69.6C5.99998 69.4 6.39998 69.2 6.79998 69L7.59998 68.6C7.79998 68.5 7.99998 68.4 8.09998 68.3C7.99998 68 8.09998 67.9 8.09998 67.8C8.09998 67.7 8.09998 67.6 8.09998 67.4V67.1L6.69998 67.2C6.49998 67.2 6.29998 67.2 6.19998 67.2C6.09998 67.2 5.99998 67.3 5.99998 67.3C5.99998 67.4 5.89998 67.5 5.89998 67.6L5.59998 67.8ZM11.2 67.1L8.69998 67.2V67.6C8.69998 67.8 8.79998 68 8.79998 68.2C8.89998 68.3 8.99998 68.5 9.09998 68.6C9.19998 68.7 9.29998 68.7 9.49998 68.8C9.69998 68.8 9.79998 68.8 9.99998 68.8C10.4 68.8 10.7 68.7 10.9 68.5C11.1 68.3 11.2 68 11.2 67.6C11.2 67.4 11.2 67.2 11.2 67.1Z" fill="#C90A1E"/>
<path d="M7.49998 76.4C7.39998 76.4 7.29998 76.4 7.19998 76.4C7.09998 76.4 6.99998 76.4 6.99998 76.5L6.79998 76.7C6.79998 76.8 6.79998 76.8 6.79998 76.9H6.49998L6.19998 74.6H6.49998C6.49998 74.7 6.59998 74.8 6.59998 74.9C6.59998 75 6.59998 75 6.69998 75C6.79998 75 6.79998 75 6.89998 75C6.99998 75 7.09998 75 7.29998 75L11.1 74.5C11.2 74.5 11.4 74.5 11.4 74.4C11.5 74.4 11.6 74.4 11.6 74.3C11.7 74.3 11.7 74.2 11.7 74.1C11.7 74 11.8 73.9 11.8 73.8H12.1L12.4 76.1H12.1C12 76 12 75.9 12 75.8C12 75.7 11.9 75.7 11.8 75.7C11.7 75.7 11.7 75.7 11.6 75.7C11.5 75.7 11.4 75.7 11.2 75.7L7.49998 76.4Z" fill="#C90A1E"/>
<path d="M7.29998 82.2L7.59998 82.1C7.59998 82.2 7.69998 82.3 7.79998 82.4C7.89998 82.5 7.89998 82.5 7.99998 82.5C8.09998 82.5 8.19998 82.5 8.19998 82.5C8.29998 82.5 8.39998 82.5 8.59998 82.4L12.9 81.3L12.8 80.9C12.8 80.7 12.7 80.6 12.6 80.5C12.5 80.4 12.5 80.4 12.4 80.3C12.3 80.3 12.2 80.2 12 80.2C11.8 80.2 11.7 80.2 11.5 80.2L11.4 79.6L12.9 79.2L14.2 84.3L12.7 84.7L12.6 84.1C12.8 84 12.9 83.9 13 83.9C13.1 83.9 13.2 83.8 13.2 83.7C13.3 83.7 13.3 83.6 13.3 83.5C13.3 83.4 13.4 83.4 13.4 83.3C13.4 83.2 13.4 83.2 13.4 83.1C13.4 83 13.4 82.9 13.4 82.8L13.3 82.5L8.99998 83.6C8.89998 83.6 8.69998 83.7 8.69998 83.7C8.49998 84 8.39998 84 8.39998 84C8.29998 84 8.29998 84.1 8.29998 84.1C8.29998 84.1 8.29998 84.2 8.29998 84.3C8.29998 84.4 8.29998 84.4 8.29998 84.6L7.99998 84.7L7.29998 82.2Z" fill="#C90A1E"/>
<path d="M15.6 91.3C15.8 91.2 16 91.1 16 91.1C16.1 91 16.1 91 16.2 90.9C16.2 90.8 16.2 90.7 16.2 90.5L16.5 90.4L17.3 92.2L17 92.3C16.9 92.2 16.9 92.1 16.8 92.1C16.7 92.1 16.7 92 16.6 92C16.5 92 16.5 92 16.4 92C16.3 92 16.2 92.1 16.1 92.1L13.5 93.2C13.2 93.3 12.9 93.4 12.6 93.5C12.3 93.5 12.1 93.5 11.9 93.5C11.7 93.4 11.5 93.4 11.3 93.2C11.1 93.1 11 92.9 10.9 92.7C10.8 92.5 10.7 92.3 10.5 92C10.3 91.6 10.2 91.3 10.2 91C10.2 90.7 10.2 90.4 10.3 90.2C10.4 90 10.5 89.8 10.7 89.6C10.9 89.4 11.2 89.3 11.6 89.1L14.3 88C14.4 87.9 14.5 87.9 14.6 87.9C14.7 87.9 14.7 87.8 14.8 87.8C14.8 87.7 14.9 87.7 14.9 87.6C14.9 87.5 14.9 87.4 14.9 87.3L15.2 87.2L16.1 89.4L15.8 89.5C15.7 89.4 15.7 89.3 15.6 89.3C15.5 89.3 15.5 89.2 15.4 89.2C15.3 89.2 15.3 89.2 15.2 89.2C15.1 89.2 15 89.3 14.8 89.3L12 90.5C11.8 90.6 11.6 90.7 11.4 90.8C11.2 90.9 11.1 91 11 91.1C10.9 91.2 10.8 91.4 10.8 91.5C10.8 91.7 10.8 91.8 10.9 92C11 92.3 11.2 92.5 11.3 92.6C11.5 92.7 11.7 92.7 11.9 92.7C12.1 92.7 12.4 92.6 12.8 92.4L15.6 91.3Z" fill="#C90A1E"/>
<path d="M15 97.8C14.7 98 14.6 98.3 14.5 98.5C14.4 98.7 14.5 99 14.7 99.3C14.8 99.5 14.9 99.6 15 99.7C15.1 99.8 15.3 99.8 15.4 99.8C15.6 99.8 15.7 99.8 15.9 99.6C16.1 99.5 16.2 99.4 16.3 99.3C16.4 99.2 16.4 99 16.5 98.8C16.5 98.6 16.5 98.4 16.5 98.1C16.5 97.8 16.5 97.6 16.5 97.4C16.5 97.2 16.5 97 16.6 96.8C16.7 96.6 16.7 96.4 16.9 96.3C17 96.1 17.2 96 17.4 95.9C17.7 95.7 18 95.6 18.3 95.6C18.6 95.6 18.9 95.7 19.2 96C19.5 96.2 19.8 96.5 20 96.9C20.1 97.1 20.3 97.4 20.4 97.6C20.5 97.8 20.6 98.1 20.7 98.4L19.4 99L19.1 98.5C19.3 98.3 19.4 98.2 19.5 98C19.6 97.9 19.6 97.7 19.6 97.6C19.6 97.5 19.5 97.3 19.4 97.1C19.3 97 19.2 96.8 19.1 96.8C19 96.7 18.9 96.7 18.7 96.7C18.6 96.7 18.4 96.7 18.3 96.8C18.2 96.9 18.1 97 18 97.1C17.9 97.2 17.9 97.4 17.9 97.6C17.9 97.8 17.9 98.1 17.9 98.4C17.9 98.8 17.9 99.2 17.9 99.4C17.9 99.7 17.8 99.9 17.6 100.1C17.5 100.3 17.3 100.5 17 100.6C16.7 100.8 16.4 100.9 16 100.9C15.7 100.9 15.4 100.8 15.1 100.6C14.8 100.4 14.6 100.1 14.3 99.7C14.1 99.4 14 99.2 13.9 98.9C13.8 98.6 13.6 98.3 13.5 98L14.7 97.3L15 97.8Z" fill="#C90A1E"/>
<path d="M27.3 108.2C27.5 108 27.6 107.9 27.6 107.9C27.6 107.8 27.7 107.8 27.7 107.7C27.7 107.6 27.7 107.5 27.6 107.4L27.8 107.2L29.1 108.6L28.9 108.8C28.8 108.7 28.7 108.7 28.7 108.7C28.6 108.7 28.6 108.7 28.5 108.7C28.4 108.7 28.4 108.8 28.3 108.8C28.2 108.9 28.1 108.9 28 109L25.9 110.9C25.6 111.2 25.4 111.3 25.2 111.5C25 111.6 24.8 111.7 24.5 111.7C24.3 111.7 24.1 111.7 23.9 111.6C23.7 111.5 23.5 111.4 23.3 111.3C23.1 111.2 22.9 111 22.7 110.8C22.4 110.5 22.2 110.2 22.1 109.9C22 109.6 21.9 109.4 21.9 109.1C21.9 108.8 22 108.6 22.1 108.4C22.2 108.2 22.4 107.9 22.7 107.6L24.8 105.6C24.9 105.5 25 105.4 25.1 105.3C25.2 105.2 25.2 105.2 25.2 105.1C25.2 105 25.2 105 25.2 104.9C25.2 104.8 25.2 104.7 25.1 104.6L25.3 104.4L26.9 106.1L26.7 106.3C26.6 106.2 26.5 106.2 26.4 106.2C26.3 106.2 26.3 106.2 26.2 106.2C26.1 106.2 26.1 106.2 26 106.3C25.9 106.4 25.8 106.4 25.7 106.5L23.5 108.5C23.3 108.7 23.2 108.8 23.1 109C23 109.2 22.9 109.3 22.8 109.5C22.8 109.7 22.8 109.8 22.8 110C22.8 110.2 22.9 110.3 23.1 110.5C23.3 110.7 23.5 110.8 23.7 110.9C23.9 110.9 24.1 110.9 24.3 110.8C24.5 110.7 24.8 110.5 25.1 110.2L27.3 108.2Z" fill="#C90A1E"/>
<path d="M32.8 115.8C33 116.2 33.1 116.5 33.1 116.9C33.1 117.2 33 117.5 32.8 117.8C32.6 118 32.4 118.2 32.2 118.3C32 118.4 31.7 118.4 31.5 118.4C31.2 118.4 31 118.3 30.7 118.2C30.4 118.1 30.2 117.9 29.8 117.6L27.7 115.8L27.9 115.6C28 115.6 28.1 115.7 28.2 115.7C28.3 115.7 28.3 115.7 28.4 115.7C28.5 115.7 28.5 115.6 28.6 115.6C28.7 115.5 28.7 115.5 28.8 115.3L31.3 112.4C31.4 112.3 31.5 112.2 31.5 112.1C31.6 112 31.6 112 31.6 111.9C31.6 111.8 31.6 111.8 31.6 111.7C31.6 111.6 31.5 111.5 31.5 111.4L31.7 111.2L33.9 113.1C34.2 113.3 34.4 113.5 34.5 113.7C34.7 113.9 34.8 114.1 34.9 114.4C35 114.6 35 114.8 35 115C35 115.2 34.9 115.4 34.7 115.6C34.3 116 33.7 116.1 32.8 115.8ZM29.6 116.6C29.7 116.7 29.9 116.9 30.1 117C30.3 117.2 30.5 117.3 30.7 117.4C30.9 117.5 31.1 117.5 31.3 117.4C31.5 117.3 31.7 117.2 31.9 117C32 116.8 32.1 116.7 32.2 116.5C32.3 116.4 32.3 116.2 32.3 116.1C32.3 116 32.2 115.8 32.1 115.7C32 115.6 31.9 115.4 31.7 115.3L31.2 114.9L29.6 116.6ZM31.9 114.8C32.1 115 32.3 115.1 32.5 115.2C32.7 115.2 32.9 115.2 33 115.2C33.2 115.1 33.4 115 33.5 114.8C33.7 114.6 33.8 114.4 33.8 114.3C33.8 114.1 33.8 114 33.7 113.8C33.6 113.6 33.5 113.5 33.3 113.3C33.1 113.2 33 113 32.8 112.9L31.4 114.5L31.9 114.8Z" fill="#C90A1E"/>
<path d="M37.4 122C37.3 122.1 37.3 122.2 37.2 122.2C37.2 122.3 37.1 122.3 37.1 122.4C37.1 122.5 37.1 122.5 37.1 122.6C37.1 122.7 37.1 122.7 37.2 122.8C37.2 122.9 37.3 122.9 37.3 123L37.1 123.2L35.2 121.8L35.4 121.6C35.5 121.6 35.6 121.7 35.7 121.7C35.8 121.7 35.8 121.7 35.9 121.7C36 121.7 36 121.6 36.1 121.5C36.2 121.4 36.2 121.3 36.3 121.2L38.6 118.1C38.7 118 38.7 117.9 38.8 117.8C38.8 117.7 38.9 117.6 38.9 117.6C38.9 117.5 38.9 117.5 38.9 117.4C38.9 117.3 38.8 117.3 38.7 117.2L38.9 117L40.8 118.4L40.6 118.6C40.5 118.6 40.4 118.5 40.3 118.5C40.2 118.5 40.2 118.5 40.1 118.5C40 118.5 40 118.6 39.9 118.6C39.8 118.7 39.8 118.8 39.7 118.9L37.4 122Z" fill="#C90A1E"/>
<path d="M56.3 118.2C56.3 118.1 56.2 118 56.2 117.9C56.2 117.8 56.1 117.7 56 117.6C55.9 117.5 55.8 117.4 55.7 117.4C55.6 117.4 55.5 117.4 55.3 117.5L55.1 117.3L56.7 116.3L56.9 116.5C56.8 116.6 56.8 116.7 56.7 116.8C56.7 116.9 56.7 117 56.7 117.1C56.7 117.2 56.7 117.4 56.8 117.6L58 122.8L57.1 123.4L53.1 120C52.9 119.8 52.8 119.7 52.7 119.7C52.6 119.6 52.5 119.6 52.4 119.6C52.3 119.6 52.2 119.6 52.1 119.7L51.9 119.5L54 118.2L54.2 118.4C54.1 118.5 54 118.6 54 118.7C54 118.8 54 118.9 54.1 119C54.2 119.1 54.2 119.2 54.3 119.2C54.4 119.3 54.5 119.4 54.6 119.5L57.1 121.7L56.3 118.2Z" fill="#C90A1E"/>
<path d="M63.3 112.5C63.2 112.3 63.1 112.2 63 112.2C62.9 112.1 62.9 112.1 62.8 112.1C62.7 112.1 62.6 112.1 62.4 112.2L62.2 112L63.7 110.8L63.9 111C63.8 111.1 63.8 111.2 63.8 111.2C63.8 111.3 63.8 111.3 63.8 111.4C63.8 111.5 63.9 111.5 63.9 111.6C64 111.7 64 111.8 64.1 111.9L65.9 114.1C66.1 114.4 66.3 114.7 66.4 114.9C66.5 115.1 66.6 115.4 66.6 115.6C66.6 115.8 66.6 116 66.5 116.2C66.4 116.4 66.3 116.6 66.1 116.8C65.9 117 65.8 117.2 65.5 117.3C65.2 117.6 64.9 117.8 64.6 117.9C64.3 118 64.1 118.1 63.8 118C63.5 118 63.3 117.9 63.1 117.8C62.9 117.7 62.6 117.4 62.4 117.1L60.6 114.9C60.5 114.8 60.4 114.7 60.4 114.6C60.3 114.5 60.3 114.5 60.2 114.5C60.1 114.5 60.1 114.5 60 114.5C59.9 114.5 59.8 114.5 59.7 114.6L59.5 114.4L61.3 112.9L61.5 113.1C61.4 113.2 61.4 113.3 61.4 113.4C61.4 113.5 61.4 113.5 61.4 113.6C61.4 113.7 61.4 113.7 61.5 113.8C61.5 113.9 61.6 114 61.7 114.1L63.6 116.4C63.7 116.6 63.9 116.7 64 116.9C64.1 117 64.3 117.1 64.4 117.2C64.6 117.3 64.7 117.3 64.9 117.2C65 117.2 65.2 117.1 65.4 116.9C65.6 116.7 65.8 116.5 65.8 116.3C65.8 116.1 65.8 115.9 65.7 115.7C65.6 115.5 65.4 115.2 65.1 114.9L63.3 112.5Z" fill="#C90A1E"/>
<path d="M68.1 106.5L68.3 106.7C68.2 106.8 68.2 106.9 68.2 106.9C68.2 107 68.2 107 68.2 107.1C68.2 107.2 68.3 107.2 68.3 107.3C68.4 107.4 68.4 107.5 68.5 107.6L71.7 110.7L72.3 110.1C72.4 110 72.5 109.9 72.5 109.7C72.5 109.6 72.5 109.5 72.5 109.3C72.5 109.2 72.4 109 72.3 108.9C72.2 108.7 72.1 108.6 72 108.4L72.4 108L73.6 109.3L70.6 112.3L70.4 112.1C70.5 112 70.5 111.9 70.5 111.8C70.5 111.7 70.5 111.7 70.5 111.6C70.5 111.5 70.4 111.5 70.4 111.4C70.3 111.3 70.3 111.2 70.2 111.1L67.4 108.4C67.3 108.3 67.2 108.2 67.1 108.2C67 108.1 67 108.1 66.9 108.1C66.8 108.1 66.8 108.1 66.7 108.1C66.6 108.1 66.5 108.2 66.4 108.2L66.2 108L68.1 106.5Z" fill="#C90A1E"/>
<path d="M77.5 105L77.3 104.8C77.4 104.7 77.4 104.6 77.4 104.5C77.4 104.4 77.4 104.4 77.4 104.3C77.4 104.2 77.3 104.2 77.2 104.1C77.1 104 77 104 76.9 103.9L73.3 101.3L73.1 101.6C73 101.7 72.9 101.9 72.9 102C72.9 102.1 72.9 102.2 72.9 102.3C72.9 102.4 73 102.5 73.1 102.7C73.2 102.8 73.3 103 73.4 103.1L73 103.6L71.7 102.7L74.8 98.4L76.1 99.3L75.7 99.8C75.5 99.7 75.4 99.7 75.3 99.6C75.2 99.6 75.1 99.5 75 99.5C74.9 99.5 74.9 99.5 74.8 99.5C74.7 99.5 74.7 99.5 74.6 99.6C74.5 99.6 74.5 99.7 74.4 99.7C74.3 99.8 74.3 99.8 74.2 99.9L74 100.2L77.6 102.8C77.7 102.9 77.8 103 77.9 103C78 103 78 103.1 78.1 103.1C78.2 103.1 78.2 103.1 78.3 103.1C78.3 103.1 78.4 103.1 78.5 103C78.6 103 78.6 102.9 78.7 102.8L79 103L77.5 105Z" fill="#C90A1E"/>
<path d="M82.9 92.5C83.3 92.6 83.6 92.5 83.8 92.4C84 92.3 84.2 92.1 84.3 91.8C84.4 91.6 84.4 91.5 84.4 91.3C84.4 91.1 84.4 91 84.3 90.9C84.2 90.8 84.1 90.7 83.9 90.6C83.7 90.5 83.6 90.5 83.4 90.5C83.2 90.5 83.1 90.6 82.9 90.7C82.7 90.8 82.5 90.9 82.3 91.2C82.1 91.4 81.9 91.5 81.7 91.7C81.5 91.8 81.3 91.9 81.1 92C81 92 80.8 92 80.6 92C80.4 92 80.2 92 80 91.9C79.7 91.8 79.4 91.6 79.2 91.3C79 91 79 90.7 79 90.3C79 89.9 79.1 89.5 79.3 89.1C79.4 88.9 79.5 88.6 79.6 88.4C79.7 88.2 79.9 87.9 80 87.7L81.2 88.2L81 88.8C80.8 88.8 80.6 88.8 80.4 88.8C80.2 88.8 80.1 88.9 80 89C79.9 89.1 79.8 89.2 79.7 89.4C79.6 89.6 79.6 89.7 79.6 89.9C79.6 90 79.6 90.2 79.7 90.3C79.8 90.4 79.9 90.5 80.1 90.6C80.3 90.7 80.4 90.7 80.6 90.7C80.7 90.7 80.9 90.6 81.1 90.5C81.3 90.4 81.5 90.2 81.7 90C82 89.7 82.3 89.5 82.5 89.4C82.8 89.3 83 89.2 83.2 89.2C83.4 89.2 83.7 89.2 84 89.3C84.3 89.4 84.6 89.6 84.8 89.9C85 90.2 85.1 90.5 85.1 90.8C85.1 91.2 85.1 91.5 84.9 91.9C84.8 92.2 84.7 92.5 84.5 92.8C84.3 93.1 84.2 93.4 84 93.6L82.7 93L82.9 92.5Z" fill="#C90A1E"/>
<path d="M86.4 83C86.6 83 86.7 83.1 86.8 83.1C86.9 83.1 87 83.1 87 83.1C87.1 83.1 87.1 83 87.2 83C87.2 82.9 87.3 82.9 87.3 82.7L87.6 82.8L87.1 85.1L86.8 85C86.8 84.9 86.8 84.8 86.8 84.7C86.8 84.6 86.7 84.6 86.7 84.5C86.6 84.5 86.6 84.4 86.5 84.4C86.4 84.4 86.3 84.3 86.2 84.3L82.4 83.4C82.3 83.4 82.1 83.4 82.1 83.3C82 83.3 81.9 83.3 81.9 83.3C81.8 83.3 81.8 83.4 81.7 83.4C81.7 83.5 81.6 83.5 81.5 83.6L81.2 83.5L81.8 81C82 80.3 82.2 79.7 82.6 79.4C83 79.1 83.4 79 83.9 79.1C84.3 79.2 84.6 79.4 84.8 79.6C85 79.8 85.2 80.1 85.3 80.5C85.4 80.9 85.4 81.3 85.2 81.8C85.1 82.1 85.1 82.3 85 82.5L86.4 83ZM84.5 82.6L84.6 82.2C84.7 81.9 84.7 81.7 84.6 81.5C84.6 81.3 84.4 81.2 84.3 81C84.1 80.9 83.9 80.8 83.6 80.7C83.3 80.6 83.1 80.6 82.9 80.7C82.7 80.7 82.5 80.8 82.4 81C82.3 81.1 82.2 81.3 82.1 81.6C82.1 81.8 82 82 82 82.1L84.5 82.6Z" fill="#C90A1E"/>
<path d="M88 73.4C88.1 73.4 88.2 73.4 88.3 73.4C88.4 73.4 88.5 73.4 88.5 73.4C88.6 73.4 88.6 73.4 88.7 73.3L88.8 73.2C88.8 73.1 88.9 73.1 88.9 73H89.2L88.9 75.3H88.6C88.6 75.2 88.6 75.1 88.5 75C88.5 74.9 88.4 74.9 88.4 74.8C88.3 74.8 88.3 74.7 88.2 74.7C88.1 74.7 88 74.7 87.9 74.6L84 74.3C83.9 74.3 83.7 74.3 83.6 74.3C83.5 74.3 83.4 74.3 83.4 74.3C83.3 74.3 83.3 74.4 83.2 74.4C83.2 74.5 83.1 74.5 83.1 74.7H82.8L83.1 72.4H83.4C83.4 72.5 83.4 72.6 83.5 72.7C83.5 72.8 83.6 72.8 83.6 72.8C83.7 72.8 83.7 72.9 83.8 72.9C83.9 72.9 84 72.9 84.2 73L88 73.4Z" fill="#C90A1E"/>
<path d="M89.7 65.6V67.9H89.4C89.4 67.8 89.3 67.7 89.3 67.6C89.3 67.5 89.2 67.5 89.2 67.5C89.1 67.5 89.1 67.4 89 67.4C88.9 67.4 88.8 67.4 88.6 67.4L84.7 67.3C84.6 67.3 84.5 67.3 84.3 67.3C84.2 67.3 84.1 67.3 84.1 67.4C84 67.4 84 67.5 84 67.5C84 67.6 83.9 67.7 83.9 67.8H83.6L83.7 65.2C83.7 64.8 83.7 64.6 83.8 64.3C83.9 64.1 83.9 63.8 84 63.7C84.1 63.5 84.2 63.4 84.3 63.3C84.4 63.2 84.6 63.1 84.8 63.1C84.8 63 85 63 85.2 63C85.5 63 85.7 63.1 86 63.2C86.2 63.3 86.4 63.5 86.5 63.6C86.6 63.8 86.8 64 86.9 64.3C87 64.1 87.1 63.9 87.3 63.8C87.5 63.7 87.7 63.5 87.9 63.4L88.5 63.1C88.8 63 89 62.9 89.1 62.7C89.2 62.6 89.3 62.4 89.4 62.3H89.7V64C89.5 64.2 89.1 64.4 88.6 64.6L87.8 64.9C87.6 65 87.4 65.1 87.3 65.2C87.2 65.3 87.1 65.3 87.1 65.4C87.1 65.5 87 65.6 87 65.8V66.1H88.4C88.6 66.1 88.8 66.1 88.9 66.1C89 66.1 89.1 66 89.1 66C89.1 65.9 89.2 65.8 89.2 65.7L89.7 65.6ZM84.1 65.9L86.6 66V65.6C86.6 65.4 86.6 65.2 86.5 65C86.4 64.8 86.3 64.7 86.2 64.6C86.1 64.5 86 64.4 85.8 64.4C85.6 64.4 85.5 64.3 85.3 64.3C84.9 64.3 84.6 64.4 84.4 64.6C84.2 64.8 84.1 65.1 84.1 65.4C84.1 65.7 84.1 65.9 84.1 65.9Z" fill="#C90A1E"/>
<path d="M87.8 54.5V56.4L88.2 56.5C88.3 56.5 88.4 56.6 88.6 56.6C88.7 56.6 88.8 56.6 89 56.6C89.3 56.6 89.4 56.4 89.5 56.1H89.8V58H89.5C89.5 57.9 89.5 57.8 89.4 57.7C89.3 57.6 89.2 57.5 89.1 57.5C89 57.4 88.8 57.4 88.6 57.3L83.6 55.4V54.2L88.6 52.7C88.8 52.6 89 52.6 89.1 52.5C89.2 52.5 89.3 52.4 89.3 52.3C89.4 52.2 89.4 52.1 89.4 52H89.7V54.5H89.4C89.4 54.3 89.3 54.2 89.3 54.2C89.2 54.1 89.1 54.1 89 54.1C88.9 54.1 88.8 54.1 88.7 54.1C88.6 54.1 88.4 54.2 88.3 54.2L87.8 54.5ZM87.3 56.2V54.6L84.8 55.3L87.3 56.2Z" fill="#C90A1E"/>
<path d="M89.4 46.1C89.4 46 89.4 45.9 89.3 45.8C89.3 45.7 89.2 45.7 89.2 45.6C89.1 45.6 89.1 45.5 89 45.5C88.9 45.5 88.8 45.5 88.6 45.5H84.1V45.9C84.1 46.1 84.1 46.2 84.2 46.3C84.2 46.4 84.3 46.5 84.4 46.6C84.5 46.7 84.6 46.7 84.8 46.8C84.9 46.9 85.1 46.9 85.2 46.9V47.5H83.6V42.2H85.2V42.8C85 42.9 84.8 42.9 84.7 42.9C84.6 42.9 84.5 43 84.5 43C84.4 43 84.4 43.1 84.3 43.1L84.2 43.2C84.2 43.3 84.2 43.3 84.1 43.4C84.1 43.5 84.1 43.6 84.1 43.7V44H88.6C88.7 44 88.9 44 89 44C89.1 44 89.1 44 89.2 44C89.3 44 89.3 43.9 89.3 43.9L89.4 43.8C89.4 43.7 89.4 43.7 89.5 43.6H89.8V46.1H89.4Z" fill="#C90A1E"/>
<path d="M43.9 27.5C44.3 29.7 45.7 30.1 45.6 32.2C45.5 33.2 44.5 34.8 44.1 36.6C43.6 38 44 39.5 44.8 40.9C38.2 37.6 47.9 27.7 37.3 25.6C42.2 29.2 33.2 33.7 39.1 40.9C33.9 39.1 38.3 33 32.3 32.2C32.8 33.1 34.2 33.4 33.6 35.6C30.3 42.4 37.2 46.1 38.7 46.1H58.5C60.5 46.1 66.8 42.9 65.5 34.4C65 37.3 62.8 39.1 60.1 40.6C64.7 34 63.4 31.8 60.3 29.5C61.6 36.5 57 34.1 56.4 40.7C55.9 39.6 55.8 37.8 56.1 36.4C57 33.4 57.4 31.9 56.4 30.5C54.1 28.5 52.3 27.4 53.3 24.4C51.7 25.8 51.1 27.4 51.3 29C51.7 32.5 54.2 31.8 51.5 35.5C50.7 36.5 50.1 37.8 49.7 39.6C48.5 35.6 51.4 35 50.3 30.5C49.9 28.8 47.8 27.5 47 25.8C46.1 23.9 47.3 22.1 47.6 21.1C45 22 43.6 25 43.9 27.5Z" fill="url(#paint1_linear_160_71)"/>
<path d="M47.6 118.3C44.8 118.3 28.6 106.2 21.7 95.2C14.3 82.8 14.3 70.4 14.3 62.2V17.7C31.4 15 41.7 14.4 47.6 14.4C53.4 14.4 63.8 15 80.9 17.7V62.2C80.9 70.4 80.9 82.8 73.5 95.2C66.6 106.2 50.4 118.3 47.6 118.3ZM79.9 18.4C63.3 15.8 53.2 15.2 47.6 15.2C41.9 15.2 31.9 15.8 15.3 18.4V62.1C15.3 70.2 15.3 82.5 22.5 94.6C29.3 105.5 45.3 117.3 47.6 117.3C49.9 117.3 65.9 105.5 72.7 94.6C80 82.5 80 70.2 79.9 62.1V18.4Z" fill="#E28600"/>
<path d="M70 62.1L69.9 61.2C69 62.7 66.5 63.4 63 63.3C60.6 62.9 58.7 61 56.3 61C56.6 59.7 57.9 59.1 60.3 59.3L60 61.5L60.6 61.6L61.9 59C56.8 57.2 57 56.4 55.5 55.8C54.7 55.6 52.9 55.7 51.5 55.8C44.4 55.4 35.4 57.9 34.5 65.4C34 76.2 50.3 71.9 52.1 78C52.1 80 51.6 81.4 45.5 82.7C33 84.9 34.1 98.7 47.7 98.9C51.6 98.9 52.2 103.6 49.2 105.6L50.4 106.6C54.5 103.3 54.4 96.4 47.8 96.1C42.1 95.8 39.1 89.9 43.5 88.1C47 86.7 51.8 85.6 54.7 83.6C58.5 80.5 58.6 75.1 54.7 72.6C49.1 68.9 40.5 70.5 40.1 65.4C39.9 63.2 43.5 59.9 50.8 60.4C53.5 60.8 55.6 64.6 57.4 66.1L59 64.4L58.7 64L57.6 64.9C56.7 64.1 56 63 56 61.9C60.7 62.7 64 68.4 68.9 64.9C66.1 65.5 64.1 65.3 62.9 64.3C66.1 64.7 68.4 64.2 70 62.1ZM54.6 57.2C54.2 57 53.9 56.6 54 56.5C54.1 56.3 54.5 56.3 55 56.5C55.4 56.7 55.7 57 55.6 57.2C55.5 57.5 55 57.4 54.6 57.2Z" fill="#2B1A18"/>
<path d="M125.1 52.9999C125.1 56.8999 122.8 58.7999 119 58.7999C115.1 58.7999 112.9 56.8999 112.9 52.9999V44.0999H116.1V52.9999C116.1 54.5999 116.5 56.0999 119.1 56.0999C121.4 56.0999 122.1 55.0999 122.1 52.9999V44.0999H125.3V52.9999H125.1Z" fill="#828282"/>
<path d="M127.8 44.0999H131L136.9 53.6999H137V44.0999H139.9V58.4999H136.8L130.8 48.8999V58.4999H127.8V44.0999Z" fill="#828282"/>
<path d="M145.9 44.0999H142.7V58.3999H145.9V44.0999Z" fill="#828282"/>
<path d="M155.3 58.4999H151.7L147.1 44.0999H150.3L153.5 54.1999H153.6L156.8 44.0999H160.1L155.3 58.4999Z" fill="#828282"/>
<path d="M161.3 44.0999H172V46.7999H164.4V49.7999H171.4V52.2999H164.4V55.7999H172.2V58.4999H161.3V44.0999Z" fill="#828282"/>
<path d="M182 44.0999C184.6 44.0999 186.2 45.8999 186.2 48.0999C186.2 49.7999 185.5 51.0999 183.9 51.6999C185.4 52.0999 185.9 53.5999 186 55.0999C186.1 55.9999 186 57.6999 186.6 58.4999H183.4C183 57.5999 183.1 56.1999 182.9 55.0999C182.7 53.5999 182.1 52.8999 180.5 52.8999H177.3V58.4999H174.1V44.0999H182ZM177.4 50.5999H180.9C182.3 50.5999 183.1 49.9999 183.1 48.5999C183.1 47.1999 182.3 46.5999 180.9 46.5999H177.4V50.5999Z" fill="#828282"/>
<path d="M190.9 53.6999C190.9 55.5999 192.4 56.3999 194.1 56.3999C195.2 56.3999 196.9 56.0999 196.9 54.5999C196.9 53.0999 194.7 52.7999 192.6 52.1999C190.5 51.5999 188.3 50.7999 188.3 48.0999C188.3 45.1999 191.1 43.7999 193.7 43.7999C196.7 43.7999 199.4 45.0999 199.4 48.3999H196.3C196.2 46.6999 195 46.1999 193.5 46.1999C192.5 46.1999 191.3 46.5999 191.3 47.7999C191.3 48.8999 192 48.9999 195.6 49.9999C196.6 50.2999 199.9 50.8999 199.9 54.1999C199.9 56.7999 197.8 58.7999 193.9 58.7999C190.7 58.7999 187.8 57.1999 187.8 53.6999H190.9Z" fill="#828282"/>
<path d="M205 44.0999H201.8V58.3999H205V44.0999Z" fill="#828282"/>
<path d="M207.8 44.0999H214C217.7 44.0999 220.5 46.3999 220.5 51.1999C220.5 55.3999 218.4 58.4999 214 58.4999H207.8V44.0999ZM210.9 55.7999H213.7C215.5 55.7999 217.3 54.6999 217.3 51.4999C217.3 48.5999 216.3 46.7999 213.2 46.7999H210.9V55.7999Z" fill="#828282"/>
<path d="M226.6 44.0999H229.8L235.2 58.3999H231.9L230.8 55.1999H225.4L224.3 58.3999H221.1L226.6 44.0999ZM226.3 52.8999H230L228.2 47.5999L226.3 52.8999Z" fill="#828282"/>
<path d="M236.4 44.0999H242.6C246.3 44.0999 249.1 46.3999 249.1 51.1999C249.1 55.3999 247 58.4999 242.6 58.4999H236.4V44.0999ZM239.5 55.7999H242.3C244.1 55.7999 245.9 54.6999 245.9 51.4999C245.9 48.5999 244.9 46.7999 241.8 46.7999H239.6V55.7999H239.5Z" fill="#828282"/>
<path d="M263.4 44.0999C267 44.0999 268.4 46.3999 268.4 48.6999C268.4 50.9999 267 53.2999 263.4 53.2999H260V58.3999H256.8V44.0999H263.4ZM260 50.8999H262.5C264 50.8999 265.3 50.5999 265.3 48.6999C265.3 46.8999 264 46.4999 262.5 46.4999H260V50.8999Z" fill="#828282"/>
<path d="M270.3 44.0999H281V46.7999H273.4V49.7999H280.4V52.2999H273.4V55.7999H281.1V58.4999H270.3V44.0999Z" fill="#828282"/>
<path d="M291 44.0999C293.6 44.0999 295.2 45.8999 295.2 48.0999C295.2 49.7999 294.5 51.0999 292.9 51.6999C294.4 52.0999 294.9 53.5999 295 55.0999C295.1 55.9999 295 57.6999 295.6 58.4999H292.4C292 57.5999 292.1 56.1999 291.9 55.0999C291.7 53.5999 291.1 52.8999 289.5 52.8999H286.3V58.4999H283.1V44.0999H291ZM286.4 50.5999H289.9C291.3 50.5999 292.1 49.9999 292.1 48.5999C292.1 47.1999 291.3 46.5999 289.9 46.5999H286.4V50.5999Z" fill="#828282"/>
<path d="M309.9 52.9999C309.9 56.8999 307.6 58.7999 303.8 58.7999C299.9 58.7999 297.7 56.8999 297.7 52.9999V44.0999H300.9V52.9999C300.9 54.5999 301.3 56.0999 303.9 56.0999C306.2 56.0999 306.9 55.0999 306.9 52.9999V44.0999H310.1V52.9999H309.9Z" fill="#828282"/>
<path d="M316.6 44.0999H319.8L325.2 58.3999H321.9L320.8 55.1999H315.4L314.3 58.3999H311.1L316.6 44.0999ZM316.3 52.8999H320L318.2 47.5999L316.3 52.8999Z" fill="#828282"/>
<path d="M326.4 44.0999H329.5L335.5 53.6999H335.6V44.0999H338.5V58.4999H335.4L329.4 48.8999V58.4999H326.4V44.0999Z" fill="#828282"/>
<path d="M345.2 44.0999H348.4L353.8 58.3999H350.5L349.4 55.1999H344L342.9 58.3999H339.7L345.2 44.0999ZM344.9 52.8999H348.6L346.8 47.5999L344.9 52.8999Z" fill="#828282"/>
<defs>
<linearGradient id="paint0_linear_160_71" x1="411.933" y1="117.364" x2="391.79" y2="-38.0113" gradientUnits="userSpaceOnUse">
<stop stop-color="#E08000"/>
<stop offset="0.1333" stop-color="#EC8000"/>
<stop offset="0.2507" stop-color="#F29800"/>
<stop offset="0.4093" stop-color="#F9B200"/>
<stop offset="0.5515" stop-color="#FEC200"/>
<stop offset="0.6623" stop-color="#FFC800"/>
<stop offset="0.758" stop-color="#FAD33E"/>
<stop offset="0.8737" stop-color="#F4DF82"/>
<stop offset="0.9574" stop-color="#F0E7AE"/>
<stop offset="1" stop-color="#EFEABE"/>
</linearGradient>
<linearGradient id="paint1_linear_160_71" x1="216.114" y1="133.374" x2="216.114" y2="-0.790066" gradientUnits="userSpaceOnUse">
<stop offset="0.0170658" stop-color="#E28600"/>
<stop offset="0.1224" stop-color="#D8540C"/>
<stop offset="0.2231" stop-color="#D02C16"/>
<stop offset="0.3025" stop-color="#CB131C"/>
<stop offset="0.3507" stop-color="#C90A1E"/>
</linearGradient>
</defs>
</svg>
