<?xml version="1.0" encoding="UTF-8" standalone="no"?>
<!-- Created with Inkscape (http://www.inkscape.org/) -->

<svg
   width="14.684575mm"
   height="14.484066mm"
   viewBox="0 0 14.684575 14.484065"
   version="1.1"
   id="svg5"
   xml:space="preserve"
   inkscape:version="1.2.1 (9c6d41e410, 2022-07-14)"
   sodipodi:docname="dengue.svg"
   xmlns:inkscape="http://www.inkscape.org/namespaces/inkscape"
   xmlns:sodipodi="http://sodipodi.sourceforge.net/DTD/sodipodi-0.dtd"
   xmlns="http://www.w3.org/2000/svg"
   xmlns:svg="http://www.w3.org/2000/svg"><sodipodi:namedview
     id="namedview7"
     pagecolor="#505050"
     bordercolor="#eeeeee"
     borderopacity="1"
     inkscape:showpageshadow="0"
     inkscape:pageopacity="0"
     inkscape:pagecheckerboard="0"
     inkscape:deskcolor="#505050"
     inkscape:document-units="mm"
     showgrid="false"
     inkscape:zoom="6.5210165"
     inkscape:cx="11.654625"
     inkscape:cy="36.727403"
     inkscape:window-width="1600"
     inkscape:window-height="822"
     inkscape:window-x="-8"
     inkscape:window-y="-8"
     inkscape:window-maximized="1"
     inkscape:current-layer="g858" /><defs
     id="defs2" /><g
     inkscape:label="Capa 1"
     inkscape:groupmode="layer"
     id="layer1"
     transform="translate(36.002934,22.431638)"><g
       id="g858"
       transform="translate(71.61051,-60.134467)"><ellipse
         style="fill:#080053;fill-opacity:1;stroke:none;stroke-width:0.00327488"
         id="path1024"
         cx="-100.27116"
         cy="44.944862"
         rx="7.3422875"
         ry="7.242033" /><path
         style="fill:#fdfdfd;stroke-width:0.0199213"
         d="m -102.48012,50.656626 c -0.056,-0.02466 -0.0911,-0.05183 -0.0856,-0.06632 0.005,-0.0135 0.18316,-0.425312 0.39566,-0.915127 l 0.38638,-0.890571 0.0113,-0.34116 c 0.006,-0.187636 0.0202,-0.691823 0.0311,-1.120414 l 0.0198,-0.779256 0.28828,-0.615481 c 0.15855,-0.338515 0.29718,-0.640542 0.30805,-0.671173 0.02,-0.05632 0.006,-0.195489 -0.0199,-0.19477 -0.012,3.04e-4 -1.05727,0.819686 -1.09546,0.858645 -0.007,0.0077 -0.0634,0.370171 -0.12422,0.805577 -0.0608,0.435405 -0.11251,0.792913 -0.11488,0.794462 -0.009,0.0061 -1.72172,1.457914 -1.98188,1.680342 l -0.27685,0.236701 -0.072,-0.08349 -0.072,-0.08349 0.062,-0.0542 c 0.0556,-0.04853 2.13333,-1.809187 2.14208,-1.81516 0.002,-0.0014 0.049,-0.331936 0.10441,-0.734635 0.0555,-0.4027 0.10599,-0.761588 0.11233,-0.797531 0.0102,-0.05765 0.0871,-0.125022 0.65311,-0.571943 l 0.64158,-0.506593 -0.0114,-0.170579 c -0.0219,-0.32518 -0.0338,-0.423603 -0.0502,-0.417515 -0.009,0.0033 -0.18289,0.155124 -0.38613,0.337242 -0.81344,0.728965 -1.39874,1.159448 -1.93728,1.424865 -0.52577,0.259125 -1.04674,0.356816 -1.78733,0.335157 -0.404,-0.01182 -0.65704,-0.05067 -0.87914,-0.135001 -0.1476,-0.05604 -0.28331,-0.148329 -0.33066,-0.224852 -0.0564,-0.09116 -0.0436,-0.22927 0.0303,-0.327614 0.23995,-0.319246 1.32352,-0.799044 2.96685,-1.313711 0.65125,-0.203961 1.85571,-0.566784 2.23957,-0.674634 0.11149,-0.03132 0.20271,-0.06327 0.20271,-0.07099 0,-0.0078 -0.27586,-0.228294 -0.61304,-0.490171 l -0.61305,-0.476138 -0.004,-0.112157 c -0.003,-0.06169 -0.006,-0.134734 -0.008,-0.162328 -0.003,-0.02759 -0.005,-0.307545 -0.007,-0.622113 l -0.003,-0.571943 -0.85851,-0.821178 c -0.67544,-0.646062 -0.85489,-0.827943 -0.84154,-0.852897 0.009,-0.01744 0.0423,-0.05609 0.073,-0.08589 l 0.0561,-0.05417 0.89439,0.856895 0.8944,0.856897 0.003,0.511737 c 0.002,0.281456 0.009,0.61009 0.0152,0.730298 l 0.0123,0.21856 0.57349,0.446273 0.57349,0.446272 0.006,-0.128744 c 0.006,-0.122029 0.003,-0.133043 -0.0636,-0.211106 -0.097,-0.115005 -0.13971,-0.252842 -0.13956,-0.450541 9e-5,-0.146587 0.007,-0.176998 0.069,-0.300177 0.0956,-0.190176 0.19321,-0.259299 0.36531,-0.25881 l 0.12473,3.78e-4 0.0113,-0.110728 c 0.006,-0.0609 0.027,-0.381648 0.0462,-0.712772 0.0192,-0.331125 0.0372,-0.583984 0.0399,-0.561909 0.005,0.04576 0.0847,1.322084 0.0847,1.365531 0,0.02216 0.0197,0.0257 0.089,0.01606 0.17602,-0.02448 0.339519,0.08636 0.432337,0.29308 0.03208,0.07145 0.04114,0.132802 0.04163,0.281974 7.47e-4,0.214476 -0.04033,0.338833 -0.149667,0.453507 -0.0554,0.0581 -0.0589,0.07087 -0.0534,0.194719 l 0.006,0.132542 0.504277,-0.392284 c 0.277353,-0.215758 0.541469,-0.423121 0.586927,-0.460806 l 0.08265,-0.06852 0.0021,-0.705151 c 0.0011,-0.387834 0.0084,-0.7157 0.01623,-0.728593 0.0079,-0.01289 0.410194,-0.403548 0.894199,-0.868123 l 0.880011,-0.844682 0.07416,0.07242 c 0.04078,0.03983 0.07416,0.07858 0.07416,0.0861 0,0.0076 -0.362634,0.361379 -0.805853,0.786335 -0.443219,0.424955 -0.83021,0.798883 -0.85998,0.830948 l -0.05413,0.0583 -0.0052,0.72126 -0.0052,0.721259 -0.608252,0.471968 c -0.464979,0.360795 -0.600065,0.475195 -0.573491,0.485671 0.07512,0.02961 0.414763,0.123461 0.92466,0.255493 1.109695,0.287343 2.927647,0.903278 3.737575,1.266317 0.769839,0.345068 1.066877,0.621136 0.926953,0.861514 -0.132775,0.228096 -0.903108,0.427582 -1.530107,0.396237 -0.600218,-0.03 -1.126829,-0.171615 -1.661144,-0.446694 -0.556321,-0.286407 -0.989406,-0.610506 -1.848467,-1.383299 -0.257662,-0.231788 -0.475358,-0.424004 -0.483769,-0.427147 -0.01236,-0.0046 -0.0366,0.330209 -0.04852,0.670174 -0.0021,0.05879 0.03286,0.0901 0.600965,0.538823 0.331734,0.262024 0.619888,0.492739 0.640339,0.512701 0.03068,0.02994 0.05666,0.174396 0.148316,0.824656 l 0.111131,0.78836 0.197756,0.1687 c 0.443777,0.378575 1.956827,1.661284 1.982486,1.680681 0.02245,0.01698 0.01351,0.03653 -0.048,0.104937 l -0.0756,0.08408 -0.227419,-0.195438 c -0.125081,-0.107489 -0.634547,-0.541087 -1.132149,-0.963549 -0.497601,-0.422463 -0.90477,-0.774572 -0.90482,-0.782465 -1.5e-4,-0.01946 -0.194217,-1.422461 -0.208063,-1.503958 -0.0096,-0.05671 -0.0777,-0.117503 -0.546634,-0.488258 -0.294597,-0.23292 -0.546966,-0.427906 -0.560821,-0.433301 -0.01661,-0.0065 -0.0296,0.01674 -0.03817,0.06816 -0.01179,0.07081 0.01094,0.129424 0.247604,0.638545 0.143321,0.308316 0.2816,0.606182 0.307287,0.661925 0.05699,0.123672 0.0603,0.176922 0.08862,1.419883 l 0.02092,0.919189 0.383592,0.884178 c 0.210975,0.486297 0.388356,0.899411 0.394179,0.91803 0.0079,0.02503 -0.01325,0.04561 -0.08086,0.07894 -0.05029,0.0248 -0.09386,0.04242 -0.09681,0.03915 -0.0029,-0.0032 -0.18741,-0.425862 -0.409916,-0.939105 l -0.404558,-0.933169 -0.01266,-0.49167 c -0.007,-0.270419 -0.01793,-0.76259 -0.02437,-1.093715 -0.01339,-0.68789 0.0089,-0.586072 -0.247243,-1.127713 -0.08774,-0.185495 -0.177783,-0.380158 -0.200116,-0.432586 -0.04129,-0.09692 -0.07501,-0.123777 -0.07559,-0.0602 -1.5e-4,0.01932 -0.031,0.11188 -0.0685,0.205699 l -0.0682,0.17058 0.061,0.0485 c 0.0778,0.06188 0.115554,0.154132 0.115554,0.282619 0,0.156907 -0.07106,0.283522 -0.183904,0.327707 -0.0151,0.0059 -0.008,0.02146 0.0209,0.0427 0.150799,0.112926 0.134819,0.442429 -0.025,0.51635 l -0.0497,0.023 0.0612,0.05185 c 0.11811,0.100066 0.1165,0.341668 -0.003,0.450334 -0.0496,0.04512 -0.0572,0.06109 -0.0357,0.07495 0.0151,0.0097 0.0339,0.01775 0.0417,0.01792 0.0354,7.58e-4 0.0747,0.127932 0.0747,0.242135 0,0.114831 -0.005,0.128413 -0.0709,0.195317 -0.0692,0.07025 -0.07,0.07263 -0.032,0.103352 0.0588,0.04757 0.0831,0.10938 0.0831,0.211736 0,0.111552 -0.0378,0.192584 -0.10761,0.230481 -0.06,0.03259 -0.0601,0.03272 -0.0896,0.361854 -0.0403,0.44785 -0.12986,0.80512 -0.20966,0.836197 -0.0501,0.01951 -0.0994,-0.06133 -0.14759,-0.242131 -0.0426,-0.159957 -0.1168,-0.678777 -0.11748,-0.822124 -3.1e-4,-0.06576 -0.0131,-0.08905 -0.0844,-0.153234 -0.0831,-0.07483 -0.084,-0.07722 -0.084,-0.210072 0,-0.127383 0.004,-0.137545 0.0669,-0.195091 0.0526,-0.04759 0.0611,-0.06451 0.0396,-0.07832 -0.0151,-0.0097 -0.0341,-0.01775 -0.0426,-0.01792 -0.0423,-8.57e-4 -0.0935,-0.136842 -0.0936,-0.248149 -6e-5,-0.107722 0.006,-0.123257 0.07,-0.188482 l 0.0701,-0.07108 -0.0631,-0.05351 c -0.0542,-0.0459 -0.0644,-0.06963 -0.0724,-0.166801 -0.0122,-0.148075 0.005,-0.209527 0.0762,-0.277236 0.0552,-0.05232 0.0563,-0.0564 0.0192,-0.06837 -0.10253,-0.03302 -0.1684,-0.251806 -0.12032,-0.399653 0.0132,-0.04055 0.0501,-0.09338 0.0821,-0.117387 l 0.0582,-0.04366 -0.0714,-0.03716 c -0.17431,-0.09075 -0.20072,-0.404181 -0.0468,-0.555747 l 0.0746,-0.07355 -0.0672,-0.17928 c -0.0369,-0.0986 -0.0675,-0.190568 -0.0678,-0.204364 -0.002,-0.06922 -0.0493,0.01736 -0.26424,0.482402 l -0.23391,0.505955 -0.0293,1.113782 -0.0293,1.113783 -0.38653,0.893034 c -0.21259,0.491167 -0.3967,0.912741 -0.40914,0.936827 l -0.0226,0.0438 z"
         id="path874"
         sodipodi:nodetypes="csscsscsscsscscccssssscsccssssccssscssscsssccccscccsssscccscssscsccssccsscsssscccssssssssscssscssscsscssssssscsssssccssscscssccscssscsssssssscsscsccscsssssscsscscscccsscc" /></g></g></svg>
