<?xml version="1.0" encoding="UTF-8" standalone="no"?>
<!-- Created with Inkscape (http://www.inkscape.org/) -->

<svg
   width="14.684575mm"
   height="14.484066mm"
   viewBox="0 0 14.684575 14.484065"
   version="1.1"
   id="svg5"
   xml:space="preserve"
   inkscape:version="1.2.1 (9c6d41e410, 2022-07-14)"
   sodipodi:docname="leptospirosis.svg"
   xmlns:inkscape="http://www.inkscape.org/namespaces/inkscape"
   xmlns:sodipodi="http://sodipodi.sourceforge.net/DTD/sodipodi-0.dtd"
   xmlns="http://www.w3.org/2000/svg"
   xmlns:svg="http://www.w3.org/2000/svg"><sodipodi:namedview
     id="namedview7"
     pagecolor="#505050"
     bordercolor="#eeeeee"
     borderopacity="1"
     inkscape:showpageshadow="0"
     inkscape:pageopacity="0"
     inkscape:pagecheckerboard="0"
     inkscape:deskcolor="#505050"
     inkscape:document-units="mm"
     showgrid="false"
     inkscape:zoom="4.611055"
     inkscape:cx="-12.361596"
     inkscape:cy="41.096886"
     inkscape:window-width="1600"
     inkscape:window-height="822"
     inkscape:window-x="-8"
     inkscape:window-y="-8"
     inkscape:window-maximized="1"
     inkscape:current-layer="g858" /><defs
     id="defs2" /><g
     inkscape:label="Capa 1"
     inkscape:groupmode="layer"
     id="layer1"
     transform="translate(36.002934,22.431638)"><g
       id="g858"
       transform="translate(71.61051,-60.134467)"><ellipse
         style="fill:#400e26;fill-opacity:1;stroke:none;stroke-width:0.00327488"
         id="path1024"
         cx="-100.27116"
         cy="44.944862"
         rx="7.3422875"
         ry="7.242033" /><g
         id="g4713"
         transform="translate(-116.20376,-9.1656326)"><path
           style="fill:#fdfdfd;stroke-width:0.0448358"
           d="m 16.261757,56.362868 c 0.02663,-0.05466 0.06831,-0.08152 0.09774,-0.06296 0.02823,0.01779 0.03705,0.01504 0.01961,-0.0061 -0.01744,-0.02115 -0.0099,-0.06735 0.01679,-0.102669 0.07156,-0.09474 0.02485,-0.116042 -0.126939,-0.0579 -0.07389,0.0283 -0.158813,0.04182 -0.188719,0.03003 -0.02991,-0.01178 0.03494,-0.05071 0.144118,-0.0865 0.109171,-0.03579 0.199155,-0.08622 0.199964,-0.112071 0.002,-0.06495 0.293448,-0.150447 0.434997,-0.12762 0.064,0.01032 0.172098,0.07139 0.240224,0.135717 0.0899,0.08488 0.161178,0.112165 0.259917,0.0995 0.07482,-0.0096 0.12822,-0.0036 0.118647,0.01349 -0.0096,0.01702 -0.109044,0.04229 -0.221048,0.05617 -0.15991,0.01981 -0.227387,0.05647 -0.314197,0.17073 -0.136871,0.180151 -0.158507,0.181759 -0.135574,0.01008 0.02782,-0.208262 -0.05881,-0.217774 -0.302658,-0.03323 -0.254266,0.192424 -0.308908,0.208926 -0.242875,0.07335 z m -3.420823,-0.08455 c -8.67e-4,-0.0343 0.0544,-0.123906 0.122855,-0.199124 0.08472,-0.09309 0.117181,-0.167347 0.101659,-0.232566 -0.01947,-0.08182 -0.0045,-0.09427 0.102817,-0.08529 0.06909,0.0058 0.187839,-0.0178 0.263887,-0.05241 0.123322,-0.05613 0.170116,-0.05102 0.432826,0.04726 0.162005,0.06061 0.283248,0.130293 0.269429,0.154863 -0.01382,0.02457 -0.0031,0.02968 0.02391,0.01137 0.02697,-0.01832 0.0813,-0.01347 0.120722,0.01077 0.100336,0.0617 -0.173673,0.107266 -0.562885,0.09361 -0.229339,-0.0081 -0.326932,0.0095 -0.41703,0.07485 -0.118242,0.08581 -0.162021,0.04813 -0.0663,-0.05705 0.03992,-0.04387 0.03279,-0.0564 -0.03208,-0.0564 -0.04587,-10e-7 -0.145237,0.07931 -0.22081,0.176246 -0.07557,0.09694 -0.138126,0.148184 -0.139009,0.113884 z m 3.2384,-0.321254 c 0.02941,-0.01304 0.07752,-0.01304 0.106931,0 0.02941,0.01304 0.0054,0.02371 -0.05346,0.02371 -0.05881,0 -0.08287,-0.01067 -0.05347,-0.02371 z m 1.110297,-0.03081 c -0.01387,-0.0397 0.0025,-0.09748 0.0364,-0.128379 0.120077,-0.109502 0.06744,-0.150474 -0.141552,-0.110186 -0.111743,0.02154 -0.540001,0.03999 -0.951685,0.04101 -0.646531,0.0016 -0.804739,0.01736 -1.161162,0.115753 l -0.412649,0.113914 -0.378641,-0.157552 c -0.208253,-0.08665 -0.428095,-0.207135 -0.488538,-0.267738 -0.06044,-0.0606 -0.122998,-0.09579 -0.13901,-0.0782 -0.01601,0.0176 -0.02912,0.0047 -0.02912,-0.02875 0,-0.04738 -0.119054,-0.05685 -0.541415,-0.04308 -0.406668,0.01326 -0.545942,0.003 -0.559605,-0.0411 -0.01341,-0.04332 0.06417,-0.05946 0.295474,-0.06146 0.172516,-0.0015 0.390654,-0.02094 0.484754,-0.04324 0.112555,-0.02666 0.0065,-0.03149 -0.3101,-0.0141 -0.325707,0.01789 -0.481189,0.01032 -0.481189,-0.02342 0,-0.02742 -0.01168,-0.0833 -0.02596,-0.124186 -0.02163,-0.06196 0.01135,-0.07434 0.198065,-0.07434 0.272148,0 1.058992,0.132855 1.169482,0.197461 0.0608,0.03555 0.07532,0.03158 0.06101,-0.01665 -0.02502,-0.08428 -0.72474,-0.217515 -1.172815,-0.223312 -0.326133,-0.0042 -0.618311,-0.08479 -0.675374,-0.186244 -0.01305,-0.02319 0.08282,-0.290371 0.213039,-0.59372 0.130219,-0.30335 0.226354,-0.562981 0.213636,-0.576958 -0.02049,-0.02252 -0.366031,0.749018 -0.366031,0.817286 0,0.01493 -0.03927,0.08773 -0.08725,0.161782 -0.07931,0.122384 -0.0978,0.129665 -0.203168,0.07999 -0.06376,-0.03006 -0.121837,-0.05864 -0.129071,-0.06351 -0.0073,-0.0049 0.06975,-0.164495 0.17109,-0.354725 0.237013,-0.444939 0.666306,-0.917539 0.989488,-1.089309 0.23585,-0.125353 0.711988,-0.264439 0.911368,-0.266223 0.05019,-4.61e-4 0.221356,-0.09869 0.380356,-0.218321 0.961023,-0.723049 1.991695,-1.192461 2.618251,-1.192461 0.25761,0 0.580898,0.110722 0.824207,0.282281 0.614671,0.433409 0.926306,1.321699 1.030426,2.937142 0.02666,0.41359 0.05332,0.758025 0.05925,0.765411 0.0059,0.0074 0.229844,0.06402 0.497578,0.125849 0.556136,0.128435 1.304498,0.236632 2.261842,0.327014 0.655807,0.06191 0.658581,0.06265 0.256634,0.06797 -0.581208,0.0077 -1.920567,-0.07423 -2.694658,-0.164822 -0.819105,-0.09586 -0.952341,-0.09295 -1.125358,0.02455 -0.190272,0.129215 -0.563966,0.18206 -0.598013,0.08457 z m -4.326973,-1.228398 c 0.05775,-0.06345 0.104987,-0.159582 0.104987,-0.213631 0,-0.14312 -0.187605,-0.328992 -0.33206,-0.328992 -0.216667,0 -0.373343,0.215052 -0.303576,0.416686 0.08922,0.257844 0.353519,0.32057 0.530649,0.125937 z m 1.249728,-0.398788 c 0.04085,-0.02429 0.127691,-0.05655 0.192983,-0.07169 0.06529,-0.01514 0.155644,-0.06812 0.200783,-0.117715 0.04514,-0.0496 0.150972,-0.104384 0.235183,-0.121743 0.19928,-0.04108 0.401855,-0.19367 0.528092,-0.397789 0.0851,-0.137606 0.09825,-0.207124 0.08337,-0.440711 -0.01471,-0.230676 -0.03733,-0.295908 -0.134488,-0.387741 -0.147852,-0.139744 -0.305591,-0.139888 -0.615907,-5.69e-4 -0.13456,0.06041 -0.334622,0.14615 -0.444585,0.190525 -0.177831,0.07176 -0.207382,0.104707 -0.267327,0.29802 -0.0954,0.307665 -0.08806,0.588463 0.01815,0.694082 0.05306,0.05277 0.08554,0.144755 0.08554,0.242279 0,0.171241 0.0078,0.178698 0.118204,0.113051 z m -0.03266,-0.181962 c 0,-0.05235 -0.01105,-0.126836 -0.02457,-0.165522 -0.01453,-0.0416 0.03599,-0.143989 0.123633,-0.250589 0.08151,-0.09914 0.150802,-0.201396 0.153985,-0.227246 0.01466,-0.119066 0.315367,-0.575255 0.426924,-0.647665 0.285707,-0.185447 0.517649,-0.0148 0.517649,0.380851 0,0.374361 -0.234257,0.638965 -0.616672,0.69656 -0.11463,0.01726 -0.196004,0.05405 -0.196004,0.0886 0,0.07205 -0.118912,0.128071 -0.181558,0.08553 -0.02682,-0.01821 -0.03299,-0.0086 -0.015,0.02335 0.01679,0.02984 0.01171,0.05426 -0.01128,0.05426 -0.02299,0 -0.07225,0.01284 -0.109454,0.02853 -0.04797,0.02023 -0.06766,8.16e-4 -0.06766,-0.06665 z m -0.179777,-0.343002 c -0.03137,-0.10343 0.01786,-0.37017 0.06271,-0.339715 0.02685,0.01824 0.03191,0.0076 0.01263,-0.02672 -0.01766,-0.0314 -0.0092,-0.118019 0.01892,-0.19248 0.04042,-0.107213 0.104795,-0.155331 0.309418,-0.231261 0.231453,-0.08589 0.251637,-0.0874 0.193651,-0.01452 -0.03561,0.04474 -0.120056,0.188668 -0.187674,0.319832 -0.119468,0.231741 -0.331643,0.537002 -0.37325,0.537002 -0.01132,0 -0.0277,-0.02346 -0.0364,-0.05214 z m -1.084526,2.099181 c 0.04567,-0.0402 0.101803,-0.07309 0.124753,-0.07309 0.05434,0 0.03008,0.02171 -0.100848,0.09022 -0.100826,0.05276 -0.102192,0.05178 -0.02391,-0.01713 z m -1.430355,-0.292631 c 0,-0.01735 0.03196,-0.07035 0.07102,-0.117785 0.03907,-0.04743 0.05991,-0.09844 0.04634,-0.113365 -0.03686,-0.0405 -0.200404,0.154595 -0.167262,0.199533 0.01568,0.02126 -0.01588,-0.0025 -0.07015,-0.05277 -0.11117,-0.103034 -0.101668,-0.228415 0.0359,-0.47365 0.168624,-0.300598 0.240334,-0.361451 0.384847,-0.326574 0.118701,0.02865 0.131236,0.04678 0.108567,0.157035 -0.02294,0.111563 -0.01954,0.116144 0.03237,0.04365 0.0548,-0.07652 0.06651,-0.07623 0.211849,0.0052 l 0.153846,0.08619 -0.166626,0.05486 c -0.09164,0.03017 -0.180215,0.07902 -0.196824,0.108546 -0.02093,0.03722 -0.005,0.04246 0.05167,0.01711 0.307807,-0.137546 0.488205,-0.140157 0.488205,-0.0071 0,0.04734 -0.05755,0.07497 -0.181782,0.08726 l -0.181783,0.01799 0.181783,0.0082 c 0.212201,0.0096 0.247167,0.0989 0.04277,0.109251 -0.129383,0.0066 -0.130864,0.0084 -0.02138,0.02662 0.200729,0.03341 0.130397,0.09124 -0.179329,0.147444 -0.329947,0.05987 -0.644039,0.07077 -0.644039,0.02234 z m 1.570498,-2.680592 c 0.01157,-0.03314 0.04124,-0.04653 0.06594,-0.02976 0.02663,0.01808 0.03215,0.0078 0.01358,-0.02518 -0.03358,-0.0597 0.142592,-0.428471 0.291207,-0.609557 0.193699,-0.236021 0.476906,-0.30877 0.658359,-0.169116 0.05228,0.04024 0.09506,0.111221 0.09506,0.157738 0,0.124369 -0.28746,0.516657 -0.397299,0.542182 -0.05202,0.01209 -0.24158,0.06067 -0.421243,0.107961 -0.247123,0.06505 -0.321536,0.07131 -0.305618,0.02573 z"
           id="path4729"
           sodipodi:nodetypes="sssssssssssssssssssssssssssssssssssssscscscsssssssssssssssssssssssscssssssssssssssssscsssssssssssccssssssssssssssssssssssssssssssssssssssscsscsscssssssssssssssss" /></g></g></g></svg>
