<?xml version="1.0" encoding="UTF-8" standalone="no"?>
<!-- Created with Inkscape (http://www.inkscape.org/) -->

<svg
   width="14.684575mm"
   height="14.484066mm"
   viewBox="0 0 14.684575 14.484065"
   version="1.1"
   id="svg5"
   xml:space="preserve"
   inkscape:version="1.2.1 (9c6d41e410, 2022-07-14)"
   sodipodi:docname="malaria.svg"
   xmlns:inkscape="http://www.inkscape.org/namespaces/inkscape"
   xmlns:sodipodi="http://sodipodi.sourceforge.net/DTD/sodipodi-0.dtd"
   xmlns="http://www.w3.org/2000/svg"
   xmlns:svg="http://www.w3.org/2000/svg"><sodipodi:namedview
     id="namedview7"
     pagecolor="#505050"
     bordercolor="#eeeeee"
     borderopacity="1"
     inkscape:showpageshadow="0"
     inkscape:pageopacity="0"
     inkscape:pagecheckerboard="0"
     inkscape:deskcolor="#505050"
     inkscape:document-units="mm"
     showgrid="false"
     inkscape:zoom="6.5210165"
     inkscape:cx="11.654625"
     inkscape:cy="38.260906"
     inkscape:window-width="1600"
     inkscape:window-height="822"
     inkscape:window-x="-8"
     inkscape:window-y="-8"
     inkscape:window-maximized="1"
     inkscape:current-layer="g858" /><defs
     id="defs2" /><g
     inkscape:label="Capa 1"
     inkscape:groupmode="layer"
     id="layer1"
     transform="translate(36.002934,22.431638)"><g
       id="g858"
       transform="translate(71.61051,-60.134467)"><ellipse
         style="fill:#214223;fill-opacity:1;stroke:none;stroke-width:0.00327488"
         id="path1024"
         cx="-100.27116"
         cy="44.944862"
         rx="7.3422875"
         ry="7.242033" /><g
         id="g2497"
         transform="matrix(0.92900941,0,0,0.87998023,13.471892,7.458643)"
         style="fill:#d5fff6"><path
           style="fill:#d5fff6;stroke-width:0.0759072"
           d="m -125.51513,47.719723 c 0.48899,-0.780652 0.57133,-0.96045 0.60778,-1.327222 l 0.0422,-0.424244 0.01,0.401075 c 0.009,0.378807 -0.0217,0.452228 -0.55447,1.32233 -0.31026,0.506691 -0.58809,0.923457 -0.6174,0.926148 -0.0293,0.0027 0.20122,-0.401448 0.51231,-0.898087 z m 6.18869,0.54484 c -0.83471,-1.28165 -0.93878,-1.50035 -0.92825,-1.950733 l 0.0101,-0.429841 0.0433,0.463475 c 0.039,0.417282 0.0997,0.55376 0.60953,1.369356 0.31144,0.498235 0.55104,0.905882 0.53245,0.905882 -0.0186,0 -0.13877,-0.161162 -0.26706,-0.358139 z m -3.31033,-0.724075 c -0.10347,-0.08304 -0.23387,-0.418328 -0.34777,-0.894199 -0.0701,-0.292705 -0.1092,-0.937342 -0.12559,-2.068455 -0.0218,-1.507367 -0.10301,-2.275238 -0.24053,-2.275238 -0.0242,0 -0.33792,0.342921 -0.69726,0.762048 -0.56122,0.654585 -0.65712,0.806096 -0.68,1.074418 l -0.0267,0.31237 -0.0115,-0.315773 c -0.0108,-0.296995 0.0318,-0.367451 0.71712,-1.184851 0.63408,-0.756312 0.72309,-0.896207 0.68603,-1.078171 l -0.0426,-0.209094 -1.52364,0.239018 c -1.73607,0.272341 -2.32919,0.269705 -2.7757,-0.01234 -0.24752,-0.15635 -0.29138,-0.221339 -0.2735,-0.405261 0.0117,-0.120477 0.0982,-0.288448 0.19223,-0.373269 0.15699,-0.141636 0.35452,-0.154879 2.42066,-0.162297 2.22184,-0.008 2.25125,-0.01035 2.37379,-0.191186 0.0682,-0.100711 0.1251,-0.301238 0.12635,-0.445617 0.001,-0.144379 0.063,-0.357562 0.1371,-0.473741 0.1173,-0.183785 0.13756,-0.368676 0.15588,-1.422854 l 0.0211,-1.211621 0.0151,1.216456 c 0.0135,1.092665 0.0292,1.235027 0.15416,1.398944 0.0765,0.100369 0.14882,0.315801 0.16068,0.478738 0.0119,0.162936 0.0688,0.379282 0.12644,0.480769 l 0.10487,0.184521 0.94624,-0.615693 0.94624,-0.615693 0.12502,-0.926949 c 0.0688,-0.509822 0.14654,-0.949907 0.17283,-0.977968 0.0827,-0.08831 1.85977,-1.077838 1.85977,-1.035601 0,0.02213 -0.41348,0.281785 -0.91884,0.577023 -0.87084,0.508749 -0.92098,0.551496 -0.95974,0.818135 -0.0225,0.154736 -0.0827,0.583352 -0.13367,0.95248 -0.051,0.369127 -0.11915,0.682776 -0.15138,0.696999 -0.0322,0.01422 -0.42782,0.270436 -0.8791,0.569362 l -0.82052,0.543502 2.16172,0.0025 c 2.09615,0.0024 2.1673,0.0079 2.34566,0.180765 0.27056,0.262288 0.22046,0.575148 -0.12543,0.783246 -0.42447,0.255373 -1.07728,0.251731 -2.75979,-0.0154 l -1.52314,-0.241825 -0.0436,0.213924 c -0.0384,0.188669 0.0431,0.315665 0.69043,1.075752 0.64684,0.759487 0.73058,0.889897 0.70516,1.098201 -0.0287,0.234873 -0.0289,0.234981 -0.0391,0.01702 -0.007,-0.158106 -0.19076,-0.434575 -0.65675,-0.99015 -0.35558,-0.423939 -0.67113,-0.770798 -0.70122,-0.770798 -0.15324,0 -0.23506,0.686889 -0.22584,1.896032 0.0107,1.401068 -0.0798,2.32679 -0.28568,2.922288 -0.13731,0.397182 -0.24886,0.521645 -0.37604,0.419572 z m -4.29463,-1.371028 c 0.41367,-0.282649 0.784,-0.545725 0.82294,-0.584613 0.0389,-0.03889 0.26971,-0.684327 0.51282,-1.434309 l 0.44202,-1.363604 0.84796,-0.496255 c 0.46638,-0.272939 0.85833,-0.483473 0.87101,-0.467851 0.0127,0.01562 -0.34798,0.250405 -0.80144,0.521742 -0.94108,0.563103 -0.8487,0.420224 -1.42331,2.201409 l -0.35672,1.105764 -0.77318,0.516397 c -0.42526,0.284018 -0.80043,0.516133 -0.83372,0.515812 -0.0333,-3.18e-4 0.27794,-0.231842 0.69162,-0.514492 z m 8.59844,-0.01275 -0.76908,-0.522584 -0.45431,-1.40445 -0.45432,-1.404449 -0.84589,-0.48492 c -0.46523,-0.266705 -0.83344,-0.500253 -0.81823,-0.518993 0.0152,-0.01874 0.40814,0.188562 0.87319,0.460675 l 0.84555,0.494749 0.4429,1.378038 c 0.49602,1.543352 0.36011,1.353179 1.53901,2.153433 0.30085,0.204225 0.51624,0.371265 0.47863,0.371201 -0.0376,-6.3e-5 -0.41446,-0.235279 -0.83745,-0.5227 z m -6.4887,-0.946868 c -2.1e-4,-0.417127 0.0113,-0.598394 0.0257,-0.402816 0.0143,0.195578 0.0145,0.536864 2.5e-4,0.758413 -0.0141,0.221548 -0.0259,0.06153 -0.0261,-0.355597 z m 4.51282,-0.168536 c -2.1e-4,-0.417127 0.0113,-0.598395 0.0257,-0.402816 0.0143,0.195578 0.0145,0.536863 5.2e-4,0.758413 -0.0142,0.221548 -0.0259,0.06153 -0.0261,-0.355597 z m -3.93752,-4.705296 c -0.44118,-0.285632 -0.80272,-0.541223 -0.80342,-0.56798 -7.8e-4,-0.02676 0.38333,0.19281 0.85342,0.487928 0.76609,0.480952 0.96289,0.629571 0.80342,0.606727 -0.0282,-0.004 -0.41225,-0.241044 -0.85342,-0.526675 z m -0.85975,-0.940671 c 0.001,-0.139042 0.0167,-0.185721 0.0341,-0.103731 0.0173,0.08199 0.0162,0.195752 -0.003,0.252804 -0.0187,0.05705 -0.0329,-0.01003 -0.0315,-0.149073 z m -0.13241,-0.892049 c -0.0413,-0.328411 -0.0852,-0.605359 -0.0976,-0.615441 -0.0124,-0.01008 -0.40724,-0.237482 -0.87732,-0.505334 -0.47009,-0.267853 -0.88547,-0.524475 -0.92308,-0.57027 -0.0376,-0.0458 0.23932,0.09389 0.61538,0.310403 0.37607,0.216518 0.81049,0.462199 0.96537,0.545957 0.30001,0.162234 0.32639,0.226347 0.40714,0.989389 0.0699,0.660342 -0.003,0.534299 -0.0899,-0.154704 z"
           id="path2499"
           sodipodi:nodetypes="cccccccccscsssccsssscccsscsscsccccccccsccccscsscssscccssccssccscsccscccscsccscsscccscscsssscsccccscccscscscccccccsssscc" /></g></g></g></svg>
