<?xml version="1.0" encoding="UTF-8" standalone="no"?>
<!-- Created with Inkscape (http://www.inkscape.org/) -->

<svg
   width="106.69503mm"
   height="107.93622mm"
   viewBox="0 0 106.69503 107.93622"
   version="1.1"
   id="svg5"
   xml:space="preserve"
   inkscape:version="1.2.2 (732a01da63, 2022-12-09)"
   sodipodi:docname="harmonize_ico.svg"
   xmlns:inkscape="http://www.inkscape.org/namespaces/inkscape"
   xmlns:sodipodi="http://sodipodi.sourceforge.net/DTD/sodipodi-0.dtd"
   xmlns="http://www.w3.org/2000/svg"
   xmlns:svg="http://www.w3.org/2000/svg"><sodipodi:namedview
     id="namedview7"
     pagecolor="#505050"
     bordercolor="#eeeeee"
     borderopacity="1"
     inkscape:showpageshadow="0"
     inkscape:pageopacity="0"
     inkscape:pagecheckerboard="0"
     inkscape:deskcolor="#505050"
     inkscape:document-units="mm"
     showgrid="false"
     inkscape:zoom="0.40756353"
     inkscape:cx="480.90662"
     inkscape:cy="266.21617"
     inkscape:window-width="1600"
     inkscape:window-height="822"
     inkscape:window-x="-8"
     inkscape:window-y="-8"
     inkscape:window-maximized="1"
     inkscape:current-layer="g248" /><defs
     id="defs2" /><g
     inkscape:label="Capa 1"
     inkscape:groupmode="layer"
     id="layer1"
     transform="translate(-102.67392,-63.395615)"><g
       id="g248"
       transform="translate(9.6398759,-7.8037094)"
       style="fill:#ffffff"><path
         style="fill:#ffffff;fill-opacity:1;stroke-width:0.127"
         d="m 96.797242,175.19836 c 0,-1.01283 0.01972,-1.42717 0.04383,-0.92075 0.02411,0.50641 0.02411,1.33508 0,1.8415 -0.02411,0.50641 -0.04383,0.0921 -0.04383,-0.92075 z m 7.484208,-0.6985 c 5.1e-4,-0.48895 0.0235,-0.67342 0.051,-0.40992 0.0275,0.26349 0.027,0.66354 -10e-4,0.889 -0.0281,0.22545 -0.0506,0.01 -0.05,-0.47908 z m 4.43507,0.73298 c 0.26194,-0.0274 0.69057,-0.0274 0.9525,0 0.26194,0.0274 0.0476,0.0498 -0.47625,0.0498 -0.52387,0 -0.73818,-0.0224 -0.47625,-0.0498 z m 7.05186,-0.12764 c 0.29871,-0.0268 0.75591,-0.0264 1.01599,8.9e-4 0.2601,0.0273 0.0157,0.0492 -0.5431,0.0488 -0.5588,-5.1e-4 -0.7716,-0.0228 -0.47289,-0.0496 z m -22.527857,-4.60584 c 0,-0.94298 0.01999,-1.32874 0.04443,-0.85725 0.02444,0.47148 0.02444,1.24301 0,1.7145 -0.02444,0.47148 -0.04443,0.0857 -0.04443,-0.85725 z m 7.366357,-0.5715 c 2.6e-4,-0.9779 0.0201,-1.36117 0.0443,-0.8517 0.0242,0.50947 0.024,1.30957 -3.8e-4,1.778 -0.0243,0.46843 -0.0441,0.0516 -0.0439,-0.9263 z m 7.34792,1.143 c 10e-4,-0.2794 0.0274,-0.37875 0.0578,-0.22077 0.0304,0.15797 0.0292,0.38657 -0.003,0.508 -0.0318,0.12142 -0.0566,-0.008 -0.0552,-0.28723 z m 5.90522,0.35151 c 0.29686,-0.0267 0.78264,-0.0267 1.0795,0 0.29686,0.0267 0.054,0.0486 -0.53975,0.0486 -0.59372,0 -0.83661,-0.0219 -0.53975,-0.0486 z m 22.63775,-0.58996 c 0,-0.0264 0.10001,-0.12639 0.22225,-0.22225 0.20144,-0.15798 0.20592,-0.15348 0.048,0.0479 -0.16592,0.21155 -0.27021,0.27882 -0.27021,0.1743 z m 59.60938,-1.79355 c 0,-0.6985 0.0217,-0.96805 0.0474,-0.599 0.0257,0.36906 0.0255,0.94056 0,1.27 -0.0261,0.32945 -0.0471,0.0275 -0.0468,-0.671 z m -63.16538,0.39655 c 0,-0.0264 0.10001,-0.12639 0.22225,-0.22225 0.20144,-0.15798 0.20592,-0.15348 0.048,0.048 -0.16592,0.21155 -0.27021,0.27882 -0.27021,0.1743 z m 1.016,-1.143 c 0,-0.0264 0.10001,-0.12639 0.22225,-0.22225 0.20144,-0.15798 0.20592,-0.15348 0.048,0.048 -0.16592,0.21155 -0.27021,0.27882 -0.27021,0.1743 z m -29.79992,-1.53955 c -3.8e-4,-0.62865 0.0211,-0.90184 0.0477,-0.60709 0.0266,0.29476 0.0269,0.80911 7.6e-4,1.143 -0.0262,0.3339 -0.048,0.0927 -0.0484,-0.53591 z m 11.47734,0.98784 c 0.22545,-0.0281 0.6255,-0.0285 0.889,-0.001 0.2635,0.0275 0.079,0.0505 -0.40992,0.051 -0.48895,5.1e-4 -0.70453,-0.0219 -0.47908,-0.05 z m -4.11204,-1.05134 c 0,-0.59373 0.0219,-0.83662 0.0486,-0.53975 0.0267,0.29686 0.0267,0.78263 0,1.0795 -0.0267,0.29686 -0.0486,0.054 -0.0486,-0.53975 z m 23.32362,0.58705 c 0,-0.0264 0.10001,-0.12639 0.22225,-0.22225 0.20144,-0.15798 0.20592,-0.15348 0.048,0.048 -0.16592,0.21155 -0.27021,0.27882 -0.27021,0.1743 z m -5.207,-0.127 c 0,-0.0264 0.10001,-0.12639 0.22225,-0.22225 0.20144,-0.15798 0.20592,-0.15348 0.048,0.048 -0.16592,0.21155 -0.27021,0.27882 -0.27021,0.1743 z m 1.016,-0.889 c 0,-0.0264 0.10001,-0.12639 0.22225,-0.22225 0.20144,-0.15798 0.20592,-0.15348 0.048,0.0479 -0.16592,0.21155 -0.27021,0.27882 -0.27021,0.1743 z m 51.1526,-0.29921 c 0.29872,-0.0268 0.75592,-0.0264 1.016,8.9e-4 0.26009,0.0273 0.0157,0.0492 -0.5431,0.0488 -0.5588,-5.1e-4 -0.7716,-0.0228 -0.4729,-0.0496 z m -73.96752,-2.12934 c -3.8e-4,-0.62865 0.0211,-0.90184 0.0477,-0.60709 0.0266,0.29476 0.0269,0.80911 7.6e-4,1.143 -0.0263,0.3339 -0.0481,0.0927 -0.0485,-0.53591 z m 19.89392,0.26955 c 0,-0.0264 0.10001,-0.12639 0.22225,-0.22225 0.20144,-0.15798 0.20592,-0.15348 0.048,0.0479 -0.16592,0.21155 -0.27021,0.27882 -0.27021,0.1743 z m -12.53668,-0.77755 c 0.001,-0.34925 0.0256,-0.47706 0.0548,-0.28401 0.0292,0.19305 0.0284,0.4788 -0.002,0.635 -0.0301,0.1562 -0.054,-0.002 -0.0531,-0.35099 z m -18.528207,-1.524 c 2.54e-4,-0.9779 0.02013,-1.36117 0.0443,-0.8517 0.02417,0.50947 0.02401,1.30957 -3.81e-4,1.778 -0.02434,0.46843 -0.04412,0.0516 -0.04392,-0.9263 z m 79.930407,0.35246 c 0.22827,-0.0283 0.57117,-0.0277 0.762,0.001 0.19084,0.029 0.004,0.0521 -0.41502,0.0514 -0.4191,-7.6e-4 -0.57524,-0.0244 -0.34698,-0.0527 z m 15.69214,-1.62246 c 0,-0.48895 0.0235,-0.67342 0.051,-0.40992 0.0275,0.26349 0.027,0.66354 -0.001,0.889 -0.0281,0.22545 -0.0506,0.01 -0.05,-0.47908 z m -66.14516,-0.3175 c 0.4852,-0.48895 0.91077,-0.889 0.94569,-0.889 0.0349,0 -0.33349,0.40005 -0.81869,0.889 -0.4852,0.48895 -0.91077,0.889 -0.94569,0.889 -0.0349,0 0.33349,-0.40005 0.81869,-0.889 z m 62.58556,-0.127 c 0,-0.38418 0.0238,-0.54134 0.0529,-0.34925 0.0291,0.19208 0.0291,0.50641 0,0.6985 -0.0291,0.19208 -0.0529,0.0349 -0.0529,-0.34925 z m -72.01147,0.16049 c 0.33389,-0.0262 0.84824,-0.0259 1.143,7.6e-4 0.29475,0.0266 0.0216,0.0481 -0.60709,0.0477 -0.62865,-3.8e-4 -0.86981,-0.0222 -0.53591,-0.0484 z m -12.69121,-1.43049 c 0,-0.59373 0.0219,-0.83662 0.0486,-0.53975 0.0267,0.29686 0.0267,0.78263 0,1.0795 -0.0267,0.29686 -0.0486,0.054 -0.0486,-0.53975 z m 7.366,0 c 0,-0.59373 0.0219,-0.83662 0.0486,-0.53975 0.0267,0.29686 0.0267,0.78263 0,1.0795 -0.0267,0.29686 -0.0486,0.054 -0.0486,-0.53975 z m 73.39621,0.127 c 0,-0.31433 0.0248,-0.44292 0.055,-0.28575 0.0303,0.15716 0.0303,0.41433 0,0.5715 -0.0303,0.15716 -0.055,0.0286 -0.055,-0.28575 z m -91.678477,-1.5875 c 2.54e-4,-0.9779 0.02013,-1.36117 0.0443,-0.8517 0.02417,0.50947 0.02401,1.30957 -3.81e-4,1.778 -0.02434,0.46843 -0.04412,0.0516 -0.04392,-0.9263 z m 7.365997,-0.381 c 2.6e-4,-0.9779 0.0201,-1.36117 0.0443,-0.8517 0.0242,0.50947 0.024,1.30957 -3.8e-4,1.778 -0.0243,0.46843 -0.0441,0.0516 -0.0439,-0.9263 z m 7.23397,-1.016 c -3.8e-4,-0.62865 0.0211,-0.90184 0.0477,-0.60709 0.0266,0.29476 0.0269,0.80911 7.6e-4,1.143 -0.0263,0.3339 -0.0481,0.0927 -0.0485,-0.53591 z m 24.76887,-1.0795 c 0,-0.87313 0.0203,-1.23032 0.0451,-0.79375 0.0248,0.43656 0.0248,1.15093 0,1.5875 -0.0248,0.43656 -0.0451,0.0794 -0.0451,-0.79375 z m 7.47351,0.127 c 0,-0.24448 0.0261,-0.34449 0.0581,-0.22225 0.0319,0.12223 0.0319,0.32226 0,0.4445 -0.0319,0.12223 -0.0581,0.0222 -0.0581,-0.22225 z m 3.44532,-1.651 c 0,-0.66358 0.0214,-0.93504 0.0476,-0.60325 0.0262,0.33178 0.0262,0.87471 0,1.2065 -0.0262,0.33178 -0.0476,0.0603 -0.0476,-0.60325 z m 52.5786,-0.6985 c 0,-0.6985 0.0217,-0.96805 0.0474,-0.599 0.0257,0.36906 0.0255,0.94056 0,1.27 -0.0261,0.32945 -0.0471,0.0275 -0.0468,-0.671 z m -11.31479,-0.1905 c 0,-0.31433 0.0248,-0.44292 0.055,-0.28575 0.0303,0.15716 0.0303,0.41433 0,0.5715 -0.0303,0.15716 -0.055,0.0286 -0.055,-0.28575 z m 3.93873,-0.3175 c 10e-4,-0.34925 0.0256,-0.47706 0.0548,-0.28401 0.0292,0.19305 0.0284,0.4788 -0.002,0.635 -0.0301,0.1562 -0.054,-0.002 -0.0531,-0.35099 z m -84.72056,-0.381 c 0.003,-0.20955 0.0311,-0.2799 0.0633,-0.15634 0.0322,0.12357 0.0301,0.29502 -0.005,0.381 -0.0348,0.086 -0.0611,-0.0151 -0.0585,-0.22466 z m 32.15061,-1.0795 c 0,-0.59373 0.0219,-0.83662 0.0486,-0.53975 0.0267,0.29686 0.0267,0.78263 0,1.0795 -0.0267,0.29686 -0.0486,0.054 -0.0486,-0.53975 z m 56.12422,-1.016 c 0,-0.31433 0.0248,-0.44292 0.055,-0.28575 0.0303,0.15716 0.0303,0.41433 0,0.5715 -0.0303,0.15716 -0.055,0.0286 -0.055,-0.28575 z m -67.04621,-1.778 c 0,-0.59373 0.0219,-0.83662 0.0486,-0.53975 0.0267,0.29686 0.0267,0.78263 0,1.0795 -0.0267,0.29686 -0.0486,0.054 -0.0486,-0.53975 z m 14.73199,-0.127 c 0,-0.59373 0.0219,-0.83662 0.0486,-0.53975 0.0267,0.29686 0.0267,0.78263 0,1.0795 -0.0267,0.29686 -0.0486,0.054 -0.0486,-0.53975 z m -26.08468,0.34925 c 0.52629,-0.56073 0.64031,-0.66156 0.64031,-0.5662 0,0.0204 -0.27146,0.29185 -0.60325,0.60325 l -0.60325,0.5662 z m 35.22598,-1.55575 c 0,-0.48895 0.0235,-0.67342 0.051,-0.40992 0.0275,0.26349 0.027,0.66354 -0.001,0.889 -0.0281,0.22545 -0.0505,0.01 -0.05,-0.47908 z m -38.96717,0.3175 c 0.12643,-0.1397 0.25845,-0.254 0.29337,-0.254 0.0349,0 -0.0399,0.1143 -0.16637,0.254 -0.12642,0.1397 -0.25844,0.254 -0.29336,0.254 -0.0349,0 0.0399,-0.1143 0.16636,-0.254 z m 69.07593,-0.0318 -0.24193,-0.28575 0.28575,0.24193 c 0.26853,0.22736 0.34356,0.32957 0.24193,0.32957 -0.0241,0 -0.15269,-0.12859 -0.28575,-0.28575 z m -57.61418,-0.44224 c 0.29686,-0.0267 0.78264,-0.0267 1.0795,0 0.29686,0.0267 0.054,0.0486 -0.53975,0.0486 -0.59372,0 -0.83661,-0.0219 -0.53975,-0.0486 z m 21.79453,-1.81201 c 0,-0.66358 0.0214,-0.93504 0.0476,-0.60325 0.0262,0.33178 0.0262,0.87471 0,1.2065 -0.0262,0.33178 -0.0476,0.0603 -0.0476,-0.60325 z m -31.85928,0.762 c 0.12643,-0.1397 0.25845,-0.254 0.29337,-0.254 0.0349,0 -0.0399,0.1143 -0.16637,0.254 -0.12643,0.1397 -0.25844,0.254 -0.29337,0.254 -0.0349,0 0.0399,-0.1143 0.16637,-0.254 z m -4.6355,-0.55595 c 0,-0.0264 0.10002,-0.12639 0.22225,-0.22225 0.20143,-0.15798 0.20592,-0.15348 0.048,0.0479 -0.16591,0.21155 -0.2702,0.27882 -0.2702,0.1743 z m 74.78679,-0.5553 c -0.15796,-0.20143 -0.15348,-0.20593 0.048,-0.0479 0.12223,0.0959 0.22225,0.19587 0.22225,0.22225 0,0.10452 -0.1043,0.0373 -0.27021,-0.1743 z m -45.65942,-1.42875 c 0,-0.59373 0.0219,-0.83662 0.0486,-0.53975 0.0267,0.29686 0.0267,0.78263 0,1.0795 -0.0267,0.29686 -0.0486,0.054 -0.0486,-0.53975 z m -27.85737,0.58705 c 0,-0.0264 0.10002,-0.12639 0.22225,-0.22225 0.20143,-0.15798 0.20592,-0.15348 0.048,0.048 -0.16591,0.21155 -0.2702,0.27882 -0.2702,0.1743 z m 7.71674,-0.29588 c 0.15797,-0.0304 0.38657,-0.0292 0.508,0.003 0.12141,0.0318 -0.008,0.0566 -0.28724,0.0552 -0.2794,-0.001 -0.37875,-0.0274 -0.22076,-0.0578 z m 3.42751,-0.1268 c 0.15716,-0.0303 0.41434,-0.0303 0.5715,0 0.15716,0.0303 0.0286,0.055 -0.28575,0.055 -0.31432,0 -0.44291,-0.0248 -0.28575,-0.055 z m 3.556,-0.127 c 0.15716,-0.0303 0.41434,-0.0303 0.5715,0 0.15716,0.0303 0.0286,0.055 -0.28575,0.055 -0.31432,0 -0.44291,-0.0248 -0.28575,-0.055 z m 3.68449,-0.1272 c 0.15797,-0.0304 0.38657,-0.0292 0.508,0.003 0.12141,0.0318 -0.008,0.0566 -0.28724,0.0552 -0.2794,-0.001 -0.37875,-0.0274 -0.22076,-0.0578 z m -20.48024,-2.19617 c 0.41473,-0.4191 0.78263,-0.762 0.81755,-0.762 0.0349,0 -0.27582,0.3429 -0.69055,0.762 -0.41472,0.4191 -0.78262,0.762 -0.81755,0.762 -0.0349,0 0.27583,-0.3429 0.69055,-0.762 z m 33.76287,-0.635 c 0,-0.59373 0.0219,-0.83662 0.0486,-0.53975 0.0267,0.29686 0.0267,0.78263 0,1.0795 -0.0267,0.29686 -0.0486,0.054 -0.0486,-0.53975 z m -7.41269,-0.72412 c -0.0336,-0.36334 -0.0146,-0.61399 0.0422,-0.557 0.0569,0.057 0.0844,0.35426 0.0612,0.66061 l -0.0422,0.55701 z m -29.08068,-1.37138 c 0.801,-0.80328 1.48494,-1.4605 1.51986,-1.4605 0.0349,0 -0.59186,0.65722 -1.39286,1.4605 -0.80099,0.80327 -1.48493,1.4605 -1.51985,1.4605 -0.0349,0 0.59186,-0.65723 1.39285,-1.4605 z m 13.62249,1.24236 c 0.19305,-0.0292 0.4788,-0.0284 0.635,0.002 0.15621,0.0301 -0.002,0.054 -0.35099,0.0531 -0.34925,-0.001 -0.47705,-0.0256 -0.28401,-0.0548 z m 3.937,-0.127 c 0.19305,-0.0292 0.4788,-0.0284 0.635,0.002 0.15621,0.0301 -0.002,0.054 -0.35099,0.0531 -0.34925,-0.001 -0.47705,-0.0256 -0.28401,-0.0548 z m 3.74476,-0.12549 c 0.15716,-0.0303 0.41434,-0.0303 0.5715,0 0.15716,0.0303 0.0286,0.055 -0.28575,0.055 -0.31432,0 -0.44291,-0.0248 -0.28575,-0.055 z m 4.00224,-0.12851 c 0.19305,-0.0292 0.4788,-0.0284 0.635,0.002 0.15621,0.0301 -0.002,0.054 -0.35099,0.0531 -0.34925,-0.001 -0.47705,-0.0256 -0.28401,-0.0548 z m -29.243486,-1.87736 c 0.164052,-0.17463 0.326851,-0.3175 0.361776,-0.3175 0.03493,0 -0.07072,0.14287 -0.234776,0.3175 -0.164053,0.17462 -0.326851,0.3175 -0.361776,0.3175 -0.03493,0 0.07072,-0.14288 0.234776,-0.3175 z m 43.860776,-1.0795 c 0,-0.66358 0.0214,-0.93504 0.0476,-0.60325 0.0262,0.33178 0.0262,0.87471 0,1.2065 -0.0262,0.33178 -0.0476,0.0603 -0.0476,-0.60325 z m 46.23365,0.60325 -0.24193,-0.28575 0.28575,0.24193 c 0.26852,0.22736 0.34356,0.32957 0.24193,0.32957 -0.0241,0 -0.15269,-0.12859 -0.28575,-0.28575 z m -40.52276,-0.66675 c 0,-0.48895 0.0235,-0.67342 0.051,-0.40992 0.0275,0.26349 0.027,0.66354 -10e-4,0.889 -0.028,0.22545 -0.0505,0.01 -0.05,-0.47908 z m -13.09064,-0.127 c 0.001,-0.2794 0.0274,-0.37875 0.0578,-0.22077 0.0304,0.15797 0.0292,0.38657 -0.003,0.508 -0.0318,0.12142 -0.0566,-0.008 -0.0552,-0.28723 z m -17.77854,-0.0276 c 0.19305,-0.0292 0.4788,-0.0284 0.635,0.002 0.15621,0.0301 -0.002,0.054 -0.35099,0.0531 -0.34925,-0.001 -0.47705,-0.0256 -0.28401,-0.0548 z m 4.69726,-0.12683 c 0.19209,-0.0291 0.50641,-0.0291 0.6985,0 0.19209,0.0291 0.0349,0.0529 -0.34925,0.0529 -0.38417,0 -0.54134,-0.0238 -0.34925,-0.0529 z m 4.445,-0.127 c 0.19209,-0.0291 0.50641,-0.0291 0.6985,0 0.19209,0.0291 0.0349,0.0529 -0.34925,0.0529 -0.38417,0 -0.54134,-0.0238 -0.34925,-0.0529 z m -26.06675,-0.35353 c 0.16406,-0.17463 0.32685,-0.3175 0.36178,-0.3175 0.0349,0 -0.0707,0.14287 -0.23478,0.3175 -0.16405,0.17462 -0.32685,0.3175 -0.36177,0.3175 -0.0349,0 0.0707,-0.14288 0.23477,-0.3175 z m 30.76575,0.22653 c 0.19209,-0.0291 0.50641,-0.0291 0.6985,0 0.19209,0.0291 0.0349,0.0529 -0.34925,0.0529 -0.38417,0 -0.54134,-0.0238 -0.34925,-0.0529 z m 60.02963,-1.40128 -0.30788,-0.34925 0.34925,0.30788 c 0.32642,0.28777 0.40749,0.39062 0.30788,0.39062 -0.0227,0 -0.17991,-0.15717 -0.34925,-0.34925 z m -22.433,0.12826 c 0.40419,-0.0253 1.03284,-0.0251 1.397,5e-4 0.36416,0.0256 0.0335,0.0462 -0.73488,0.046 -0.76835,-2.6e-4 -1.06631,-0.0212 -0.66212,-0.0465 z m -19.9398,-0.12652 c 0.3339,-0.0263 0.84825,-0.0259 1.143,7.6e-4 0.29476,0.0266 0.0216,0.0481 -0.60708,0.0477 -0.62865,-3.8e-4 -0.86981,-0.0222 -0.53592,-0.0484 z m -9.89888,-1.55749 c 0,-0.52388 0.0224,-0.73819 0.0498,-0.47625 0.0274,0.26193 0.0274,0.69056 0,0.9525 -0.0274,0.26193 -0.0498,0.0476 -0.0498,-0.47625 z m -23.44017,-0.47304 c 0.22827,-0.0283 0.57117,-0.0277 0.762,10e-4 0.19084,0.029 0.004,0.0521 -0.41503,0.0514 -0.4191,-7.6e-4 -0.57523,-0.0244 -0.34697,-0.0527 z m 5.46099,-0.127 c 0.22827,-0.0283 0.57117,-0.0277 0.762,0.001 0.19085,0.029 0.004,0.0521 -0.41502,0.0514 -0.4191,-7.6e-4 -0.57523,-0.0244 -0.34698,-0.0527 z m 5.08,-0.127 c 0.22827,-0.0283 0.57117,-0.0277 0.762,0.001 0.19085,0.029 0.004,0.0521 -0.41502,0.0514 -0.4191,-7.6e-4 -0.57523,-0.0244 -0.34698,-0.0527 z m 5.588,-0.127 c 0.22827,-0.0283 0.57117,-0.0277 0.762,10e-4 0.19085,0.029 0.004,0.0521 -0.41502,0.0514 -0.4191,-7.6e-4 -0.57523,-0.0244 -0.34698,-0.0527 z m 5.08,-0.127 c 0.22827,-0.0283 0.57117,-0.0277 0.762,0.001 0.19085,0.029 0.004,0.0521 -0.41502,0.0514 -0.4191,-7.6e-4 -0.57523,-0.0244 -0.34698,-0.0527 z m 27.75186,-1.14495 c 0.40419,-0.0253 1.03284,-0.0251 1.397,5e-4 0.36416,0.0256 0.0335,0.0463 -0.73488,0.046 -0.76835,-2.6e-4 -1.06631,-0.0212 -0.66212,-0.0465 z m -49.59019,-1.77077 c 0.0917,-0.0367 0.20122,-0.0322 0.24342,0.01 0.0422,0.0422 -0.0328,0.0722 -0.16669,0.0667 -0.14795,-0.006 -0.17804,-0.0362 -0.0767,-0.0767 z m 2.21698,-0.25525 c 0.12357,-0.0322 0.29502,-0.0301 0.38099,0.005 0.086,0.0348 -0.0151,0.0611 -0.22466,0.0585 -0.20955,-0.003 -0.27989,-0.031 -0.15633,-0.0632 z m 25.25888,-0.16599 c 0,-0.17463 0.0288,-0.24607 0.0641,-0.15875 0.0352,0.0873 0.0352,0.23018 0,0.3175 -0.0352,0.0873 -0.0641,0.0159 -0.0641,-0.15875 z m -18.4668,0.034 c 0.29686,-0.0267 0.78264,-0.0267 1.0795,0 0.29686,0.0267 0.054,0.0486 -0.53975,0.0486 -0.59372,0 -0.83661,-0.0219 -0.53975,-0.0486 z m 7.493,-0.127 c 0.29686,-0.0267 0.78264,-0.0267 1.0795,0 0.29686,0.0267 0.054,0.0486 -0.53975,0.0486 -0.59372,0 -0.83661,-0.0219 -0.53975,-0.0486 z m 8.001,-0.127 c 0.29686,-0.0267 0.78264,-0.0267 1.0795,0 0.29686,0.0267 0.054,0.0486 -0.53975,0.0486 -0.59372,0 -0.83661,-0.0219 -0.53975,-0.0486 z m 30.29413,-1.144 c 0.40419,-0.0253 1.03284,-0.025 1.397,5e-4 0.36416,0.0256 0.0335,0.0463 -0.73488,0.046 -0.76835,-2.6e-4 -1.06631,-0.0212 -0.66212,-0.0465 z m -19.939,-0.127 c 0.40419,-0.0253 1.03284,-0.0251 1.397,5e-4 0.36416,0.0256 0.0335,0.0463 -0.73488,0.046 -0.76835,-2.6e-4 -1.06631,-0.0212 -0.66212,-0.0465 z m -15.94313,-2.79511 c 1.41446,-0.0204 3.72904,-0.0204 5.1435,0 1.41446,0.0204 0.25718,0.0372 -2.57175,0.0372 -2.82892,0 -3.98621,-0.0167 -2.57175,-0.0372 z m 17.85683,-1.8734 c 0,-0.62865 0.0211,-0.90184 0.0477,-0.60709 0.0266,0.29476 0.0269,0.80911 0.001,1.143 -0.0263,0.3339 -0.0481,0.0927 -0.0484,-0.53591 z m 4.81441,0.98836 c 0.19305,-0.0292 0.4788,-0.0284 0.635,0.002 0.15621,0.0302 -0.002,0.054 -0.35099,0.0531 -0.34925,-10e-4 -0.47705,-0.0256 -0.28401,-0.0548 z m 4.76076,-0.12549 c 0.15716,-0.0303 0.41434,-0.0303 0.5715,0 0.15716,0.0303 0.0286,0.055 -0.28575,0.055 -0.31433,0 -0.44291,-0.0248 -0.28575,-0.055 z m 4.572,-0.127 c 0.15716,-0.0303 0.41434,-0.0303 0.5715,0 0.15716,0.0303 0.0286,0.055 -0.28575,0.055 -0.31433,0 -0.44291,-0.0248 -0.28575,-0.055 z m 4.572,-0.127 c 0.15716,-0.0303 0.41433,-0.0303 0.5715,0 0.15716,0.0303 0.0286,0.055 -0.28575,0.055 -0.31433,0 -0.44292,-0.0248 -0.28575,-0.055 z m 4.3815,-0.12834 c 0.19208,-0.0291 0.50641,-0.0291 0.6985,0 0.19208,0.0291 0.0349,0.0529 -0.34925,0.0529 -0.38418,0 -0.54134,-0.0238 -0.34925,-0.0529 z m -26.65241,-3.40153 c 0,-0.90805 0.0205,-1.26287 0.045,-0.78847 0.0245,0.47439 0.0243,1.21734 0,1.651 -0.0247,0.43365 -0.0448,0.0455 -0.0446,-0.86253 z m 7.366,-0.635 c 0,-0.90805 0.0205,-1.26287 0.045,-0.78847 0.0245,0.47439 0.0243,1.21734 0,1.651 -0.0247,0.43365 -0.0448,0.0455 -0.0446,-0.86253 z m 8.23741,0.73298 c 0.26194,-0.0274 0.69056,-0.0274 0.9525,0 0.26194,0.0274 0.0476,0.0498 -0.47625,0.0498 -0.52388,0 -0.73819,-0.0224 -0.47625,-0.0498 z m 6.79785,-0.12764 c 0.29872,-0.0268 0.75592,-0.0265 1.016,8.9e-4 0.2601,0.0273 0.0157,0.0492 -0.5431,0.0488 -0.5588,-5.1e-4 -0.7716,-0.0228 -0.4729,-0.0496 z m -7.62335,-3.54695 c 0.0873,-0.0352 0.23019,-0.0352 0.3175,0 0.0873,0.0352 0.0159,0.0641 -0.15875,0.0641 -0.17463,0 -0.24606,-0.0288 -0.15875,-0.0641 z m 6.731,-0.13588 c 0.29686,-0.0267 0.78263,-0.0267 1.0795,0 0.29686,0.0267 0.054,0.0486 -0.53975,0.0486 -0.59373,0 -0.83662,-0.0219 -0.53975,-0.0486 z m -33.70858,-0.85951 c 0,-0.48895 0.0235,-0.67342 0.051,-0.40992 0.0275,0.26349 0.027,0.66354 -0.001,0.889 -0.0281,0.22545 -0.0505,0.01 -0.05,-0.47908 z m 56.09233,-0.49245 c 0,-0.0264 0.10001,-0.12639 0.22225,-0.22225 0.20143,-0.15798 0.20591,-0.15348 0.048,0.048 -0.16591,0.21155 -0.2702,0.27882 -0.2702,0.1743 z m -32.97647,-1.28555 c 0,-0.5588 0.0228,-0.77161 0.0496,-0.4729 0.0268,0.29871 0.0265,0.75591 -0.001,1.016 -0.0273,0.26009 -0.0492,0.0157 -0.0488,-0.5431 z m -27.88828,0.22562 c 0.22701,-0.0282 0.59849,-0.0282 0.8255,0 0.22701,0.0282 0.0413,0.0512 -0.41275,0.0512 -0.45402,0 -0.63976,-0.023 -0.41275,-0.0512 z m -13.71265,-0.12828 c 0.29872,-0.0268 0.75592,-0.0265 1.016,8.9e-4 0.2601,0.0273 0.0157,0.0492 -0.5431,0.0488 -0.5588,-5.1e-4 -0.7716,-0.0228 -0.4729,-0.0496 z m 14.92546,-0.79584 c 0,-0.38418 0.0238,-0.54134 0.0529,-0.34925 0.0291,0.19208 0.0291,0.50641 0,0.6985 -0.0291,0.19208 -0.0529,0.0349 -0.0529,-0.34925 z m 56.09594,0.58705 c 0,-0.0264 0.10001,-0.12639 0.22225,-0.22225 0.20143,-0.15798 0.20591,-0.15348 0.0479,0.048 -0.16591,0.21155 -0.2702,0.27882 -0.2702,0.1743 z m -17.93875,-0.93293 c 0.22701,-0.0282 0.59848,-0.0282 0.8255,0 0.22701,0.0282 0.0413,0.0512 -0.41275,0.0512 -0.45403,0 -0.63977,-0.023 -0.41275,-0.0512 z m -7.79872,-1.11462 c 0,-0.5588 0.0228,-0.77161 0.0496,-0.4729 0.0268,0.29871 0.0265,0.75591 -0.001,1.016 -0.0273,0.26009 -0.0492,0.0157 -0.0488,-0.5431 z m -23.11115,-0.508 c 0,-0.6985 0.0217,-0.96805 0.0474,-0.599 0.0257,0.36906 0.0255,0.94056 0,1.27 -0.0261,0.32945 -0.0471,0.0275 -0.0468,-0.671 z m 11.94096,-0.889 c 0,-0.90805 0.0205,-1.26287 0.045,-0.78847 0.0245,0.47439 0.0243,1.21734 0,1.651 -0.0247,0.43365 -0.0448,0.0455 -0.0446,-0.86253 z m 38.81266,1.28555 c 0,-0.0264 0.10001,-0.12639 0.22225,-0.22225 0.20143,-0.15798 0.20591,-0.15348 0.0479,0.048 -0.16591,0.21155 -0.2702,0.27882 -0.2702,0.1743 z m -65.81548,-1.31409 c 0.22827,-0.0283 0.57117,-0.0277 0.762,0.001 0.19085,0.029 0.004,0.0521 -0.41502,0.0514 -0.4191,-7.6e-4 -0.57523,-0.0244 -0.34698,-0.0527 z m 57.17948,-0.33691 c 0,-0.0264 0.10001,-0.12639 0.22225,-0.22225 0.20143,-0.15798 0.20591,-0.15348 0.0479,0.048 -0.16591,0.21155 -0.2702,0.27882 -0.2702,0.1743 z m 1.27,-1.143 c 0,-0.0264 0.10001,-0.12639 0.22225,-0.22225 0.20143,-0.15798 0.20591,-0.15348 0.048,0.048 -0.16591,0.21155 -0.2702,0.27882 -0.2702,0.1743 z m -35.00305,-1.73005 c 0,-0.87313 0.0203,-1.23032 0.0451,-0.79375 0.0248,0.43656 0.0248,1.15093 0,1.5875 -0.0248,0.43656 -0.0451,0.0794 -0.0451,-0.79375 z m 7.36599,-0.381 c 0,-0.87313 0.0203,-1.23032 0.0451,-0.79375 0.0248,0.43656 0.0248,1.15093 0,1.5875 -0.0248,0.43656 -0.0451,0.0794 -0.0451,-0.79375 z m 24.58906,-0.3175 c 0.44998,-0.45403 0.84673,-0.8255 0.88166,-0.8255 0.0349,0 -0.30468,0.37147 -0.75466,0.8255 -0.44999,0.45402 -0.84674,0.8255 -0.88166,0.8255 -0.0349,0 0.30467,-0.37148 0.75466,-0.8255 z m -21.03847,-0.381 c 0,-0.5588 0.0228,-0.77161 0.0496,-0.4729 0.0268,0.29871 0.0265,0.75591 -0.001,1.016 -0.0273,0.26009 -0.0492,0.0157 -0.0488,-0.5431 z m 7.366,-0.127 c 0,-0.5588 0.0228,-0.77161 0.0496,-0.4729 0.0268,0.29871 0.0265,0.75591 -0.001,1.016 -0.0273,0.26009 -0.0492,0.0157 -0.0488,-0.5431 z m -34.04321,-0.635 c 0.001,-0.34925 0.0256,-0.47706 0.0548,-0.28401 0.0292,0.19305 0.0284,0.4788 -0.002,0.635 -0.0301,0.1562 -0.054,-0.002 -0.0531,-0.35099 z m 39.24226,0.097 c 0.3339,-0.0263 0.84825,-0.0259 1.143,7.6e-4 0.29476,0.0266 0.0216,0.0481 -0.60708,0.0477 -0.62865,-3.8e-4 -0.86981,-0.0222 -0.53592,-0.0484 z m -35.68091,-0.85899 c 0,-0.48895 0.0235,-0.67342 0.051,-0.40992 0.0275,0.26349 0.027,0.66354 -0.001,0.889 -0.028,0.22545 -0.0505,0.01 -0.05,-0.47908 z m -7.50007,0.1905 c 0,-0.31433 0.0248,-0.44292 0.055,-0.28575 0.0303,0.15716 0.0303,0.41433 0,0.5715 -0.0303,0.15716 -0.055,0.0286 -0.055,-0.28575 z m 34.29893,-0.8255 c 0,-0.5588 0.0228,-0.77161 0.0496,-0.4729 0.0268,0.29871 0.0265,0.75591 -0.001,1.016 -0.0273,0.26009 -0.0492,0.0157 -0.0488,-0.5431 z m -69.978852,-2.159 c 5.08e-4,-0.488954 0.02352,-0.673416 0.05101,-0.409922 0.02749,0.263492 0.02703,0.663542 -10e-4,0.889002 -0.02806,0.22545 -0.05055,0.01 -0.04999,-0.47908 z m 3.57142,-3.492504 c 0,-2.409825 0.01708,-3.395663 0.03795,-2.19075 0.02087,1.204912 0.02087,3.176588 0,4.3815 -0.02087,1.204914 -0.03795,0.219075 -0.03795,-2.19075 z m 102.093592,2.286 c 0,-0.523875 0.0224,-0.738188 0.0498,-0.47625 0.0274,0.261937 0.0274,0.690563 0,0.9525 -0.0274,0.261937 -0.0498,0.04763 -0.0498,-0.47625 z m -94.73299,-2.032 c 0,-1.152525 0.0193,-1.624013 0.0428,-1.04775 0.0235,0.576262 0.0235,1.519237 0,2.0955 -0.0235,0.576262 -0.0428,0.104775 -0.0428,-1.04775 z m 55.23683,-0.3175 c 0,-0.5588 0.0228,-0.771602 0.0496,-0.472893 0.0268,0.298709 0.0265,0.755909 -10e-4,1.016 -0.0273,0.260091 -0.0492,0.01569 -0.0488,-0.543107 z m 7.366,-0.127 c 0,-0.5588 0.0228,-0.771602 0.0496,-0.472893 0.0268,0.298709 0.0265,0.755909 -0.001,1.016 -0.0273,0.260091 -0.0492,0.01569 -0.0488,-0.543107 z m 24.765,-0.127 c 0,-0.5588 0.0228,-0.771602 0.0496,-0.472893 0.0268,0.298709 0.0265,0.755909 -10e-4,1.016 -0.0273,0.260091 -0.0492,0.01569 -0.0488,-0.543107 z m -62.74693,0.3175 c 0,-0.314325 0.0248,-0.442913 0.055,-0.28575 0.0303,0.157163 0.0303,0.414337 0,0.5715 -0.0303,0.157163 -0.055,0.02857 -0.055,-0.28575 z m 23.25534,-1.143 c 0,-0.873125 0.0203,-1.230312 0.0451,-0.79375 0.0248,0.436563 0.0248,1.150937 0,1.5875 -0.0248,0.436562 -0.0451,0.07937 -0.0451,-0.79375 z m -19.33289,0.635 c 0,-0.174625 0.0288,-0.246063 0.0641,-0.15875 0.0352,0.08731 0.0352,0.230187 0,0.3175 -0.0352,0.08731 -0.0641,0.01587 -0.0641,-0.15875 z m 47.90248,-1.8415 c 0,-0.5588 0.0228,-0.771602 0.0496,-0.472893 0.0268,0.298709 0.0265,0.755909 -0.001,1.016 -0.0273,0.260091 -0.0492,0.01569 -0.0488,-0.543107 z m 14.732,-0.127 c 0,-0.5588 0.0228,-0.771602 0.0496,-0.472893 0.0268,0.298709 0.0265,0.755909 -0.001,1.016 -0.0273,0.260091 -0.0492,0.01569 -0.0488,-0.543107 z m -46.88648,-0.3175 c 0,-0.174625 0.0288,-0.246063 0.0641,-0.15875 0.0352,0.08731 0.0352,0.230187 0,0.3175 -0.0352,0.08731 -0.0641,0.01587 -0.0641,-0.15875 z m -25.69025,-0.98425 c -0.15797,-0.20143 -0.15348,-0.205922 0.048,-0.04795 0.21155,0.165909 0.27883,0.2702 0.1743,0.2702 -0.0264,0 -0.12638,-0.100013 -0.22225,-0.22225 z M 108.2177,91.410158 c 2.22279,-0.01947 5.82323,-0.01945 8.001,2.8e-5 2.17776,0.01948 0.35912,0.03541 -4.04143,0.0354 -4.40055,-1.5e-5 -6.18235,-0.01596 -3.95957,-0.03542 z m 17.97687,-0.127052 c -0.15797,-0.20143 -0.15348,-0.205922 0.048,-0.04795 0.12224,0.09587 0.22225,0.195878 0.22225,0.22225 0,0.104526 -0.10429,0.03725 -0.2702,-0.1743 z m 72.57828,-0.85725 c 0,-0.62865 0.0211,-0.901837 0.0477,-0.607082 0.0266,0.294755 0.0269,0.809105 0.001,1.143 -0.0263,0.333895 -0.048,0.09273 -0.0484,-0.535918 z m -33.82708,0.65055 c 0,-0.02637 0.10001,-0.126384 0.22225,-0.22225 0.20143,-0.157972 0.20592,-0.15348 0.0479,0.04795 -0.16591,0.21155 -0.2702,0.278826 -0.2702,0.1743 z m 19.10111,-2.61905 c 0,-1.082675 0.0195,-1.525587 0.0433,-0.98425 0.0238,0.541337 0.0238,1.427162 0,1.9685 -0.0238,0.541338 -0.0433,0.09843 -0.0433,-0.98425 z m -90.941432,0.8255 c 5.08e-4,-0.48895 0.02352,-0.673412 0.05101,-0.409918 0.02749,0.263496 0.02703,0.663546 -0.001,0.889 -0.02806,0.225456 -0.05055,0.0099 -0.04999,-0.479082 z m 84.765922,0.732346 c 0.29872,-0.02683 0.75592,-0.02645 1.016,8.89e-4 0.2601,0.02729 0.0157,0.04924 -0.5431,0.04878 -0.5588,-5.08e-4 -0.7716,-0.02279 -0.4729,-0.04962 z m -11.4651,-0.541846 c 0.12643,-0.1397 0.25844,-0.254 0.29337,-0.254 0.0349,0 -0.0399,0.1143 -0.16637,0.254 -0.12643,0.1397 -0.25845,0.254 -0.29337,0.254 -0.0349,0 0.0399,-0.1143 0.16637,-0.254 z m 21.45197,-1.9685 c 1.3e-4,-1.2573 0.0191,-1.754472 0.0422,-1.104826 0.0231,0.649645 0.023,1.678345 0,2.286 -0.0232,0.607654 -0.0421,0.07613 -0.042,-1.181174 z m 3.54706,1.016 c 0,-0.5588 0.0228,-0.771602 0.0496,-0.472893 0.0268,0.298709 0.0265,0.755909 -0.001,1.016 -0.0273,0.260091 -0.0492,0.01569 -0.0488,-0.543107 z m -29.38053,0.14255 c 0,-0.02637 0.10001,-0.126384 0.22225,-0.22225 0.20143,-0.157972 0.20592,-0.15348 0.048,0.04795 -0.16591,0.21155 -0.2702,0.278826 -0.2702,0.1743 z m 1.143,-1.27 c 0,-0.02637 0.10001,-0.126384 0.22225,-0.22225 0.20143,-0.157972 0.20592,-0.15348 0.048,0.04795 -0.16591,0.21155 -0.2702,0.278826 -0.2702,0.1743 z m 32.04753,-1.03155 c 0,-0.5588 0.0228,-0.771602 0.0496,-0.472893 0.0268,0.298709 0.0265,0.755909 -0.001,1.016 -0.0273,0.260091 -0.0492,0.01569 -0.0488,-0.543107 z m -24.0768,0.354678 c 0.15798,-0.03038 0.38658,-0.02922 0.508,0.0026 0.12142,0.03179 -0.008,0.05664 -0.28723,0.05523 -0.2794,-0.0014 -0.37875,-0.02742 -0.22077,-0.05779 z m 3.556,-0.127 c 0.15798,-0.03038 0.38658,-0.02922 0.508,0.0026 0.12141,0.03179 -0.008,0.05664 -0.28723,0.05523 -0.2794,-0.0014 -0.37876,-0.02742 -0.22077,-0.05779 z m 3.556,-0.127 c 0.15798,-0.03038 0.38658,-0.02922 0.508,0.0026 0.12141,0.03179 -0.008,0.05664 -0.28723,0.05523 -0.2794,-0.0014 -0.37876,-0.02742 -0.22077,-0.05779 z m 3.683,-0.127 c 0.15798,-0.03038 0.38658,-0.02922 0.508,0.0026 0.12141,0.03179 -0.008,0.05664 -0.28723,0.05523 -0.2794,-0.0014 -0.37876,-0.02742 -0.22077,-0.05779 z m -21.87723,-0.799178 c 0.34399,-0.34925 0.65402,-0.635 0.68895,-0.635 0.0349,0 -0.21796,0.28575 -0.56195,0.635 -0.34399,0.34925 -0.65403,0.635 -0.68895,0.635 -0.0349,0 0.21796,-0.28575 0.56195,-0.635 z M 102.82064,84.04413 c 3.30571,-0.01885 8.6778,-0.01884 11.938,1.3e-5 3.2602,0.01886 0.55553,0.03428 -6.01037,0.03427 -6.5659,-7e-6 -9.233331,-0.01544 -5.92763,-0.03429 z m 69.96886,-1.391596 c 0.15798,-0.03038 0.38658,-0.02922 0.508,0.0026 0.12141,0.03179 -0.008,0.05664 -0.28723,0.05523 -0.2794,-0.0014 -0.37875,-0.02742 -0.22077,-0.05779 z m 25.85635,-0.989678 c 0,-0.62865 0.0211,-0.901837 0.0477,-0.607082 0.0267,0.294755 0.0269,0.809105 0.001,1.143 -0.0268,0.333895 -0.0486,0.09273 -0.049,-0.535918 z m -65.65264,0.66675 -0.24194,-0.28575 0.28575,0.241933 c 0.26853,0.227358 0.34356,0.329567 0.24194,0.329567 -0.0241,0 -0.1527,-0.128588 -0.28575,-0.28575 z m 43.73329,0.195928 c 0.15798,-0.03038 0.38658,-0.02922 0.508,0.0026 0.12141,0.03179 -0.008,0.05664 -0.28723,0.05523 -0.2794,-0.0014 -0.37876,-0.02742 -0.22077,-0.0578 z m 3.68152,-0.126806 c 0.15716,-0.03027 0.41433,-0.03027 0.5715,0 0.15716,0.03027 0.0286,0.05504 -0.28575,0.05504 -0.31433,0 -0.44292,-0.02477 -0.28575,-0.05504 z m 4.06548,-0.127194 c 0.15798,-0.03038 0.38658,-0.02922 0.508,0.0026 0.12141,0.03179 -0.008,0.05664 -0.28723,0.05523 -0.2794,-0.0014 -0.37876,-0.02742 -0.22077,-0.05779 z m -47.60434,-1.148428 -0.30789,-0.34925 0.34925,0.307888 c 0.19209,0.169338 0.34925,0.326501 0.34925,0.34925 0,0.0996 -0.10284,0.01854 -0.39061,-0.307888 z m 54.40914,-0.60325 c 0,-0.5588 0.0228,-0.771602 0.0496,-0.472893 0.0268,0.298709 0.0264,0.755909 -0.001,1.016 -0.0269,0.260091 -0.0488,0.01569 -0.0483,-0.543107 z m -37.19103,0.5715 c 0.12643,-0.1397 0.25844,-0.254 0.29337,-0.254 0.0349,0 -0.0399,0.1143 -0.16637,0.254 -0.12643,0.1397 -0.25845,0.254 -0.29337,0.254 -0.0349,0 0.0399,-0.1143 0.16637,-0.254 z m 5.7785,-0.8255 c 0.16404,-0.174625 0.32685,-0.3175 0.36177,-0.3175 0.0349,0 -0.0707,0.142875 -0.23477,0.3175 -0.16405,0.174625 -0.32685,0.3175 -0.36177,0.3175 -0.0349,0 0.0707,-0.142875 0.23477,-0.3175 z m -57.87561,0.09651 c 0.40419,-0.02528 1.03284,-0.02504 1.397,5.21e-4 0.36416,0.02557 0.0335,0.04625 -0.73489,0.04596 -0.76835,-2.92e-4 -1.0663,-0.0212 -0.66211,-0.04648 z m 53.93861,-1.23951 c 0.16404,-0.174625 0.32685,-0.3175 0.36177,-0.3175 0.0349,0 -0.0707,0.142875 -0.23477,0.3175 -0.16405,0.174625 -0.32685,0.3175 -0.36177,0.3175 -0.0349,0 0.0707,-0.142875 0.23477,-0.3175 z m 39.15953,-0.635 c 0,-0.5588 0.0228,-0.771602 0.0496,-0.472893 0.0268,0.298709 0.0264,0.755909 -0.001,1.016 -0.0269,0.260091 -0.0488,0.01569 -0.0483,-0.543107 z m -21.53828,0.608872 c 0.15716,-0.03027 0.41433,-0.03027 0.5715,0 0.15716,0.03027 0.0286,0.05504 -0.28575,0.05504 -0.31433,0 -0.44292,-0.02477 -0.28575,-0.05504 z m 4.3815,-0.128336 c 0.19208,-0.0291 0.50641,-0.0291 0.6985,0 0.19208,0.0291 0.0349,0.05291 -0.34925,0.05291 -0.38418,0 -0.54134,-0.02381 -0.34925,-0.05291 z m 4.70074,-0.127169 c 0.19305,-0.02919 0.4788,-0.02841 0.635,0.0017 0.15621,0.03015 -0.002,0.05403 -0.35099,0.05308 -0.34925,-9.52e-4 -0.47705,-0.02562 -0.28401,-0.05481 z m 4.76076,-0.125495 c 0.15716,-0.03027 0.41433,-0.03027 0.5715,0 0.15716,0.03027 0.0286,0.05504 -0.28575,0.05504 -0.31433,0 -0.44292,-0.02477 -0.28575,-0.05504 z m -70.54386,-2.036362 c 0.40419,-0.02528 1.03284,-0.02505 1.397,5.21e-4 0.36416,0.02557 0.0335,0.04625 -0.73489,0.04596 -0.76835,-2.92e-4 -1.0663,-0.0212 -0.66211,-0.04648 z m -19.245136,-0.12664 c 0.366712,-0.02565 0.966787,-0.02565 1.3335,0 0.366712,0.02565 0.06668,0.04664 -0.66675,0.04664 -0.733425,0 -1.033463,-0.02099 -0.66675,-0.04664 z m 74.739496,-1.267334 c 0.19208,-0.0291 0.50641,-0.0291 0.6985,0 0.19208,0.0291 0.0349,0.05291 -0.34925,0.05291 -0.38418,0 -0.54134,-0.02381 -0.34925,-0.05291 z m 5.334,-0.127 c 0.19208,-0.0291 0.50641,-0.0291 0.6985,0 0.19208,0.0291 0.0349,0.05291 -0.34925,0.05291 -0.38418,0 -0.54134,-0.02381 -0.34925,-0.05291 z m 5.14577,-0.128077 c 0.22827,-0.02827 0.57117,-0.02768 0.762,0.0013 0.19084,0.02898 0.004,0.0521 -0.41502,0.05139 -0.4191,-7.11e-4 -0.57524,-0.02442 -0.34698,-0.05269 z m 5.52223,-0.125923 c 0.19208,-0.0291 0.50641,-0.0291 0.6985,0 0.19208,0.0291 0.0349,0.05291 -0.34925,0.05291 -0.38418,0 -0.54134,-0.02381 -0.34925,-0.05291 z m 5.08,-0.127 c 0.19208,-0.0291 0.50641,-0.0291 0.6985,0 0.19208,0.0291 0.0349,0.05291 -0.34925,0.05291 -0.38418,0 -0.54134,-0.02381 -0.34925,-0.05291 z m 5.09333,-2.004536 c 0,-0.62865 0.0211,-0.901837 0.0477,-0.607082 0.0266,0.294755 0.0269,0.809105 0.001,1.143 -0.0268,0.333895 -0.0486,0.09273 -0.049,-0.535918 z m -95.51269,0.22351 c 0.40419,-0.02528 1.03284,-0.02504 1.397,5.21e-4 0.36416,0.02557 0.0335,0.04625 -0.73489,0.04596 -0.76835,-2.92e-4 -1.0663,-0.0212 -0.66211,-0.04648 z m 68.01179,-1.135765 c 0.0917,-0.03669 0.20122,-0.03218 0.24343,0.01003 0.0422,0.0422 -0.0328,0.07222 -0.16669,0.0667 -0.14796,-0.0061 -0.17804,-0.03619 -0.0767,-0.07673 z m 2.15107,-0.251355 c 0.0873,-0.03523 0.23018,-0.03523 0.3175,0 0.0873,0.03523 0.0159,0.06406 -0.15875,0.06406 -0.17463,0 -0.24607,-0.02882 -0.15875,-0.06406 z m 6.86135,-0.136044 c 0.29872,-0.02683 0.75592,-0.02645 1.016,8.38e-4 0.2601,0.02729 0.0157,0.04924 -0.5431,0.04878 -0.5588,-4.61e-4 -0.7716,-0.02279 -0.4729,-0.04962 z m 7.36265,-0.126836 c 0.29686,-0.02674 0.78263,-0.02674 1.0795,0 0.29686,0.02674 0.054,0.04861 -0.53975,0.04861 -0.59373,0 -0.83662,-0.02188 -0.53975,-0.04861 z m 8.13135,-0.127164 c 0.29871,-0.02683 0.75591,-0.02645 1.016,8.39e-4 0.26009,0.02729 0.0157,0.04924 -0.5431,0.04878 -0.5588,-4.61e-4 -0.77161,-0.02279 -0.4729,-0.04962 z"
         id="path264"
         sodipodi:nodetypes="sssscsccsssscscccsssssscsscscccsssscsscccsccccsccccsccccscccsssssssscsccccsccccsscccsccccsccccsscccsccccsccccccccsccsssssssssccsccssssssssscsscsccsscsscscccssssscsssssscscccscsscsccccscccssssscssssssssssssscscsccsscssscssssssssssscscsccssccssssssssscscccccccccssccssccccccsssssssssccsccssssscccccccccccssccccccsssssssssscssscssccsccccccccsssssssssssssssssscssssscsccsccsssscccccccccccccccccccccccccsscscsccccccccscsssssssssssssssccssscscssccscccccccccssccssccsscsssscsccccscccssssccccccsscsssscscccsccccscccsssscccccsssscssccsssscsccccsccccsccccssccccccccsscccscccssssssssssssscsccccsccccscccccscccsscscsscscccsscsssssssssssssscsccccsccccscccscssssssscsscsccccscccscssccsccssssscsscccsccccscccsssscsccccccccssssscsccccsccccsccccsccccsccccsscccsscccsscccssccsssssssssscsscccccccscsssssssssssscssccscssscscccssssssssssssssssssscscccssssssssssssssssssssssssssssssssssssssssssssscscccsssscssccssssssssssssssssss" /><path
         style="fill:#ffffff;fill-opacity:1;stroke-width:0.127"
         d="m 93.316368,176.18261 c -7.62e-4,-1.62402 -0.05929,-8.13576 -0.130035,-14.47055 l -0.128628,-11.5178 0.634219,-2.5157 c 1.208274,-4.79276 2.90568,-7.9067 6.301714,-11.56067 1.766642,-1.90083 2.075752,-2.17102 4.001092,-3.49737 1.77207,-1.22076 2.40236,-1.57263 4.18204,-2.33468 4.42042,-1.89278 6.25582,-2.17246 15.367,-2.34164 13.62614,-0.25302 19.37024,-0.33598 19.431,-0.28063 0.0349,0.0318 0.15509,6.43961 0.26704,14.23956 l 0.20355,14.18173 -0.29834,1.651 c -1.37324,7.59963 -6.0293,14.08454 -12.72676,17.72566 -2.30316,1.25213 -3.9461,1.90155 -6.49736,2.56825 l -1.71263,0.44754 -7.4295,0.21181 c -4.08622,0.11649 -8.92974,0.25026 -10.76337,0.29727 l -3.33388,0.0855 -0.003,-3.4925 c -0.001,-1.92088 -0.0577,-8.28806 -0.12509,-14.1493 l -0.1225,-10.6568 0.43529,-1.5987 c 0.30324,-1.11372 0.74098,-2.24278 1.44298,-3.72183 l 1.00768,-2.12312 2.26999,-2.33821 2.26999,-2.33821 2.16395,-1.0822 c 1.68916,-0.84476 2.52511,-1.17993 3.81001,-1.52759 1.58437,-0.4287 1.75309,-0.44823 4.50354,-0.52149 1.57163,-0.0418 6.10497,-0.16679 10.0741,-0.27764 3.96913,-0.11085 7.25303,-0.16511 7.29756,-0.12059 0.0445,0.0445 0.15668,4.63613 0.24922,10.20357 l 0.16828,10.12261 -0.46033,1.94298 c -1.40849,5.94508 -5.43866,10.5202 -11.20604,12.72129 -1.45353,0.55473 -1.98221,0.68633 -3.81,0.94841 -1.83611,0.26327 -2.82871,0.31649 -7.36104,0.39461 -2.88131,0.0497 -5.24502,0.0688 -5.25269,0.0425 -0.008,-0.0263 -0.0863,-4.16259 -0.17471,-9.19179 -0.15393,-8.75524 -0.15068,-9.20366 0.0763,-10.54708 0.17979,-1.06416 0.38305,-1.72833 0.84146,-2.74956 0.53527,-1.19245 0.74895,-1.50409 1.86793,-2.72442 1.21479,-1.32481 1.32684,-1.41125 2.90591,-2.2416 l 1.6424,-0.86365 6.47816,-0.23754 c 4.94813,-0.18143 6.53395,-0.2027 6.71434,-0.09 0.22519,0.14062 0.23617,0.44708 0.23617,6.58659 v 6.4391 l -0.75625,1.66346 c -0.71388,1.57028 -0.82776,1.7394 -2.03295,3.01905 -1.20972,1.28446 -1.35829,1.39727 -2.8315,2.15014 l -1.5548,0.79455 -2.68703,0.31873 c -3.39253,0.40241 -3.40456,0.3997 -3.51729,-0.79371 -0.0442,-0.46806 -0.0808,-1.25648 -0.0813,-1.75204 l -0.001,-0.90101 2.53966,-0.0873 2.53965,-0.0873 1.33151,-0.72151 c 1.3044,-0.70681 1.34985,-0.74681 2.2315,-1.96329 1.34404,-1.85451 1.39068,-2.07777 1.39068,-6.657 0,-2.0346 -0.0369,-3.88384 -0.082,-4.10942 l -0.082,-0.41015 -4.26238,0.0939 -4.2624,0.0939 -1.14832,0.55848 c -1.64689,0.80095 -2.55228,1.72178 -3.41318,3.47136 l -0.65616,1.3335 0.127,7.9375 0.127,7.9375 4.318,-0.0299 c 4.19072,-0.029 4.35918,-0.0398 5.715,-0.36829 1.03982,-0.2519 1.84366,-0.56117 3.14395,-1.20959 1.52024,-0.75811 1.92403,-1.03019 3.1115,-2.09668 1.8143,-1.62911 3.05852,-3.48737 4.02519,-6.01108 l 0.65672,-1.7145 -0.071,-8.87472 -0.071,-8.87472 -1.397,0.0236 c -0.76835,0.013 -4.54025,0.13123 -8.382,0.26283 l -6.985,0.23927 -1.58649,0.5371 c -1.1936,0.40407 -1.97739,0.77554 -3.16481,1.49988 -1.43752,0.87691 -1.71369,1.11005 -3.09634,2.61379 -1.40481,1.52783 -1.57279,1.76607 -2.25178,3.19346 -0.40355,0.84835 -0.92801,2.21995 -1.16548,3.048 l -0.43177,1.50554 0.18293,11.8745 c 0.10061,6.53097 0.20287,11.89771 0.22724,11.92607 0.0244,0.0284 3.85969,-0.0169 8.52292,-0.10058 l 8.47858,-0.15215 2.18524,-0.5688 c 3.00796,-0.78295 4.94228,-1.70372 7.56547,-3.60126 1.6967,-1.22736 2.11582,-1.60732 3.42478,-3.10492 2.65647,-3.03927 4.398,-6.57169 5.1215,-10.38818 0.39766,-2.09767 0.39592,-1.87029 0.13471,-17.56868 l -0.1437,-8.636 -2.0955,0.0254 c -2.48677,0.0302 -12.72737,0.261 -18.542,0.41795 l -4.1275,0.11142 -1.651,0.44557 c -8.0366,2.16893 -13.943069,8.11806 -16.077754,16.19389 l -0.524099,1.98275 0.07902,12.3825 c 0.04346,6.81037 0.1143,13.28261 0.157423,14.38275 l 0.07841,2.00025 H 95.111935 93.31769 l -0.0014,-2.95275 z m 80.242002,0.69863 c 1.34921,-0.0206 3.52091,-0.0205 4.826,7e-5 1.30509,0.0206 0.2012,0.0375 -2.4531,0.0374 -2.6543,-4e-5 -3.72211,-0.0169 -2.3729,-0.0375 z m 22.54938,-10.31888 c 0,-0.73343 0.021,-1.03347 0.0466,-0.66675 0.0256,0.36671 0.0256,0.96678 0,1.3335 -0.0257,0.36671 -0.0466,0.0667 -0.0466,-0.66675 z m -16.7746,-0.60199 c 0.40419,-0.0253 1.03284,-0.0251 1.397,5e-4 0.36416,0.0256 0.0335,0.0462 -0.73488,0.046 -0.76835,-2.6e-4 -1.06631,-0.0212 -0.66212,-0.0465 z m 12.95928,-3.77951 c 0,-0.48895 0.0235,-0.67342 0.051,-0.40992 0.0275,0.26349 0.027,0.66354 -0.001,0.889 -0.0281,0.22545 -0.0506,0.01 -0.05,-0.47908 z m -14.17041,-0.0295 c 0.29686,-0.0267 0.78263,-0.0267 1.0795,0 0.29686,0.0267 0.054,0.0486 -0.53975,0.0486 -0.59373,0 -0.83662,-0.0219 -0.53975,-0.0486 z m 6.66778,-2.25651 c 10e-4,-0.2794 0.0274,-0.37875 0.0578,-0.22077 0.0304,0.15797 0.0292,0.38657 -0.003,0.508 -0.0318,0.12142 -0.0566,-0.008 -0.0552,-0.28723 z m 3.94129,-1.016 c 0.001,-0.34925 0.0256,-0.47706 0.0548,-0.28401 0.0292,0.19305 0.0284,0.4788 -0.002,0.635 -0.0301,0.1562 -0.054,-0.002 -0.0531,-0.35099 z m -22.7118,-0.60325 -0.50202,-0.53975 0.53975,0.50202 c 0.50197,0.46688 0.5981,0.57748 0.50202,0.57748 -0.0207,0 -0.26363,-0.24289 -0.53975,-0.53975 z m 18.64351,-4.85775 c 0.001,-0.2794 0.0274,-0.37875 0.0578,-0.22077 0.0304,0.15797 0.0292,0.38657 -0.003,0.508 -0.0318,0.12142 -0.0566,-0.008 -0.0552,-0.28723 z m 7.50366,-2.3495 c 0,-0.52388 0.0224,-0.73819 0.0498,-0.47625 0.0274,0.26193 0.0274,0.69056 0,0.9525 -0.0274,0.26193 -0.0498,0.0476 -0.0498,-0.47625 z m -3.56063,-0.127 c 0,-0.38418 0.0238,-0.54134 0.0529,-0.34925 0.0291,0.19208 0.0291,0.50641 0,0.6985 -0.0291,0.19208 -0.0529,0.0349 -0.0529,-0.34925 z m 7.37493,-0.762 c 0,-0.73343 0.021,-1.03347 0.0466,-0.66675 0.0257,0.36671 0.0257,0.96678 0,1.3335 -0.0256,0.36671 -0.0466,0.0667 -0.0466,-0.66675 z m -16.37856,-2.82575 -0.24193,-0.28575 0.28575,0.24193 c 0.26853,0.22736 0.34356,0.32957 0.24193,0.32957 -0.0241,0 -0.15269,-0.12859 -0.28575,-0.28575 z m -30.61676,-2.44475 c 0,-0.48895 0.0235,-0.67342 0.051,-0.40992 0.0275,0.26349 0.027,0.66354 -0.001,0.889 -0.0281,0.22545 -0.0505,0.01 -0.05,-0.47908 z m 32.96212,-0.28575 c -0.15796,-0.20143 -0.15348,-0.20593 0.048,-0.0479 0.12223,0.0959 0.22225,0.19587 0.22225,0.22225 0,0.10452 -0.1043,0.0373 -0.27021,-0.1743 z m 2.54,-2.794 c -0.15796,-0.20143 -0.15348,-0.20593 0.048,-0.0479 0.12223,0.0959 0.22225,0.19587 0.22225,0.22225 0,0.10452 -0.1043,0.0373 -0.27021,-0.1743 z m 5.40164,-5.0165 -0.24193,-0.28575 0.28575,0.24193 c 0.26852,0.22736 0.34356,0.32957 0.24193,0.32957 -0.0241,0 -0.15269,-0.12859 -0.28575,-0.28575 z m -41.03784,-2.50825 c 0,-0.31433 0.0248,-0.44292 0.055,-0.28575 0.0303,0.15716 0.0303,0.41433 0,0.5715 -0.0303,0.15716 -0.055,0.0286 -0.055,-0.28575 z m 43.64379,0.0317 -0.30788,-0.34925 0.34925,0.30788 c 0.32642,0.28777 0.40749,0.39062 0.30788,0.39062 -0.0227,0 -0.17991,-0.15717 -0.34925,-0.34925 z m -26.81913,-0.50724 c 0.57626,-0.0235 1.51924,-0.0235 2.0955,0 0.57626,0.0235 0.10477,0.0428 -1.04775,0.0428 -1.15253,0 -1.62401,-0.0193 -1.04775,-0.0428 z m 2.3553,-3.81002 c 0.54453,-0.0239 1.40178,-0.0237 1.905,3.8e-4 0.50323,0.024 0.0577,0.0436 -0.99005,0.0434 -1.04775,-1.3e-4 -1.45947,-0.0199 -0.91495,-0.0437 z m -18.6113,-0.12548 c 0.29686,-0.0267 0.78264,-0.0267 1.0795,0 0.29686,0.0267 0.054,0.0486 -0.53975,0.0486 -0.59373,0 -0.83661,-0.0219 -0.53975,-0.0486 z m 17.27803,-3.4306 c 0.57958,-0.0236 1.49398,-0.0235 2.032,2.6e-4 0.53802,0.0237 0.0638,0.043 -1.05378,0.0429 -1.1176,-1.3e-4 -1.5578,-0.0196 -0.97822,-0.0432 z m -17.59553,-0.11996 c 0.12224,-0.0319 0.32226,-0.0319 0.4445,0 0.12224,0.0319 0.0222,0.0581 -0.22225,0.0581 -0.24448,0 -0.34449,-0.0261 -0.22225,-0.0581 z m -6.604,-2.79897 c 0.26194,-0.0274 0.69056,-0.0274 0.9525,0 0.26194,0.0274 0.0476,0.0498 -0.47625,0.0498 -0.52388,0 -0.73819,-0.0224 -0.47625,-0.0498 z m 13.84541,-0.88449 c 0.12357,-0.0322 0.29502,-0.0301 0.381,0.005 0.086,0.0348 -0.0151,0.0611 -0.22466,0.0585 -0.20955,-0.003 -0.2799,-0.031 -0.15634,-0.0632 z m 4.44433,-0.13013 c 0.19305,-0.0292 0.4788,-0.0284 0.635,0.002 0.15621,0.0301 -0.002,0.054 -0.35099,0.0531 -0.34925,-0.001 -0.47705,-0.0256 -0.28401,-0.0548 z m 4.572,-0.127 c 0.19305,-0.0292 0.4788,-0.0284 0.635,0.002 0.15621,0.0302 -0.002,0.054 -0.35099,0.0531 -0.34925,-0.001 -0.47705,-0.0256 -0.28401,-0.0548 z m 4.63376,-0.12549 c 0.15716,-0.0303 0.41433,-0.0303 0.5715,0 0.15716,0.0303 0.0286,0.055 -0.28575,0.055 -0.31433,0 -0.44292,-0.0248 -0.28575,-0.055 z m 4.318,-0.127 c 0.15716,-0.0303 0.41433,-0.0303 0.5715,0 0.15716,0.0303 0.0286,0.055 -0.28575,0.055 -0.31433,0 -0.44292,-0.0248 -0.28575,-0.055 z m -52.1335,-2.16459 c 3.33534,-0.0188 8.79316,-0.0188 12.1285,0 3.33534,0.0188 0.60643,0.0342 -6.06425,0.0342 -6.67067,0 -9.39959,-0.0154 -6.06425,-0.0342 z m 43.8785,-1.13966 c 0.22701,-0.0282 0.59849,-0.0282 0.8255,0 0.22701,0.0282 0.0413,0.0512 -0.41275,0.0512 -0.45403,0 -0.63976,-0.023 -0.41275,-0.0512 z m 6.86027,-0.12716 c 0.22827,-0.0283 0.57117,-0.0277 0.762,0.001 0.19084,0.029 0.004,0.0521 -0.41502,0.0514 -0.4191,-7.6e-4 -0.57524,-0.0244 -0.34698,-0.0527 z m 15.39648,-1.09891 c 0,-0.0264 0.10001,-0.12639 0.22225,-0.22225 0.20143,-0.15798 0.20591,-0.15348 0.0479,0.048 -0.16591,0.21155 -0.2702,0.27882 -0.2702,0.1743 z m -39.57466,-2.04755 c 0,-0.90805 0.0205,-1.26287 0.045,-0.78847 0.0245,0.47439 0.0243,1.21734 0,1.651 -0.0247,0.43365 -0.0448,0.0455 -0.0446,-0.86253 z m 40.40016,1.3335 c 0.12642,-0.1397 0.25844,-0.254 0.29337,-0.254 0.0349,0 -0.04,0.1143 -0.16637,0.254 -0.12643,0.1397 -0.25845,0.254 -0.29337,0.254 -0.0349,0 0.0399,-0.1143 0.16637,-0.254 z m -33.03456,-1.905 c 0,-0.87313 0.0203,-1.23032 0.0451,-0.79375 0.0248,0.43656 0.0248,1.15093 0,1.5875 -0.0248,0.43656 -0.0451,0.0794 -0.0451,-0.79375 z m 33.60606,1.47605 c 0,-0.0264 0.10001,-0.12639 0.22225,-0.22225 0.20143,-0.15798 0.20591,-0.15348 0.048,0.048 -0.16591,0.21155 -0.2702,0.27882 -0.2702,0.1743 z m -63.47518,-0.30091 10.24832,-0.0336 0.0504,-0.57157 0.0504,-0.57157 -0.0117,0.60407 -0.0117,0.60407 -10.287,0.001 -10.287,10e-4 10.24832,-0.0336 z m 64.23718,-0.33409 c 0,-0.0264 0.10001,-0.12639 0.22225,-0.22225 0.20143,-0.15798 0.20591,-0.15348 0.048,0.048 -0.16591,0.21155 -0.2702,0.27882 -0.2702,0.1743 z m 0.635,-0.49979 c 0,-0.0219 0.18573,-0.2076 0.41275,-0.41275 l 0.41275,-0.37301 -0.37302,0.41275 c -0.3477,0.38474 -0.45248,0.47112 -0.45248,0.37301 z M 159.6553,114.3018 c 0,-0.5588 0.0228,-0.77161 0.0496,-0.4729 0.0268,0.29871 0.0265,0.75591 -0.001,1.016 -0.0273,0.26009 -0.0492,0.0157 -0.0488,-0.5431 z m 8.81189,0.73384 c 0.22545,-0.0281 0.6255,-0.0285 0.889,-0.001 0.26349,0.0275 0.079,0.0505 -0.40992,0.051 -0.48895,5.1e-4 -0.70454,-0.0219 -0.47908,-0.05 z m 23.84708,-1.05134 c 0.12642,-0.1397 0.25844,-0.254 0.29337,-0.254 0.0349,0 -0.04,0.1143 -0.16637,0.254 -0.12643,0.1397 -0.25845,0.254 -0.29337,0.254 -0.0349,0 0.0399,-0.1143 0.16637,-0.254 z m -40.14576,-1.905 c 0,-0.94298 0.02,-1.32874 0.0444,-0.85725 0.0244,0.47148 0.0244,1.24301 0,1.7145 -0.0245,0.47148 -0.0444,0.0857 -0.0444,-0.85725 z m 41.03476,0.889 c 0.12642,-0.1397 0.25844,-0.254 0.29337,-0.254 0.0349,0 -0.04,0.1143 -0.16637,0.254 -0.12643,0.1397 -0.25845,0.254 -0.29337,0.254 -0.0349,0 0.0399,-0.1143 0.16637,-0.254 z m -4.5085,-0.1905 c 0.16404,-0.17463 0.32684,-0.3175 0.36177,-0.3175 0.0349,0 -0.0707,0.14287 -0.23477,0.3175 -0.16405,0.17462 -0.32685,0.3175 -0.36178,0.3175 -0.0349,0 0.0707,-0.14288 0.23478,-0.3175 z m -59.27261,-0.15749 c 0.40419,-0.0253 1.03284,-0.025 1.397,5e-4 0.36416,0.0256 0.0335,0.0463 -0.73489,0.046 -0.76835,-2.6e-4 -1.0663,-0.0212 -0.66211,-0.0465 z m -13.59364,-0.12636 c 0.33179,-0.0262 0.87471,-0.0262 1.2065,0 0.33179,0.0262 0.0603,0.0476 -0.60325,0.0476 -0.66357,0 -0.93504,-0.0214 -0.60325,-0.0476 z m 73.88225,-0.85915 c 0.16404,-0.17463 0.32684,-0.3175 0.36177,-0.3175 0.0349,0 -0.0707,0.14287 -0.23477,0.3175 -0.16405,0.17462 -0.32685,0.3175 -0.36178,0.3175 -0.0349,0 0.0707,-0.14288 0.23478,-0.3175 z m -22.63775,-0.14761 c 0.0873,-0.0352 0.23019,-0.0352 0.3175,0 0.0873,0.0352 0.0159,0.064 -0.15875,0.064 -0.17463,0 -0.24606,-0.0288 -0.15875,-0.064 z m 5.59027,-0.13493 c 0.22827,-0.0283 0.57117,-0.0277 0.762,0.001 0.19084,0.029 0.004,0.0521 -0.41502,0.0514 -0.4191,-7.6e-4 -0.57524,-0.0244 -0.34698,-0.0527 z m 12.22148,-0.47946 c 0.16404,-0.17463 0.32684,-0.3175 0.36177,-0.3175 0.0349,0 -0.0707,0.14287 -0.23477,0.3175 -0.16405,0.17462 -0.32685,0.3175 -0.36178,0.3175 -0.0349,0 0.0707,-0.14288 0.23478,-0.3175 z m -51.90668,-0.381 c 0.001,-0.34925 0.0256,-0.47706 0.0548,-0.28401 0.0292,0.19305 0.0284,0.4788 -0.002,0.635 -0.0301,0.1562 -0.054,-0.002 -0.0531,-0.35099 z m 57.62168,0.127 c 0.16404,-0.17463 0.32684,-0.3175 0.36177,-0.3175 0.0349,0 -0.0707,0.14287 -0.23477,0.3175 -0.16405,0.17462 -0.32685,0.3175 -0.36178,0.3175 -0.0349,0 0.0707,-0.14288 0.23478,-0.3175 z m -4.699,-0.635 c 0.16404,-0.17463 0.32684,-0.3175 0.36177,-0.3175 0.0349,0 -0.0707,0.14287 -0.23477,0.3175 -0.16405,0.17462 -0.32685,0.3175 -0.36178,0.3175 -0.0349,0 0.0707,-0.14288 0.23478,-0.3175 z m 0.762,-0.61945 c 0,-0.0264 0.10001,-0.12639 0.22225,-0.22225 0.20143,-0.15798 0.20591,-0.15348 0.048,0.048 -0.16591,0.21155 -0.2702,0.27882 -0.2702,0.1743 z M 163.3383,108.3328 c 0,-0.5588 0.0228,-0.77161 0.0496,-0.4729 0.0268,0.29871 0.0265,0.75591 -0.001,1.016 -0.0273,0.26009 -0.0492,0.0157 -0.0488,-0.5431 z m -36.65128,0.47851 c 0.29686,-0.0267 0.78264,-0.0267 1.0795,0 0.29686,0.0267 0.054,0.0486 -0.53975,0.0486 -0.59372,0 -0.83661,-0.0219 -0.53975,-0.0486 z m 55.27675,0.045 c 0,-0.0264 0.10001,-0.12639 0.22225,-0.22225 0.20143,-0.15798 0.20591,-0.15348 0.0479,0.048 -0.16591,0.21155 -0.2702,0.27882 -0.2702,0.1743 z m -65.56375,-0.17204 c 0.29686,-0.0267 0.78264,-0.0267 1.0795,0 0.29686,0.0267 0.054,0.0486 -0.53975,0.0486 -0.59372,0 -0.83661,-0.0219 -0.53975,-0.0486 z m 23.82774,-1.43101 c 0,-0.73343 0.021,-1.03347 0.0466,-0.66675 0.0257,0.36671 0.0257,0.96678 0,1.3335 -0.0257,0.36671 -0.0466,0.0667 -0.0466,-0.66675 z m 42.62501,0.84926 c 0,-0.0219 0.18573,-0.2076 0.41275,-0.41275 l 0.41275,-0.37301 -0.37302,0.41275 c -0.3477,0.38474 -0.45248,0.47112 -0.45248,0.37301 z m -9.92982,-0.55502 c 0.0917,-0.0367 0.20122,-0.0322 0.24343,0.01 0.0422,0.0422 -0.0328,0.0722 -0.16669,0.0667 -0.14796,-0.006 -0.17804,-0.0362 -0.0767,-0.0767 z m -13.39465,-1.11974 c 0,-0.5588 0.0228,-0.77161 0.0496,-0.4729 0.0268,0.29871 0.0265,0.75591 -0.001,1.016 -0.0273,0.26009 -0.0492,0.0157 -0.0488,-0.5431 z m 7.36684,-0.0635 c 0,-0.59373 0.0219,-0.83662 0.0486,-0.53975 0.0267,0.29686 0.0267,0.78263 0,1.0795 -0.0267,0.29686 -0.0486,0.054 -0.0486,-0.53975 z m 9.32981,0.80224 c 0.0917,-0.0367 0.20122,-0.0322 0.24343,0.01 0.0422,0.0422 -0.0328,0.0722 -0.16669,0.0667 -0.14796,-0.006 -0.17804,-0.0362 -0.0767,-0.0767 z m 8.15182,-0.48474 c 0.16404,-0.17463 0.32684,-0.3175 0.36177,-0.3175 0.0349,0 -0.0707,0.14287 -0.23477,0.3175 -0.16405,0.17462 -0.32685,0.3175 -0.36178,0.3175 -0.0349,0 0.0707,-0.14288 0.23478,-0.3175 z m -47.9633,-1.9685 c 0,-0.52388 0.0224,-0.73819 0.0498,-0.47625 0.0274,0.26193 0.0274,0.69056 0,0.9525 -0.0274,0.26193 -0.0498,0.0476 -0.0498,-0.47625 z m -17.02895,0.53999 c 1.10014,-0.0211 2.90036,-0.0211 4.0005,0 1.10014,0.0211 0.20003,0.0384 -2.00025,0.0384 -2.20027,0 -3.10039,-0.0173 -2.00025,-0.0384 z m 9.52528,-1.11149 c 0.001,-0.2794 0.0274,-0.37875 0.0578,-0.22077 0.0304,0.15797 0.0292,0.38657 -0.003,0.508 -0.0318,0.12142 -0.0566,-0.008 -0.0552,-0.28723 z m 19.70231,-1.651 c 0,-0.90805 0.0205,-1.26287 0.045,-0.78847 0.0245,0.47439 0.0243,1.21734 0,1.651 -0.0247,0.43365 -0.0448,0.0455 -0.0446,-0.86253 z m 25.44307,1.36884 c 0.22546,-0.0281 0.62551,-0.0285 0.889,-0.001 0.2635,0.0275 0.079,0.0504 -0.40991,0.051 -0.48895,5.1e-4 -0.70454,-0.0219 -0.47909,-0.05 z m -18.07707,-1.74984 c 0,-0.90805 0.0205,-1.26287 0.045,-0.78847 0.0245,0.47439 0.0243,1.21734 0,1.651 -0.0247,0.43365 -0.0448,0.0455 -0.0446,-0.86253 z m 25.85866,1.42076 c 0,-0.0219 0.18573,-0.2076 0.41275,-0.41275 l 0.41275,-0.37301 -0.37302,0.41275 c -0.3477,0.38474 -0.45248,0.47112 -0.45248,0.37301 z m -48.98568,-0.91276 c 0.001,-0.34925 0.0256,-0.47706 0.0548,-0.28401 0.0292,0.19305 0.0284,0.4788 -0.002,0.635 -0.0301,0.1562 -0.054,-0.002 -0.0531,-0.35099 z m 30.36021,-2.159 c 0,-0.558804 0.0228,-0.771606 0.0496,-0.472897 0.0268,0.298707 0.0265,0.755907 -0.001,1.015997 -0.0273,0.26009 -0.0492,0.0157 -0.0488,-0.5431 z m -11.16979,-1.714504 c 0,-0.942975 0.02,-1.328738 0.0444,-0.85725 0.0244,0.471487 0.0244,1.243012 0,1.7145 -0.0245,0.471484 -0.0444,0.08572 -0.0444,-0.85725 z m -47.89241,0.8255 c 10e-4,-0.34925 0.0256,-0.477051 0.0548,-0.284004 0.0292,0.193048 0.0284,0.478798 -0.002,0.635 -0.0301,0.156198 -0.054,-0.0017 -0.0531,-0.350996 z m 83.8157,0 c 0.001,-0.2794 0.0274,-0.378746 0.0578,-0.220769 0.0304,0.157976 0.0292,0.386576 -0.003,0.508 -0.0318,0.121423 -0.0566,-0.0078 -0.0552,-0.287231 z m -28.5635,-1.016 c 0,-0.5588 0.0228,-0.771602 0.0496,-0.472893 0.0268,0.298709 0.0265,0.755909 -10e-4,1.016 -0.0273,0.260091 -0.0492,0.01569 -0.0488,-0.543107 z m -66.168852,0 c 5.08e-4,-0.48895 0.02352,-0.673412 0.05101,-0.409918 0.02749,0.263496 0.02703,0.663546 -10e-4,0.889 -0.02806,0.225456 -0.05055,0.0099 -0.04999,-0.479082 z m 73.534852,-0.127 c 0,-0.5588 0.0228,-0.771602 0.0496,-0.472893 0.0268,0.298709 0.0265,0.755909 -0.001,1.016 -0.0273,0.260091 -0.0492,0.01569 -0.0488,-0.543107 z m 24.765,-0.127 c 0,-0.5588 0.0228,-0.771602 0.0496,-0.472893 0.0268,0.298709 0.0265,0.755909 -10e-4,1.016 -0.0273,0.260091 -0.0492,0.01569 -0.0488,-0.543107 z m -7.47978,-3.8735 c 0,-2.270125 0.0172,-3.198813 0.0383,-2.06375 0.021,1.135063 0.021,2.992437 0,4.1275 -0.0211,1.135062 -0.0383,0.206375 -0.0383,-2.06375 z m -55.26715,3.302 c 0,-0.314325 0.0248,-0.442913 0.055,-0.28575 0.0303,0.157162 0.0303,0.414337 0,0.5715 -0.0303,0.157162 -0.055,0.02858 -0.055,-0.28575 z m -19.87835,-2.634299 c 0.50642,-0.02411 1.33509,-0.02411 1.8415,0 0.50642,0.02411 0.0921,0.04383 -0.92075,0.04383 -1.01282,0 -1.42716,-0.01972 -0.92075,-0.04383 z m 89.86583,-2.509201 c 0,-0.62865 0.0211,-0.901837 0.0477,-0.607082 0.0266,0.294755 0.0269,0.809105 0.001,1.143 -0.0263,0.333895 -0.048,0.09273 -0.0484,-0.535918 z m -75.62628,0.73025 c -0.15797,-0.20143 -0.15348,-0.205922 0.048,-0.04795 0.21155,0.165909 0.27883,0.2702 0.1743,0.2702 -0.0264,0 -0.12638,-0.100013 -0.22225,-0.22225 z m 57.46457,-0.92075 c 0,-0.593725 0.0219,-0.836613 0.0486,-0.53975 0.0267,0.296862 0.0267,0.782637 0,1.0795 -0.0267,0.296863 -0.0486,0.05397 -0.0486,-0.53975 z m 14.732,-0.127 c 0,-0.593725 0.0219,-0.836612 0.0486,-0.53975 0.0267,0.296862 0.0267,0.782638 0,1.0795 -0.0267,0.296863 -0.0486,0.05397 -0.0486,-0.53975 z m -26.52387,-0.254 c 0.4852,-0.48895 0.91077,-0.889 0.94569,-0.889 0.0349,0 -0.33349,0.40005 -0.81869,0.889 -0.48521,0.48895 -0.91077,0.889 -0.9457,0.889 -0.0349,0 0.33349,-0.40005 0.8187,-0.889 z m -42.2437,-0.34925 c -0.15797,-0.20143 -0.15348,-0.205922 0.048,-0.04795 0.21155,0.165909 0.27883,0.2702 0.1743,0.2702 -0.0264,0 -0.12638,-0.100013 -0.22225,-0.22225 z m 64.82973,-1.23825 c 0,-0.5588 0.0228,-0.771602 0.0496,-0.472893 0.0268,0.298709 0.0265,0.755909 -0.001,1.016 -0.0273,0.260091 -0.0492,0.01569 -0.0488,-0.543107 z m -25.69753,-0.127 c 0.23695,-0.244475 0.45939,-0.4445 0.49432,-0.4445 0.0349,0 -0.13037,0.200025 -0.36732,0.4445 -0.23696,0.244475 -0.4594,0.4445 -0.49432,0.4445 -0.0349,0 0.13036,-0.200025 0.36732,-0.4445 z m 10.50925,-0.282372 c 0.22701,-0.02817 0.59848,-0.02817 0.8255,0 0.22701,0.02817 0.0413,0.05122 -0.41275,0.05122 -0.45403,0 -0.63977,-0.02305 -0.41275,-0.05122 z m -9.49325,-0.836868 c 0,-0.02186 0.18574,-0.207594 0.41275,-0.41275 l 0.41275,-0.37301 -0.37301,0.41275 c -0.3477,0.384741 -0.45249,0.471126 -0.45249,0.37301 z m -37.6082,-0.30951 c -0.15797,-0.20143 -0.15348,-0.205922 0.048,-0.04795 0.21154,0.165909 0.27883,0.2702 0.1743,0.2702 -0.0264,0 -0.12638,-0.100012 -0.22225,-0.22225 z m 32.5282,0.1743 c 0,-0.02637 0.10001,-0.126384 0.22225,-0.22225 0.20143,-0.157972 0.20592,-0.15348 0.048,0.04795 -0.16591,0.21155 -0.2702,0.278826 -0.2702,0.1743 z m -68.538322,-1.41255 c 5.08e-4,-0.48895 0.02352,-0.673412 0.05101,-0.409918 0.02749,0.263496 0.02703,0.663546 -0.001,0.889 -0.02806,0.225456 -0.05055,0.0099 -0.04999,-0.479082 z m 69.300322,0.53176 c 0,-0.02186 0.18574,-0.207594 0.41275,-0.41275 l 0.41275,-0.37301 -0.37301,0.41275 c -0.3477,0.384741 -0.45249,0.471126 -0.45249,0.37301 z m -31.0515,-1.99226 c -1.046,-1.04775 -1.87325,-1.905 -1.83832,-1.905 0.0349,0 0.91932,0.85725 1.96532,1.905 1.046,1.04775 1.87325,1.905 1.83833,1.905 -0.0349,0 -0.91933,-0.85725 -1.96533,-1.905 z m -26.32075,1.555798 c 2.56699,-0.01921 6.76752,-0.01921 9.3345,0 2.56699,0.01921 0.46673,0.03493 -4.66725,0.03493 -5.13397,0 -7.23423,-0.01572 -4.66725,-0.03493 z m 22.05005,-0.762048 c -0.15797,-0.20143 -0.15348,-0.205922 0.048,-0.04795 0.12224,0.09587 0.22225,0.195878 0.22225,0.22225 0,0.104526 -0.10429,0.03725 -0.2702,-0.1743 z m 31.8297,-0.15875 c 0.12643,-0.1397 0.25844,-0.254 0.29337,-0.254 0.0349,0 -0.0399,0.1143 -0.16637,0.254 -0.12643,0.1397 -0.25845,0.254 -0.29337,0.254 -0.0349,0 0.0399,-0.1143 0.16637,-0.254 z m 4.7625,-0.03974 c 0,-0.02186 0.18574,-0.207594 0.41275,-0.41275 l 0.41275,-0.37301 -0.37301,0.41275 c -0.3477,0.384741 -0.45249,0.471126 -0.45249,0.37301 z m 8.35173,-0.05008 c 0.15798,-0.03038 0.38658,-0.02922 0.508,0.0026 0.12142,0.03179 -0.008,0.05664 -0.28723,0.05523 -0.2794,-0.0014 -0.37875,-0.02742 -0.22077,-0.05779 z m 3.49102,-0.124723 c 0.12223,-0.03194 0.32226,-0.03194 0.4445,0 0.12223,0.03194 0.0222,0.05808 -0.22225,0.05808 -0.24448,0 -0.34449,-0.02614 -0.22225,-0.05808 z m 3.556,-0.127 c 0.12223,-0.03194 0.32226,-0.03194 0.4445,0 0.12223,0.03194 0.0222,0.05808 -0.22225,0.05808 -0.24448,0 -0.34449,-0.02614 -0.22225,-0.05808 z m 3.683,-0.127 c 0.12223,-0.03194 0.32226,-0.03194 0.4445,0 0.12223,0.03194 0.0222,0.05808 -0.22225,0.05808 -0.24448,0 -0.34449,-0.02614 -0.22225,-0.05808 z m 12.45862,-1.944455 c 0,-0.593725 0.0219,-0.836613 0.0486,-0.53975 0.0267,0.296863 0.0267,0.782638 0,1.0795 -0.0267,0.296862 -0.0486,0.05398 -0.0486,-0.53975 z m -7.41037,-0.626167 c 0,-1.47031 -0.009,-1.516796 -0.28575,-1.570205 -0.245,-0.04719 -0.23594,-0.0575 0.0635,-0.07233 l 0.34925,-0.0173 v 1.5875 c 0,0.873125 -0.0286,1.5875 -0.0635,1.5875 -0.0349,0 -0.0635,-0.681825 -0.0635,-1.515167 z m -25.78328,-0.167583 c 1.23649,-1.268073 1.39928,-1.422951 1.39928,-1.331231 0,0.01871 -0.61436,0.633073 -1.36525,1.36525 l -1.36525,1.331231 z m 36.62265,0.15875 c 0,-0.593725 0.0219,-0.836613 0.0486,-0.53975 0.0267,0.296862 0.0267,0.782637 0,1.0795 -0.0267,0.296862 -0.0486,0.05397 -0.0486,-0.53975 z m -7.366,-1.27 c 0,-0.593725 0.0219,-0.836613 0.0486,-0.53975 0.0267,0.296862 0.0267,0.782638 0,1.0795 -0.0267,0.296862 -0.0486,0.05398 -0.0486,-0.53975 z m -57.77793,0.34925 -0.24194,-0.28575 0.28575,0.241933 c 0.26853,0.227358 0.34356,0.329567 0.24194,0.329567 -0.0241,0 -0.1527,-0.128588 -0.28575,-0.28575 z m 23.44356,0.250821 c 0,-0.01921 0.44291,-0.462123 0.98425,-0.98425 l 0.98425,-0.949321 -0.94933,0.98425 c -0.88171,0.91415 -1.01917,1.042197 -1.01917,0.949321 z m 14.95573,-0.435893 c 0.15798,-0.03038 0.38658,-0.02922 0.508,0.0026 0.12142,0.03179 -0.008,0.05664 -0.28723,0.05523 -0.2794,-0.0014 -0.37875,-0.02742 -0.22077,-0.05779 z m 3.937,-0.127 c 0.15798,-0.03038 0.38658,-0.02922 0.508,0.0026 0.12141,0.03179 -0.008,0.05664 -0.28723,0.05523 -0.2794,-0.0014 -0.37876,-0.02742 -0.22077,-0.0578 z m 3.74502,-0.124722 c 0.12223,-0.03194 0.32226,-0.03194 0.4445,0 0.12223,0.03194 0.0222,0.05808 -0.22225,0.05808 -0.24448,0 -0.34449,-0.02614 -0.22225,-0.05808 z m 4.00198,-0.129278 c 0.15798,-0.03038 0.38658,-0.02922 0.508,0.0026 0.12141,0.03179 -0.008,0.05664 -0.28723,0.05523 -0.2794,-0.0014 -0.37876,-0.02742 -0.22077,-0.05779 z m -46.08034,-0.513428 -0.30789,-0.34925 0.34925,0.307888 c 0.19209,0.169338 0.34925,0.326501 0.34925,0.34925 0,0.0996 -0.10284,0.01854 -0.39061,-0.307888 z m 17.47211,-1.55575 c 0.34399,-0.34925 0.65402,-0.635 0.68895,-0.635 0.0349,0 -0.21796,0.28575 -0.56195,0.635 -0.34399,0.34925 -0.65403,0.635 -0.68895,0.635 -0.0349,0 0.21796,-0.28575 0.56195,-0.635 z m -36.48075,0.2866 c 0.54134,-0.02381 1.42716,-0.02381 1.9685,0 0.54134,0.02381 0.0984,0.04328 -0.98425,0.04328 -1.08267,0 -1.52559,-0.01948 -0.98425,-0.04328 z M 98.372054,80.361772 c 0.579579,-0.02359 1.493979,-0.02345 2.031996,2.92e-4 0.53803,0.02375 0.0638,0.04304 -1.053776,0.04288 -1.1176,-1.66e-4 -1.557799,-0.01959 -0.97822,-0.04318 z m 76.259206,-1.266549 c 0.19305,-0.02919 0.4788,-0.02841 0.635,0.0017 0.15621,0.03014 -0.002,0.05403 -0.35099,0.05307 -0.34925,-9.52e-4 -0.47705,-0.02562 -0.28401,-0.05481 z m 4.50676,-0.125495 c 0.15716,-0.03027 0.41433,-0.03027 0.5715,0 0.15716,0.03027 0.0286,0.05504 -0.28575,0.05504 -0.31433,0 -0.44292,-0.02477 -0.28575,-0.05504 z m 4.572,-0.127 c 0.15716,-0.03027 0.41433,-0.03027 0.5715,0 0.15716,0.03027 0.0286,0.05504 -0.28575,0.05504 -0.31433,0 -0.44292,-0.02477 -0.28575,-0.05504 z m -26.82875,-0.672372 c 0.34399,-0.34925 0.65402,-0.635 0.68895,-0.635 0.0349,0 -0.21796,0.28575 -0.56195,0.635 -0.34399,0.34925 -0.65403,0.635 -0.68895,0.635 -0.0349,0 0.21796,-0.28575 0.56195,-0.635 z m 31.52775,0.545372 c 0.15716,-0.03027 0.41433,-0.03027 0.5715,0 0.15716,0.03027 0.0286,0.05504 -0.28575,0.05504 -0.31433,0 -0.44292,-0.02477 -0.28575,-0.05504 z m 6.68012,-2.196372 c 0,-0.593725 0.0219,-0.836613 0.0486,-0.53975 0.0267,0.296862 0.0267,0.782637 0,1.0795 -0.0267,0.296863 -0.0486,0.05397 -0.0486,-0.53975 z m -75.57762,0.160149 c 0.40164,-0.0252 1.05886,-0.0252 1.4605,0 0.40164,0.0252 0.073,0.04582 -0.73025,0.04582 -0.80327,0 -1.13189,-0.02062 -0.73025,-0.04582 z m -19.05,-0.127549 c 0.54134,-0.02381 1.42717,-0.02381 1.9685,0 0.54134,0.02381 0.0984,0.04328 -0.98425,0.04328 -1.08267,0 -1.525584,-0.01948 -0.98425,-0.04328 z m 98.05733,-1.6201 c 0,-0.62865 0.0211,-0.901837 0.0477,-0.607082 0.0266,0.294755 0.0269,0.809105 0.001,1.143 -0.0268,0.333895 -0.0486,0.09273 -0.049,-0.535918 z m -27.44533,0.353536 c 0.19208,-0.0291 0.50641,-0.0291 0.6985,0 0.19208,0.0291 0.0349,0.05291 -0.34925,0.05291 -0.38418,0 -0.54134,-0.02381 -0.34925,-0.05291 z m 5.334,-0.127 c 0.19208,-0.0291 0.50641,-0.0291 0.6985,0 0.19208,0.0291 0.0349,0.05291 -0.34925,0.05291 -0.38418,0 -0.54134,-0.02381 -0.34925,-0.05291 z m 5.20874,-0.127169 c 0.19305,-0.02919 0.4788,-0.02841 0.635,0.0017 0.15621,0.03015 -0.002,0.05403 -0.35099,0.05308 -0.34925,-9.52e-4 -0.47705,-0.02562 -0.28401,-0.05481 z m 5.45926,-0.126831 c 0.19208,-0.0291 0.50641,-0.0291 0.6985,0 0.19208,0.0291 0.0349,0.05291 -0.34925,0.05291 -0.38418,0 -0.54134,-0.02381 -0.34925,-0.05291 z m 5.20874,-0.127169 c 0.19305,-0.02919 0.4788,-0.02841 0.635,0.0017 0.15621,0.03014 -0.002,0.05403 -0.35099,0.05307 -0.34925,-9.52e-4 -0.47705,-0.02562 -0.28401,-0.05481 z m -73.02674,-1.654267 c 0.54134,-0.02381 1.42716,-0.02381 1.9685,0 0.54134,0.02381 0.0984,0.04328 -0.98425,0.04328 -1.08267,0 -1.52559,-0.01948 -0.98425,-0.04328 z m -19.811996,-0.127 c 0.541337,-0.02381 1.427166,-0.02381 1.968496,0 0.54134,0.02381 0.0984,0.04328 -0.98425,0.04328 -1.082671,0 -1.525584,-0.01948 -0.984246,-0.04328 z m 74.485496,-1.394471 c 0.22701,-0.02817 0.59848,-0.02817 0.8255,0 0.22701,0.02817 0.0413,0.05122 -0.41275,0.05122 -0.45403,0 -0.63977,-0.02305 -0.41275,-0.05122 z m 7.87116,-0.126789 c 0.22545,-0.02806 0.6255,-0.02852 0.889,-10e-4 0.2635,0.02749 0.079,0.05045 -0.40991,0.05101 -0.48895,5.64e-4 -0.70454,-0.02193 -0.47909,-0.04999 z m 7.493,-0.127 c 0.22545,-0.02806 0.6255,-0.02852 0.889,-0.001 0.2635,0.02749 0.079,0.05045 -0.40991,0.05101 -0.48895,5.64e-4 -0.70454,-0.02193 -0.47909,-0.04999 z m 8.00383,-0.127211 c 0.22702,-0.02817 0.59849,-0.02817 0.8255,0 0.22702,0.02817 0.0413,0.05122 -0.41275,0.05122 -0.45402,0 -0.63976,-0.02305 -0.41275,-0.05122 z"
         id="path262"
         sodipodi:nodetypes="cscssssssscssscssccscsscccsscssscsssccssssscscscssscssccccsssscccsscccssscsccccscssssscssscsssssccscsscsscccccsscsssscssscscsccsssscsccccscccscssscscccsssssssssccsscssscsccssssssssssscsssscssscssssssscccccssssccscccsscssssccccccccccccccccssccsscssssssssccccccsscccscccsscsssssscsccccccccccccccscccsscsscscccsssssscsssscssscssssssssccsssssssssssssscccccssssscscccsssssssssscsccccscccsssscssccssssscsssscsscsccccscccsssscscccssssssssssssscsccccscccsscscscccsscsscsccccscccsscscsccccsccccscccsscsscsccccscccsccsscsssssscscccccsccsssssssssssssccscccscccssssssssssscssccscccsccccscccsscssssssssssscssccssssssscsscssccssssssssssssssssscscssssssscsssssssssscssssscsscssccssssssssscssccscssssssssssssssssscssccssssssssssssssssssssssssssssscscccssssssssssssssssscssccssssssssssssssssssssssssss" /><path
         style="fill:#ffffff;fill-opacity:1;stroke-width:0.127"
         d="m 183.13006,176.88129 c 1.37489,-0.0205 3.66089,-0.0205 5.08,-6e-5 1.41911,0.0205 0.29421,0.0372 -2.49979,0.0373 -2.794,4e-5 -3.9551,-0.0167 -2.58021,-0.0372 z m -5.89369,-10.92009 c 0.29872,-0.0268 0.75592,-0.0264 1.016,8.9e-4 0.2601,0.0273 0.0157,0.0492 -0.5431,0.0488 -0.5588,-5.1e-4 -0.7716,-0.0228 -0.4729,-0.0496 z m 11.61999,-0.41484 c 0,-0.31433 0.0248,-0.44292 0.055,-0.28575 0.0303,0.15716 0.0303,0.41433 0,0.5715 -0.0303,0.15716 -0.055,0.0286 -0.055,-0.28575 z m 7.25079,-1.4605 c 0,-0.6985 0.0217,-0.96805 0.0474,-0.599 0.0257,0.36906 0.0255,0.94056 0,1.27 -0.0261,0.32945 -0.0471,0.0275 -0.0468,-0.671 z m -3.81472,-0.254 c 0,-0.48895 0.0235,-0.67342 0.051,-0.40992 0.0275,0.26349 0.027,0.66354 -0.001,0.889 -0.0281,0.22545 -0.0506,0.01 -0.05,-0.47908 z m -12.26314,-1.67954 c 0.22827,-0.0283 0.57117,-0.0277 0.762,0.001 0.19084,0.029 0.004,0.0521 -0.41502,0.0514 -0.4191,-7.6e-4 -0.57524,-0.0244 -0.34698,-0.0527 z m 4.76307,-1.30496 c 0,-0.31433 0.0248,-0.44292 0.055,-0.28575 0.0303,0.15716 0.0303,0.41433 0,0.5715 -0.0303,0.15716 -0.055,0.0286 -0.055,-0.28575 z m -17.43726,-1.23825 -0.82183,-0.85725 0.85725,0.82183 c 0.47149,0.452 0.85725,0.83777 0.85725,0.85725 0,0.0935 -0.12931,-0.0256 -0.89267,-0.82183 z m 21.37773,-1.93675 c 0,-0.38418 0.0238,-0.54134 0.0529,-0.34925 0.0291,0.19208 0.0291,0.50641 0,0.6985 -0.0291,0.19208 -0.0529,0.0349 -0.0529,-0.34925 z m 10.90869,-2.0955 c 0.003,-0.20955 0.031,-0.2799 0.0633,-0.15634 0.0322,0.12357 0.0301,0.29502 -0.005,0.381 -0.0348,0.086 -0.0611,-0.0151 -0.0586,-0.22466 z m 0.026,-2.286 c 0,-1.04775 0.0198,-1.45948 0.0437,-0.91495 0.0239,0.54453 0.0237,1.40178 0,1.905 -0.0241,0.50322 -0.0436,0.0577 -0.0434,-0.99005 z m -50.55511,0.889 c 0,-0.48895 0.0235,-0.67342 0.051,-0.40992 0.0275,0.26349 0.027,0.66354 -0.001,0.889 -0.0281,0.22545 -0.0505,0.01 -0.05,-0.47908 z m 35.55292,0.1905 c 0,-0.31433 0.0248,-0.44292 0.055,-0.28575 0.0303,0.15716 0.0303,0.41433 0,0.5715 -0.0303,0.15716 -0.055,0.0286 -0.055,-0.28575 z m 7.49906,-1.651 c 0,-0.45403 0.023,-0.63977 0.0512,-0.41275 0.0282,0.22701 0.0282,0.59848 0,0.8255 -0.0282,0.22701 -0.0512,0.0413 -0.0512,-0.41275 z m -3.56462,-2.8575 c 0.001,-0.2794 0.0274,-0.37875 0.0578,-0.22077 0.0304,0.15797 0.0292,0.38657 -0.003,0.508 -0.0318,0.12142 -0.0566,-0.008 -0.0552,-0.28723 z m -6.2036,-4.79425 -0.24193,-0.28575 0.28575,0.24193 c 0.26852,0.22736 0.34356,0.32957 0.24193,0.32957 -0.0241,0 -0.15269,-0.12859 -0.28575,-0.28575 z m -33.41076,-1.80975 c 0,-0.48895 0.0235,-0.67342 0.051,-0.40992 0.0275,0.26349 0.027,0.66354 -10e-4,0.889 -0.0281,0.22545 -0.0505,0.01 -0.05,-0.47908 z m 38.75465,-3.14325 -1.39482,-1.42875 1.42875,1.39483 c 1.32707,1.29558 1.48642,1.46267 1.39482,1.46267 -0.0186,0 -0.66158,-0.64294 -1.42875,-1.42875 z m 2.72306,-2.7305 -0.30788,-0.34925 0.34925,0.30788 c 0.32642,0.28777 0.40749,0.39062 0.30788,0.39062 -0.0227,0 -0.17991,-0.15717 -0.34925,-0.34925 z m 2.73213,-2.3495 -0.37301,-0.41275 0.41275,0.37301 c 0.38474,0.34769 0.47113,0.45249 0.37301,0.45249 -0.0219,0 -0.2076,-0.18574 -0.41275,-0.41275 z m -30.49913,-1.20524 c 0.40419,-0.0253 1.03284,-0.0251 1.397,5e-4 0.36416,0.0256 0.0335,0.0462 -0.73488,0.046 -0.76835,-2.6e-4 -1.06631,-0.0212 -0.66212,-0.0465 z m 8.69487,-3.80964 c 0.36671,-0.0257 0.96678,-0.0257 1.3335,0 0.36671,0.0256 0.0667,0.0466 -0.66675,0.0466 -0.73343,0 -1.03347,-0.021 -0.66675,-0.0466 z m -19.812,-0.127 c 0.36671,-0.0257 0.96679,-0.0257 1.3335,0 0.36671,0.0257 0.0667,0.0466 -0.66675,0.0466 -0.73343,0 -1.03346,-0.021 -0.66675,-0.0466 z m 12.13313,-3.42936 c 0.40419,-0.0253 1.03284,-0.025 1.397,5e-4 0.36416,0.0256 0.0335,0.0463 -0.73488,0.046 -0.76835,-2.6e-4 -1.06631,-0.0212 -0.66212,-0.0465 z m -14.8953,-5.58926 c 3e-5,-1.03029 -0.0617,-7.52556 -0.13729,-14.43393 l -0.13736,-12.560671 0.60062,-2.425326 c 1.19817,-4.838322 3.02067,-8.174285 6.43967,-11.787371 1.68255,-1.778054 2.11129,-2.150027 3.92581,-3.406021 3.50467,-2.42589 7.14651,-3.803693 11.40647,-4.315362 2.33031,-0.279896 5.50441,-0.367872 21.0103,-0.582335 l 6.5119,-0.09007 0.0827,4.242414 c 0.0455,2.333329 0.14584,8.72869 0.22302,14.211915 l 0.14033,9.9695 -0.32909,1.778007 c -1.08659,5.87049 -4.19602,11.13087 -8.86248,14.99305 -2.92905,2.42421 -6.65172,4.24875 -10.71219,5.25019 -1.48452,0.36612 -1.65067,0.37936 -6.4135,0.51092 -12.40812,0.34274 -16.25634,0.43301 -16.30286,0.38242 -0.0276,-0.03 -0.11569,-6.38076 -0.19575,-14.11275 l -0.14558,-14.058171 0.3995,-1.499333 c 0.26801,-1.005852 0.73898,-2.230834 1.43091,-3.721833 l 1.03142,-2.2225 2.27858,-2.321394 2.27859,-2.321392 2.16785,-1.120535 c 1.88192,-0.972749 2.40234,-1.180607 3.94584,-1.576003 l 1.778,-0.455467 9.96174,-0.259035 c 5.47894,-0.142469 9.97712,-0.243647 9.99592,-0.224839 0.0188,0.01881 0.10093,4.660977 0.18249,10.31593 l 0.14829,10.281735 -0.45558,1.865447 c -0.55875,2.28787 -1.44988,4.16041 -3.04951,6.40793 -1.95344,2.74462 -4.75479,4.84945 -8.14735,6.12161 -2.74163,1.02806 -4.49345,1.23983 -11.18329,1.35188 l -5.21429,0.0873 -0.14177,-9.21911 c -0.13578,-8.829349 -0.13162,-9.275343 0.0981,-10.549301 0.16474,-0.913553 0.42611,-1.758769 0.83442,-2.698489 0.5489,-1.263217 0.69768,-1.479022 1.93729,-2.810098 1.31386,-1.410797 1.37752,-1.459227 2.96019,-2.252304 l 1.61745,-0.810504 6.32393,-0.230368 c 3.99493,-0.145525 6.42611,-0.186907 6.60136,-0.11236 l 0.27741,0.118004 0.0401,6.428667 0.0401,6.428666 -0.76781,1.693857 c -0.72425,1.59779 -0.8386,1.76925 -2.01629,3.02338 -1.20021,1.27812 -1.31113,1.36091 -2.86818,2.14115 l -1.61968,0.81163 -2.58701,0.30421 c -2.58826,0.30435 -3.18659,0.28884 -3.44234,-0.0893 -0.0513,-0.0759 -0.0942,-0.86232 -0.0952,-1.74766 l -0.002,-1.60972 2.50825,-0.0413 2.50824,-0.0413 1.35381,-0.73103 c 1.31269,-0.70881 1.38,-0.76669 2.21575,-1.905 1.29997,-1.770577 1.36175,-2.009527 1.42011,-5.491977 0.0269,-1.60655 0.009,-3.571731 -0.0392,-4.367069 l -0.0882,-1.446069 -4.32123,0.09323 -4.32122,0.09323 -1.15791,0.563248 c -1.63444,0.79504 -2.43509,1.60957 -3.33458,3.392402 l -0.69474,1.37698 0.14264,8.019125 c 0.0784,4.41052 0.15301,8.0233 0.16569,8.02841 0.0127,0.005 2.00039,-0.0337 4.41713,-0.0863 5.41576,-0.11778 5.93247,-0.21678 8.85785,-1.69704 1.59722,-0.8082 2.03831,-1.10175 3.11113,-2.0704 1.70462,-1.53911 3.05423,-3.56752 3.93799,-5.9187 l 0.61605,-1.63891 -0.0189,-8.961089 c -0.0104,-4.928595 -0.0304,-8.968982 -0.0445,-8.978637 -0.0141,-0.0097 -3.82614,0.111767 -8.47117,0.269827 l -8.44549,0.287381 -1.5875,0.540835 c -1.222,0.416313 -1.95725,0.769837 -3.19339,1.535445 -1.44496,0.894936 -1.74794,1.150513 -3.02338,2.550335 -1.21606,1.334664 -1.52244,1.763258 -2.15612,3.016227 -0.4565,0.902625 -0.91873,2.079194 -1.2101,3.080224 l -0.47146,1.619725 0.13552,8.286277 c 0.0745,4.55745 0.17168,9.94363 0.21586,11.96928 l 0.0803,3.683 1.66812,-0.0305 c 0.91746,-0.0168 4.78713,-0.0896 8.59928,-0.1618 l 6.93115,-0.13129 2.14935,-0.57305 c 2.98075,-0.79473 4.83827,-1.67744 7.38072,-3.50739 1.70553,-1.22756 2.10766,-1.59185 3.46589,-3.13965 2.74229,-3.12508 4.42806,-6.56408 5.15426,-10.51477 l 0.35467,-1.929485 -0.18161,-12.061731 c -0.0999,-6.633952 -0.21708,-12.0972 -0.26046,-12.140551 -0.0434,-0.04335 -5.64407,0.0617 -12.446,0.233436 l -12.36713,0.312257 -1.651,0.439878 c -2.20648,0.587874 -4.95419,1.813692 -6.731,3.002868 -2.15104,1.439628 -4.45487,3.678169 -5.84335,5.677766 -1.58283,2.279464 -2.76062,4.865579 -3.47718,7.634844 l -0.53479,2.066808 0.13283,12.15719 c 0.073,6.68646 0.13309,13.11446 0.13342,14.28445 v 2.12725 h -1.7145 -1.7145 l 7e-5,-1.87325 z m -43.83128,-5.461 c -0.15797,-0.20143 -0.15348,-0.20593 0.048,-0.048 0.21155,0.1659 0.27883,0.2702 0.1743,0.2702 -0.0264,0 -0.12638,-0.10002 -0.22225,-0.22225 z m -2.921,-2.667 c -0.15797,-0.20143 -0.15348,-0.20593 0.048,-0.048 0.21155,0.1659 0.27883,0.2702 0.1743,0.2702 -0.0264,0 -0.12638,-0.10002 -0.22225,-0.22225 z m 25.32095,-0.12427 c 0.26194,-0.0274 0.69056,-0.0274 0.9525,0 0.26194,0.0274 0.0476,0.0498 -0.47625,0.0498 -0.52387,0 -0.73819,-0.0224 -0.47625,-0.0498 z m 5.59257,-3.27298 c 0.001,-0.34925 0.0256,-0.47706 0.0548,-0.28401 0.0292,0.19305 0.0284,0.4788 -0.002,0.635 -0.0301,0.1562 -0.054,-0.002 -0.0531,-0.35099 z m -4.64007,-0.52861 c 0.0873,-0.0352 0.23019,-0.0352 0.3175,0 0.0873,0.0352 0.0159,0.064 -0.15875,0.064 -0.17462,0 -0.24606,-0.0288 -0.15875,-0.064 z m -10.03072,-0.13493 c 0.22827,-0.0283 0.57117,-0.0277 0.762,10e-4 0.19084,0.029 0.004,0.0521 -0.41503,0.0514 -0.4191,-7.6e-4 -0.57523,-0.0244 -0.34697,-0.0527 z m 18.10514,-2.25746 c 0,-0.48895 0.0235,-0.67342 0.051,-0.40992 0.0275,0.26349 0.027,0.66354 -0.001,0.889 -0.028,0.22545 -0.0505,0.01 -0.05,-0.47908 z m 3.81532,-1.7145 c 0,-0.73343 0.021,-1.03347 0.0466,-0.66675 0.0257,0.36671 0.0257,0.96678 0,1.3335 -0.0257,0.36671 -0.0466,0.0667 -0.0466,-0.66675 z m -11.31539,0.381 c 0,-0.31433 0.0248,-0.44292 0.055,-0.28575 0.0303,0.15716 0.0303,0.41433 0,0.5715 -0.0303,0.15716 -0.055,0.0286 -0.055,-0.28575 z m -18.83743,-0.34925 -0.43767,-0.47625 0.47625,0.43766 c 0.44329,0.40737 0.53465,0.51484 0.43767,0.51484 -0.0212,0 -0.23554,-0.21432 -0.47625,-0.47625 z m 22.77789,-3.33375 c 0,-0.38418 0.0238,-0.54134 0.0529,-0.34925 0.0291,0.19208 0.0291,0.50641 0,0.6985 -0.0291,0.19208 -0.0529,0.0349 -0.0529,-0.34925 z m -4.07003,-2.730504 c 0.001,-0.2794 0.0274,-0.378746 0.0578,-0.220769 0.0304,0.157976 0.0292,0.386576 -0.003,0.508 -0.0318,0.121423 -0.0566,-0.0078 -0.0552,-0.287231 z m -35.550352,-1.778 c 5.08e-4,-0.48895 0.02352,-0.673412 0.05101,-0.409918 0.02749,0.263496 0.02703,0.663546 -0.001,0.889 -0.02806,0.225456 -0.05055,0.0099 -0.04999,-0.479082 z m 43.021342,-1.026583 c 0.006,-0.147949 0.0362,-0.178041 0.0767,-0.07673 0.0367,0.09168 0.0322,0.201215 -0.01,0.243418 -0.0422,0.0422 -0.0722,-0.03281 -0.0667,-0.166688 z m -12.65858,-2.116667 -0.24194,-0.28575 0.28575,0.241934 c 0.26853,0.227358 0.34356,0.329566 0.24194,0.329566 -0.0241,0 -0.1527,-0.128587 -0.28575,-0.28575 z m 1.07536,-3.8735 c -0.15797,-0.20143 -0.15348,-0.205922 0.048,-0.04795 0.21155,0.165909 0.27883,0.2702 0.1743,0.2702 -0.0264,0 -0.12638,-0.100013 -0.22225,-0.22225 z m 4.064,-1.397 c -0.15797,-0.20143 -0.15348,-0.205922 0.048,-0.04795 0.21154,0.165909 0.27883,0.2702 0.1743,0.2702 -0.0264,0 -0.12638,-0.100012 -0.22225,-0.22225 z m -35.628097,-2.57175 c 0,-0.523875 0.02242,-0.738187 0.04982,-0.47625 0.0274,0.261938 0.0274,0.690563 0,0.9525 -0.0274,0.261937 -0.04982,0.04762 -0.04982,-0.47625 z m 35.953807,-2.06375 -0.37301,-0.41275 0.41275,0.373011 c 0.22701,0.205155 0.41275,0.390893 0.41275,0.412749 0,0.09812 -0.10479,0.01173 -0.45249,-0.37301 z m 4.94893,-0.508 -0.24194,-0.28575 0.28575,0.241933 c 0.26853,0.227358 0.34356,0.329567 0.24194,0.329567 -0.0241,0 -0.1527,-0.128587 -0.28575,-0.28575 z m -18.43005,-2.85624 c 0.40419,-0.02528 1.03284,-0.02505 1.397,5.21e-4 0.36416,0.02557 0.0335,0.04625 -0.73489,0.04596 -0.76835,-2.92e-4 -1.0663,-0.0212 -0.66211,-0.04648 z M 95.254524,80.362505 c 0.401638,-0.0252 1.058862,-0.0252 1.4605,0 0.401637,0.0252 0.07303,0.04582 -0.73025,0.04582 -0.803275,0 -1.131887,-0.02062 -0.73025,-0.04582 z m 39.139756,-1.588899 -0.37301,-0.41275 0.41275,0.373011 c 0.38475,0.347698 0.47113,0.452489 0.37301,0.452489 -0.0219,0 -0.20759,-0.185737 -0.41275,-0.41275 z m -30.44026,-2.22088 c 0.36672,-0.02565 0.96679,-0.02565 1.3335,0 0.36672,0.02565 0.0667,0.04664 -0.66675,0.04664 -0.73342,0 -1.03346,-0.02099 -0.66675,-0.04664 z m 12.38714,-3.42936 c 0.40419,-0.02528 1.03284,-0.02505 1.397,5.21e-4 0.36416,0.02557 0.0335,0.04625 -0.73489,0.04596 -0.76835,-2.92e-4 -1.0663,-0.0212 -0.66211,-0.04648 z M 96.397524,72.996505 c 0.401637,-0.0252 1.058862,-0.0252 1.4605,0 0.401637,0.0252 0.07303,0.04582 -0.73025,0.04582 -0.803275,0 -1.131888,-0.02062 -0.73025,-0.04582 z"
         id="path260"
         sodipodi:nodetypes="sccsscscccscsscsccccscccccccscssscsssssssccccccsccccsccscsssssscscccscssscsccscsssscsssscssssscsccsccsscsccscccssssscsscsssssscsscccsscssscsssscssssscsscccssscssccccsssccccssccccssscssscsssssccsccscsssscssscssssccccccccccsccccsccsssscscccssssccccccsscscssscssscssssssscsccccscccccscscsssccsccccsccssssscsssscsssssssssssscsssssssssssssss" /><path
         style="fill:#ffffff;fill-opacity:1;stroke-width:0.127"
         d="m 195.13928,176.88199 4.47601,-0.0359 0.0336,-10.47588 0.0336,-10.47589 -0.001,10.50926 -0.001,10.50926 -4.5085,0.002 -4.50849,0.003 4.47601,-0.0359 z m -18.22376,-7.36684 c 2.84638,-0.0191 7.50411,-0.0191 10.3505,0 2.84638,0.019 0.51752,0.0346 -5.17525,0.0346 -5.69278,0 -8.02164,-0.0156 -5.17525,-0.0346 z m -16.04996,-0.63504 c -0.15796,-0.20143 -0.15348,-0.20593 0.048,-0.048 0.12224,0.0959 0.22225,0.19587 0.22225,0.22225 0,0.10452 -0.10429,0.0373 -0.27021,-0.1743 z m -1.524,-1.397 c -0.15796,-0.20143 -0.15348,-0.20593 0.048,-0.048 0.12224,0.0959 0.22225,0.19587 0.22225,0.22225 0,0.10452 -0.10429,0.0373 -0.27021,-0.1743 z m -1.397,-1.27 c -0.15796,-0.20143 -0.15348,-0.20593 0.048,-0.048 0.12224,0.0959 0.22225,0.19587 0.22225,0.22225 0,0.10452 -0.10429,0.0373 -0.27021,-0.1743 z m 34.34787,-0.73025 c 0,-0.48895 0.0235,-0.67342 0.051,-0.40992 0.0275,0.26349 0.027,0.66354 -0.001,0.889 -0.0281,0.22545 -0.0506,0.01 -0.05,-0.47908 z m -16.90091,0.47898 c 0.26193,-0.0274 0.69056,-0.0274 0.9525,0 0.26193,0.0274 0.0476,0.0498 -0.47625,0.0498 -0.52388,0 -0.73819,-0.0224 -0.47625,-0.0498 z m 13.46831,-1.55848 c 0,-0.38418 0.0238,-0.54134 0.0529,-0.34925 0.0291,0.19208 0.0291,0.50641 0,0.6985 -0.0291,0.19208 -0.0529,0.0349 -0.0529,-0.34925 z m 7.24792,-2.794 c 0,-0.73343 0.021,-1.03347 0.0466,-0.66675 0.0256,0.36671 0.0256,0.96678 0,1.3335 -0.0257,0.36671 -0.0466,0.0667 -0.0466,-0.66675 z m -31.55919,0.79375 c -0.15796,-0.20143 -0.15348,-0.20593 0.048,-0.0479 0.12224,0.0959 0.22225,0.19587 0.22225,0.22225 0,0.10452 -0.10429,0.0373 -0.27021,-0.1743 z m 16.87773,-0.25079 c 0.22827,-0.0283 0.57117,-0.0277 0.762,0.001 0.19084,0.029 0.004,0.0521 -0.41502,0.0514 -0.4191,-7.6e-4 -0.57524,-0.0244 -0.34698,-0.0527 z m -9.65427,-0.11907 c 0.0873,-0.0352 0.23018,-0.0352 0.3175,0 0.0873,0.0352 0.0159,0.064 -0.15875,0.064 -0.17463,0 -0.24607,-0.0288 -0.15875,-0.064 z m 12.99577,-0.49798 c 0.006,-0.14795 0.0362,-0.17804 0.0767,-0.0767 0.0367,0.0917 0.0322,0.20122 -0.01,0.24342 -0.0422,0.0422 -0.0722,-0.0328 -0.0667,-0.16669 z m 3.9633,-5.06941 c 0.001,-0.34925 0.0256,-0.47706 0.0548,-0.28401 0.0292,0.19305 0.0284,0.4788 -0.002,0.635 -0.0301,0.1562 -0.054,-0.002 -0.0531,-0.35099 z m -4.06573,-1.0795 c 0,-0.31433 0.0248,-0.44292 0.055,-0.28575 0.0303,0.15716 0.0303,0.41433 0,0.5715 -0.0303,0.15716 -0.055,0.0286 -0.055,-0.28575 z m 7.5011,-1.016 c 0,-0.52388 0.0224,-0.73819 0.0498,-0.47625 0.0274,0.26193 0.0274,0.69056 0,0.9525 -0.0274,0.26193 -0.0498,0.0476 -0.0498,-0.47625 z m -24.75412,-3.302 c 0,-1.43193 0.0185,-2.01772 0.0412,-1.30175 0.0226,0.71596 0.0226,1.88753 0,2.6035 -0.0226,0.71596 -0.0412,0.13017 -0.0412,-1.30175 z m -18.2999,1.4605 c 0,-0.48895 0.0235,-0.67342 0.051,-0.40992 0.0275,0.26349 0.027,0.66354 -0.001,0.889 -0.0281,0.22545 -0.0505,0.01 -0.05,-0.47908 z m 35.41138,-3.3655 c 0,-0.17463 0.0288,-0.24607 0.0641,-0.15875 0.0352,0.0873 0.0352,0.23018 0,0.3175 -0.0352,0.0873 -0.0641,0.0159 -0.0641,-0.15875 z m -24.60183,-3.14296 0.007,-1.23854 8.001,-0.001 8.001,-10e-4 -7.96467,0.0341 -7.96466,0.0341 -0.0436,1.20585 -0.0436,1.20585 0.007,-1.23854 z m 20.63516,-2.66729 -0.30788,-0.34925 0.34925,0.30788 c 0.19208,0.16934 0.34925,0.32651 0.34925,0.34925 0,0.0996 -0.10285,0.0185 -0.39062,-0.30788 z m -27.9974,-2.92094 0.004,-3.01631 11.96975,-0.001 11.96976,-0.001 -11.93572,0.0334 -11.9357,0.0334 -0.0376,2.98392 -0.0376,2.98392 0.004,-3.01632 z m -3.57431,1.17469 c 0,-0.48895 0.0235,-0.67342 0.051,-0.40992 0.0275,0.26349 0.027,0.66354 -0.001,0.889 -0.0281,0.22545 -0.0505,0.01 -0.05,-0.47908 z m 34.74671,-0.53975 -0.30788,-0.34925 0.34925,0.30788 c 0.19208,0.16934 0.34925,0.32651 0.34925,0.34925 0,0.0996 -0.10285,0.0185 -0.39062,-0.30788 z m 1.52927,-3.429 -0.69415,-0.73025 0.73025,0.69416 c 0.40163,0.38179 0.73025,0.7104 0.73025,0.73025 0,0.0943 -0.12144,-0.0157 -0.76635,-0.69416 z m 5.83673,0.381 -0.30788,-0.34925 0.34925,0.30788 c 0.32642,0.28777 0.40749,0.39062 0.30788,0.39062 -0.0227,0 -0.17991,-0.15717 -0.34925,-0.34925 z m -31.20063,-4.18961 c 0.40164,-0.0252 1.05886,-0.0252 1.4605,0 0.40164,0.0252 0.073,0.0458 -0.73025,0.0458 -0.80328,0 -1.13189,-0.0206 -0.73025,-0.0458 z m 30.44141,-1.52539 -0.43766,-0.47625 0.47625,0.43766 c 0.44328,0.40737 0.53464,0.51484 0.43766,0.51484 -0.0212,0 -0.23553,-0.21432 -0.47625,-0.47625 z m -16.33978,-2.28474 c 0.40419,-0.0253 1.03284,-0.0251 1.397,5e-4 0.36416,0.0256 0.0335,0.0463 -0.73488,0.046 -0.76835,-2.6e-4 -1.06631,-0.0212 -0.66212,-0.0465 z m -19.812,-0.127 c 0.40419,-0.0253 1.03284,-0.025 1.397,5e-4 0.36416,0.0256 0.0335,0.0463 -0.73488,0.046 -0.76835,-2.6e-4 -1.06631,-0.0212 -0.66212,-0.0465 z m 6.858,-3.429 c 0.40419,-0.0253 1.03284,-0.025 1.397,5e-4 0.36416,0.0256 0.0335,0.0463 -0.73488,0.046 -0.76835,-2.6e-4 -1.06631,-0.0212 -0.66212,-0.0465 z m -20.68987,-7.71651 c 0,-0.76835 0.0212,-1.0663 0.0465,-0.66212 0.0253,0.40419 0.025,1.03284 0,1.397 -0.0256,0.36417 -0.0462,0.0335 -0.046,-0.73488 z m -38.41771,-1.30175 c -0.15797,-0.20143 -0.15348,-0.20593 0.048,-0.048 0.21155,0.1659 0.27883,0.2702 0.1743,0.2702 -0.0264,0 -0.12638,-0.10002 -0.22225,-0.22225 z m -1.27,-1.143 c -0.15797,-0.20143 -0.15348,-0.20593 0.048,-0.048 0.12224,0.0959 0.22225,0.19587 0.22225,0.22225 0,0.10452 -0.10429,0.0373 -0.2702,-0.1743 z m 3.175,-1.905 c -0.15797,-0.20143 -0.15348,-0.20593 0.048,-0.048 0.12224,0.0959 0.22225,0.19587 0.22225,0.22225 0,0.10452 -0.10429,0.0373 -0.2702,-0.1743 z m -1.397,-1.27 c -0.15797,-0.20143 -0.15348,-0.20593 0.048,-0.048 0.21155,0.1659 0.27883,0.2702 0.1743,0.2702 -0.0264,0 -0.12638,-0.10002 -0.22225,-0.22225 z m 23.1018,-0.50591 c 0.29872,-0.0268 0.75592,-0.0264 1.016,8.9e-4 0.2601,0.0273 0.0157,0.0492 -0.5431,0.0488 -0.5588,-5.1e-4 -0.7716,-0.0228 -0.4729,-0.0496 z m 10.86507,-4.54234 c 0,-0.48895 0.0235,-0.67342 0.051,-0.40992 0.0275,0.26349 0.027,0.66354 -0.001,0.889 -0.028,0.22545 -0.0505,0.01 -0.05,-0.47908 z m -16.70814,0.60646 c 0.22826,-0.0283 0.57116,-0.0277 0.762,10e-4 0.19084,0.029 0.004,0.0521 -0.41503,0.0514 -0.4191,-7.6e-4 -0.57523,-0.0244 -0.34697,-0.0527 z m 13.27553,-0.54296 c 0,-0.38418 0.0238,-0.54134 0.0529,-0.34925 0.0291,0.19208 0.0291,0.50641 0,0.6985 -0.0291,0.19208 -0.0529,0.0349 -0.0529,-0.34925 z m -21.37773,-1.87325 -0.82183,-0.85725 0.85725,0.82183 c 0.47149,0.452 0.85725,0.83777 0.85725,0.85725 0,0.0935 -0.12931,-0.0256 -0.89267,-0.82183 z m 17.31027,-0.15875 c 0,-0.31433 0.0248,-0.44292 0.055,-0.28575 0.0303,0.15716 0.0303,0.41433 0,0.5715 -0.0303,0.15716 -0.055,0.0286 -0.055,-0.28575 z m -3.53368,-5.08 c 0,-2.339979 0.0172,-3.297241 0.0381,-2.127254 0.0209,1.169984 0.0209,3.084514 0,4.254504 -0.021,1.16998 -0.0381,0.21272 -0.0381,-2.12725 z m 14.84846,1.2065 c 0,-0.6985 0.0217,-0.96805 0.0474,-0.599 0.0257,0.36906 0.0255,0.94056 0,1.27 -0.0261,0.32945 -0.0471,0.0275 -0.0468,-0.671 z m -7.37606,-2.032 c 0.001,-0.349254 0.0256,-0.477055 0.0548,-0.284008 0.0292,0.193048 0.0284,0.478798 -0.002,0.634998 -0.0301,0.1562 -0.054,-0.002 -0.0531,-0.35099 z m -4.06572,-0.571504 c 0,-0.314325 0.0248,-0.442913 0.055,-0.28575 0.0303,0.157162 0.0303,0.414337 0,0.5715 -0.0303,0.157164 -0.055,0.02858 -0.055,-0.28575 z m -28.29748,-6.5405 c 3e-5,-2.9337 0.0167,-4.115716 0.037,-2.6267 0.0203,1.489014 0.0203,3.889314 -6e-5,5.334 -0.0204,1.444684 -0.037,0.2264 -0.037,-2.7073 z m 35.79858,3.8735 c 0,-0.523875 0.0224,-0.738188 0.0498,-0.47625 0.0274,0.261937 0.0274,0.690562 0,0.9525 -0.0274,0.261937 -0.0498,0.04762 -0.0498,-0.47625 z m -43.052997,-1.778 c 0,-0.523875 0.02242,-0.738187 0.04982,-0.47625 0.0274,0.261937 0.0274,0.690563 0,0.9525 -0.0274,0.261937 -0.04982,0.04762 -0.04982,-0.47625 z m 30.802097,-0.98425 c -0.15797,-0.20143 -0.15348,-0.205922 0.0479,-0.04795 0.21155,0.165909 0.27883,0.2702 0.1743,0.2702 -0.0264,0 -0.12638,-0.100012 -0.22225,-0.22225 z m 1.14959,-3.81 -0.30789,-0.34925 0.34925,0.307887 c 0.19209,0.16934 0.34925,0.326502 0.34925,0.34925 0,0.0996 -0.10284,0.01854 -0.39061,-0.307887 z m 3.10905,-2.3495 -0.24194,-0.28575 0.28575,0.241934 c 0.26853,0.227358 0.34356,0.329566 0.24194,0.329566 -0.0241,0 -0.1527,-0.128588 -0.28575,-0.28575 z m -35.188762,-3.84175 c 5.08e-4,-0.48895 0.02352,-0.673413 0.05101,-0.409917 0.02749,0.263495 0.02703,0.663545 -0.001,0.888999 -0.02806,0.225456 -0.05055,0.0099 -0.04999,-0.479082 z m 41.542832,-0.22225 -0.37301,-0.41275 0.41275,0.37301 c 0.38475,0.347698 0.47113,0.45249 0.37301,0.45249 -0.0219,0 -0.20759,-0.185738 -0.41275,-0.41275 z m -21.86776,-3.491101 c 0.40164,-0.0252 1.05886,-0.0252 1.4605,0 0.40164,0.0252 0.073,0.04582 -0.73025,0.04582 -0.80327,0 -1.13188,-0.02062 -0.73025,-0.04582 z m -19.367496,-0.12502 c 0.227013,-0.02817 0.598488,-0.02817 0.8255,0 0.227013,0.02817 0.04127,0.05122 -0.41275,0.05122 -0.454025,0 -0.639762,-0.02305 -0.41275,-0.05122 z m 41.872266,-0.701879 -0.50202,-0.53975 0.53975,0.502024 c 0.29686,0.276114 0.53975,0.519001 0.53975,0.53975 0,0.09609 -0.1106,-6.2e-5 -0.57748,-0.502024 z m -28.72313,-3.11024 c 0.40419,-0.02528 1.03284,-0.02505 1.397,5.21e-4 0.36416,0.02557 0.0335,0.04625 -0.73489,0.04596 -0.76835,-2.92e-4 -1.0663,-0.0212 -0.66211,-0.04648 z m -13.440467,-1.77909 0.0056,-1.74642 1.3335,-0.0074 1.3335,-0.0074 -1.298195,0.04351 -1.298194,0.04351 -0.04089,1.710266 -0.04089,1.710267 0.0056,-1.74642 z m 20.552467,-1.64991 c 0.40419,-0.02528 1.03284,-0.02505 1.397,5.21e-4 0.36416,0.02557 0.0335,0.04625 -0.73489,0.04596 -0.76835,-2.92e-4 -1.0663,-0.0212 -0.66211,-0.04648 z"
         id="path258"
         sodipodi:nodetypes="ccccccccccccscccsccccsccccscccsccsssssssssscsssssscccccssssscssscscccscssssssscsscsccscssccccccccccscssscccccccccccsccscsssscsssscsssssssscssssscssccssccscscccccsccccsccccsccccscccsccccssccccccssssscsssscsssscscsccccscccscsscscccssssssssccsccscsssscssscscccscsssssssssssscsssssssccccccccccssss" /><path
         style="fill:#ffffff;fill-opacity:1;stroke-width:0.127"
         d="m 169.20027,176.46711 c -5.92718,-1.29264 -10.84171,-4.33972 -14.63499,-9.0739 -2.30272,-2.87393 -3.945,-6.29163 -4.93552,-10.27123 l -0.43727,-1.75687 -0.12153,-8.91113 c -0.0668,-4.90112 -0.12278,-9.75582 -0.12435,-10.78822 l -0.003,-1.8771 14.06525,0.0782 14.06525,0.0782 1.54077,0.43097 c 1.02898,0.28781 2.25236,0.7709 3.683,1.45436 l 2.14223,1.02339 2.32759,2.31299 2.32759,2.313 1.06923,2.12498 c 0.87366,1.73629 1.14926,2.43319 1.50674,3.81 l 0.4375,1.68502 0.0717,6.731 c 0.0394,3.70205 0.10523,8.28833 0.14621,10.19175 l 0.0745,3.46075 H 182.03265 171.6639 l -1.78199,-0.44876 c -2.26898,-0.5714 -4.18277,-1.50601 -6.31659,-3.08476 -2.73139,-2.02087 -4.76274,-4.7736 -6.01455,-8.15048 -0.5562,-1.50044 -0.67288,-1.992 -0.93441,-3.937 -0.2723,-2.02506 -0.2992,-2.68791 -0.30269,-7.46125 l -0.004,-5.23875 h 9.16405 c 8.80457,0 9.21915,0.0105 10.56879,0.26875 1.0176,0.19469 1.77185,0.4377 2.73675,0.88175 1.18278,0.54433 1.48629,0.75779 2.70952,1.90567 1.33512,1.25288 1.40352,1.34399 2.22213,2.96 l 0.84461,1.66733 0.11975,6.51729 c 0.10156,5.52741 0.0928,6.54238 -0.0577,6.68251 -0.14332,0.13346 -1.40993,0.14882 -6.59092,0.0799 l -6.4135,-0.0853 -1.651,-0.79194 c -1.56062,-0.74858 -1.72282,-0.86292 -2.96282,-2.08871 -1.20556,-1.19173 -1.37414,-1.42023 -2.0811,-2.82077 l -0.76927,-1.524 -0.25989,-2.74337 c -0.21892,-2.31099 -0.23378,-2.80639 -0.0943,-3.14325 l 0.16564,-0.39988 h 1.69909 1.6991 v 2.45292 2.45292 l 0.73144,1.4066 c 0.71298,1.37111 0.76157,1.42988 1.92582,2.32968 0.92705,0.71646 1.40402,0.98965 2.1309,1.22048 0.90102,0.28612 1.09035,0.2974 4.99568,0.2974 h 4.05916 v -4.30536 -4.30535 l -0.51466,-1.1239 c -0.71116,-1.55303 -1.74486,-2.59983 -3.50098,-3.54537 l -1.28515,-0.69194 -7.98585,0.0327 -7.98586,0.0327 0.0422,4.445 c 0.0519,5.45813 0.14656,6.00833 1.52547,8.8632 0.75649,1.56623 1.02351,1.97752 2.01995,3.11145 1.57253,1.78949 3.45489,3.09265 5.87322,4.06602 l 1.71512,0.69033 8.93878,0.0669 8.93878,0.0669 -0.0789,-2.14593 c -0.0434,-1.18027 -0.11357,-4.91772 -0.15596,-8.30544 l -0.0771,-6.1595 -0.51535,-1.651 c -0.41739,-1.33717 -0.70825,-1.97691 -1.53016,-3.3655 -0.94562,-1.59759 -1.12211,-1.8141 -2.58809,-3.175 -1.41252,-1.31128 -1.73183,-1.53998 -3.12514,-2.23838 -0.85917,-0.43065 -2.23217,-0.98407 -3.07589,-1.2398 l -1.524,-0.46193 -11.8745,0.0333 -11.8745,0.0333 0.0387,8.5725 0.0387,8.5725 0.51879,2.159 c 0.70786,2.94579 1.566,4.83932 3.39029,7.48088 1.19696,1.73319 1.5423,2.12865 3.09041,3.53901 1.37616,1.25371 2.09762,1.79789 3.429,2.58644 2.24325,1.32863 4.56336,2.23807 6.9447,2.72221 l 1.82956,0.37196 h 12.18974 12.18974 l -0.0946,-12.28546 -0.0946,-12.28546 -0.4324,-1.76095 c -0.99025,-4.0329 -2.77354,-7.32713 -5.50957,-10.17769 -2.96497,-3.08907 -6.24468,-5.062 -10.40903,-6.26163 l -1.97347,-0.5685 -12.446,-0.0985 c -6.8453,-0.0542 -13.31754,-0.10396 -14.38275,-0.11066 l -1.93675,-0.0122 v -1.72159 -1.72159 l 14.44625,0.0817 14.44625,0.0817 2.413,0.63828 c 4.79672,1.26882 8.08918,3.12787 11.66644,6.58735 1.77921,1.72063 2.15983,2.16582 3.25931,3.81231 1.45714,2.18209 1.47787,2.22015 2.37954,4.37041 1.04332,2.48803 1.52073,4.31302 1.81063,6.9215 0.22824,2.05363 0.24719,3.19948 0.24929,15.08125 l 0.002,12.85875 -14.38274,-0.0111 -14.38275,-0.0111 -1.651,-0.36006 z m -55.5625,-53.33329 c -3.49052,-0.75306 -6.66223,-2.08556 -9.32832,-3.91902 -5.363826,-3.68866 -8.975683,-9.0702 -10.585111,-15.77144 l -0.381268,-1.5875 -0.07719,-7.747004 C 93.223421,89.848006 93.153888,85.02364 93.11136,83.388044 l -0.07732,-2.973812 14.19318,0.08378 14.19319,0.08378 1.47443,0.411388 c 1.01536,0.283301 2.14664,0.740424 3.63343,1.468191 l 2.159,1.056803 2.26411,2.247339 2.26411,2.247339 1.08696,2.159 c 0.83648,1.661464 1.18674,2.524836 1.5199,3.7465 l 0.43291,1.5875 0.11498,8.001008 c 0.0632,4.40055 0.1178,9.04398 0.12126,10.31875 l 0.006,2.31775 -10.25525,-0.003 -10.25525,-0.003 -1.905,-0.48508 c -2.42017,-0.61626 -4.11514,-1.44653 -6.37615,-3.12329 -2.80464,-2.07994 -4.78961,-4.79342 -6.02509,-8.2364 -0.98729,-2.75132 -1.12426,-4.08653 -1.12426,-10.959419 v -5.510689 h 9.2665 c 10.67975,0 10.68447,3.81e-4 13.08868,1.080926 1.19631,0.537669 1.47274,0.730759 2.74534,1.917652 1.40716,1.312399 1.41968,1.329265 2.23758,3.013942 l 0.82249,1.694159 0.13168,6.400969 c 0.09,4.37248 0.0904,6.47805 0.002,6.64421 -0.12662,0.23659 -0.30718,0.24082 -6.58738,0.15436 l -6.4572,-0.0889 -1.68736,-0.80673 c -1.64129,-0.78472 -1.72447,-0.84436 -3.04793,-2.18541 -1.26983,-1.28672 -1.40704,-1.47664 -2.05714,-2.84744 l -0.69655,-1.46876 -0.26385,-2.64704 c -0.20394,-2.046109 -0.23204,-2.7434 -0.12376,-3.07149 l 0.14007,-0.424448 h 1.76815 1.76815 v 2.478616 2.478622 l 0.68775,1.37132 c 0.68225,1.36039 0.69745,1.37863 1.90427,2.28573 0.95438,0.71735 1.43309,0.98281 2.22155,1.23188 0.99443,0.31415 1.04689,0.31713 4.98547,0.28391 l 3.98046,-0.0336 0.0335,-4.17191 0.0335,-4.171912 -0.53367,-1.225593 c -0.73423,-1.686212 -1.7342,-2.73258 -3.5076,-3.670343 l -1.26088,-0.66675 h -8.01868 -8.01868 v 4.31562 c 0,4.216236 0.008,4.348478 0.33455,5.742328 0.24397,1.04042 0.56456,1.90929 1.18409,3.20913 0.75054,1.57469 0.98908,1.94114 2.04671,3.14424 1.62341,1.84669 3.41349,3.09145 5.85465,4.07112 l 1.71861,0.68971 8.9087,0.0938 8.90869,0.0938 v -1.18666 c 0,-0.65266 -0.0603,-4.43177 -0.13349,-8.39801 l -0.13307,-7.211367 -0.51467,-1.615141 c -0.39527,-1.240451 -0.73557,-1.990976 -1.46692,-3.235227 -0.87277,-1.484841 -1.08457,-1.744589 -2.53712,-3.1115 -1.38633,-1.304586 -1.76256,-1.582435 -3.00335,-2.218026 -0.78016,-0.399636 -2.13479,-0.956848 -3.0103,-1.23825 L 120.6778,84.012382 H 108.71219 96.746774 l -0.0011,8.47725 -0.0011,8.477258 0.528073,2.2225 c 0.713293,3.00202 1.5935,4.94827 3.457163,7.64422 1.18547,1.71487 1.54301,2.12495 3.03032,3.47555 3.06477,2.78306 6.39202,4.48466 10.44585,5.34214 l 2.02858,0.42909 h 12.1004 12.10038 l -0.063,-3.90525 c -0.0347,-2.14789 -0.092,-7.70904 -0.1274,-12.35811 l -0.0643,-8.45287 -0.43946,-1.770639 c -0.99345,-4.002724 -2.76858,-7.243924 -5.56141,-10.154534 -2.98472,-3.110583 -6.22756,-5.032995 -10.46913,-6.206278 l -2.02597,-0.560397 -14.24686,-0.09437 -14.24687,-0.09437 v -1.717545 -1.717545 l 14.50975,0.08528 14.50975,0.08528 2.4765,0.681716 c 4.67675,1.287388 7.67978,2.986918 11.2266,6.353583 1.8972,1.800835 2.10869,2.050717 3.50304,4.13904 1.27222,1.905422 1.60248,2.5124 2.3149,4.2545 1.1439,2.797209 1.55067,4.413409 1.87013,7.43066 0.24652,2.328274 0.26233,3.229909 0.26233,14.954259 v 12.47659 l -14.31925,-0.0165 -14.31925,-0.0165 z"
         id="path256"
         sodipodi:nodetypes="cssccccccsscccssccscccssssccssssscssscssscsccccccsssscccssccccssscccsscssssscccccssssscccccsssccscccccssssscccccccsscsscccsscccssccccccsssscsssscccscssscsscccccsssscccsscccscssscccsscssssccccccssssccccccssscccccccsssssscccc" /></g></g></svg>
